<svg width="98" height="59" viewBox="0 0 98 59" fill="none" xmlns="http://www.w3.org/2000/svg">
<mask id="mask0_113_19" style="mask-type:luminance" maskUnits="userSpaceOnUse" x="32" y="0" width="34" height="39">
<path d="M32.4186 0.608429H65.5426V38.9164H32.4186V0.608429Z" fill="white"/>
</mask>
<g mask="url(#mask0_113_19)">
<path d="M48.9857 38.9164V36.79L32.4186 26.1966V28.3231L48.9857 38.9164ZM48.9857 23.9759V26.1157L55.5456 21.916L53.8826 20.8528L48.9857 23.9759ZM49.0122 0.608429V2.73591L65.5793 13.3283V11.2018L49.0122 0.608429ZM49.0122 15.55V13.4092L42.4391 17.6088L44.1163 18.6721L49.0122 15.55Z" fill="#4282B8"/>
</g>
<mask id="mask1_113_19" style="mask-type:luminance" maskUnits="userSpaceOnUse" x="32" y="4" width="34" height="31">
<path d="M32.4186 4.78146H65.5426V34.6625H32.4186V4.78146Z" fill="white"/>
</mask>
<g mask="url(#mask1_113_19)">
<path d="M48.9857 34.6492V32.5094L32.4186 21.916V24.0558L48.9857 34.6492ZM48.9857 30.383L58.8857 24.0435L57.2218 22.9793L48.9857 28.2555V30.383ZM49.0122 4.8757V7.01548L65.5793 17.6088V15.468L49.0122 4.8757ZM49.0122 9.14193L39.0999 15.4824L40.7761 16.5456L49.0122 11.2694V9.14193Z" fill="black"/>
<path d="M48.9857 30.383V28.2422L32.4186 17.6498V19.7896L48.9857 30.383ZM48.9857 34.6492L62.2392 26.1833L60.563 25.1057L48.9857 32.5227V34.6492ZM49.0122 9.14193V11.2827L65.5793 21.8761V19.7363L49.0122 9.14193ZM49.0122 4.8757L35.7587 13.3426L37.4227 14.4192L49.0122 7.00216V4.8757Z" fill="#4A4C4E"/>
</g>
<mask id="mask2_113_19" style="mask-type:luminance" maskUnits="userSpaceOnUse" x="32" y="0" width="34" height="39">
<path d="M32.4186 0.608429H65.5426V38.9164H32.4186V0.608429Z" fill="white"/>
</mask>
<g mask="url(#mask2_113_19)">
<path d="M48.9857 26.1157V23.9759L32.4186 13.3825V15.5223L48.9857 26.1157ZM48.9857 38.9164L65.5793 28.3097L63.9031 27.2465L48.9857 36.79V38.9164ZM49.0122 13.4092V15.55L65.5793 26.1423V24.0025L49.0122 13.4092ZM49.0122 0.608429L32.4186 11.2151L34.0825 12.2783L49.0122 2.73591V0.608429Z" fill="#B1C6DC"/>
</g>
<path d="M16.4982 48.6431V48.1545H20.6581V48.6431H16.4982ZM20.6581 46.8588V47.3259H16.4982V46.8588H20.6581ZM21.9392 45.9564H15.2385V51.1189H16.4982V49.4615H20.6581V49.8754C20.6581 50.0351 20.605 50.0771 20.4151 50.0884C20.2559 50.0987 19.5678 50.0987 19.0493 50.0669C19.2085 50.3537 19.3769 50.7675 19.4413 51.0758C20.2875 51.0758 20.9225 51.0656 21.3574 50.9171C21.7912 50.7573 21.9392 50.492 21.9392 49.8969V45.9564ZM19.1758 44.5438V44.044H22.2353V43.1518H19.1758V42.6735H22.7018V41.7291H19.1758V41.1872H17.8957V41.7291H14.529V42.6735H17.8957V43.1518H14.921V44.044H17.8957V44.5438H13.8828V45.4883H23.2418V44.5438H19.1758Z" fill="#4379A6"/>
<path d="M30.1015 46.0947C29.7309 46.1797 29.3603 46.2534 28.9898 46.3384V44.4588H30.0698V43.2584H28.9898V41.1974H27.7719V43.2584H27.285C27.3595 42.8118 27.4228 42.3662 27.4759 41.9196L26.4173 41.7393C26.3009 42.9818 26.0784 44.2888 25.6874 45.1277C25.9303 45.266 26.3958 45.563 26.5867 45.7228C26.7562 45.3613 26.9042 44.9362 27.0308 44.4588H27.7719V46.5935C27.0104 46.7533 26.3009 46.8905 25.7394 46.9868L26.0365 48.2293C26.5551 48.1125 27.1482 47.9743 27.7719 47.836V51.1189H28.9898V47.5389C29.4134 47.4437 29.8156 47.3371 30.228 47.2306L30.1015 46.0947ZM33.4039 49.4615V45.5733H35.4159V44.3523H33.4039V41.1974H32.1339V44.3523H30.1648V45.5733H32.1339V49.4615H29.6993V50.7143H35.6905V49.4615H33.4039Z" fill="black"/>
<path d="M41.5232 43.7787C42.1469 44.3093 42.9727 45.0529 43.3331 45.5313L44.2855 44.7344C43.8731 44.2673 43.0473 43.5554 42.4123 43.0771L41.5232 43.7787ZM40.8555 45.7116C40.8555 45.5846 40.8555 45.4565 40.8555 45.3397V42.8015H45.1012V45.7116H40.8555ZM47.6839 45.7116H46.3711V41.6328H39.5856V45.7116H38.1452V46.9223H39.5009C39.3529 48.1013 38.9609 49.3233 37.9125 50.2257C38.1881 50.3957 38.675 50.8526 38.8659 51.1076C40.1144 50.0352 40.6014 48.4209 40.7708 46.9223H45.1012V49.6203C45.1012 49.8436 45.0165 49.9184 44.7827 49.9286C44.5397 49.9286 43.7139 49.9389 43.0044 49.8866C43.1851 50.2257 43.3862 50.7675 43.4382 51.1189C44.5295 51.1189 45.2594 51.1076 45.7249 50.9058C46.2016 50.704 46.3711 50.364 46.3711 49.6418V46.9223H47.6839V45.7116Z" fill="black"/>
<path d="M55.7705 49.0999V43.6086H59.3271V42.2914H50.8695V43.6086H54.3312V49.0999H50.2979V50.3752H59.9202V49.0999H55.7705Z" fill="black"/>
<path d="M69.5637 47.1036C69.6055 46.7953 69.6372 46.4767 69.6688 46.1582H68.4091C68.3887 46.487 68.356 46.7953 68.304 47.1036H66.7584V48.1545H68.0385C67.7108 48.9832 67.0963 49.6633 65.8264 50.1304C66.0908 50.3639 66.4195 50.8105 66.5573 51.1076C68.2294 50.449 68.9808 49.4185 69.3411 48.1545H70.5692C70.4528 49.143 70.315 49.5998 70.167 49.7371C70.0608 49.8334 69.9761 49.8549 69.8281 49.8549C69.6586 49.8549 69.2982 49.8436 68.9175 49.8016C69.1084 50.1202 69.2462 50.619 69.2564 50.9693C69.7433 50.9908 70.1772 50.9806 70.4416 50.9488C70.7591 50.9058 70.9816 50.8208 71.2143 50.577C71.5216 50.2369 71.7125 49.4185 71.882 47.5809C71.9024 47.4324 71.9238 47.1036 71.9238 47.1036H69.5637ZM70.0292 43.3003C69.8495 43.6404 69.6157 43.9487 69.3299 44.2038C68.9808 43.9375 68.6847 43.6302 68.452 43.3003H70.0292ZM72.0402 43.3003V42.2494H68.9175C69.0655 42.0046 69.1931 41.7608 69.3095 41.5058L68.1345 41.1872C67.7211 42.1644 66.9381 43.1201 66.1122 43.7152C66.4083 43.8852 66.8952 44.2243 67.1392 44.426C67.2974 44.2888 67.4567 44.1392 67.6159 43.9702C67.8374 44.2888 68.0916 44.5858 68.3672 44.8511C67.9865 45.0529 67.5414 45.2127 67.0759 45.3397L67.1177 45.0959L66.3562 44.8409L66.1867 44.8942H65.6784L66.197 44.3523C65.9958 44.2038 65.7315 44.044 65.4242 43.8852C66.0173 43.3751 66.6094 42.7267 66.9697 42.1326L66.1653 41.6225L65.9744 41.6645H62.5556V42.7267H65.0965C64.8944 42.9603 64.6616 43.1948 64.4289 43.3966C64.143 43.2686 63.847 43.1518 63.5928 43.0566L62.7986 43.8637C63.455 44.129 64.2492 44.5326 64.8423 44.8942H62.4178V45.9984H63.7408C63.3703 46.8373 62.82 47.6659 62.2382 48.1863C62.428 48.5263 62.7037 49.0467 62.8098 49.4083C63.3172 48.9412 63.7623 48.2293 64.1328 47.4437V49.7166C64.1328 49.8436 64.09 49.8651 63.9634 49.8754C63.8256 49.8754 63.4019 49.8754 63.0109 49.8651C63.1692 50.2052 63.3386 50.7143 63.3703 51.0656C64.0267 51.0656 64.5034 51.0441 64.8627 50.8423C65.2333 50.6508 65.318 50.3107 65.318 49.7371V45.9984H65.8795C65.7845 46.5402 65.6569 47.0718 65.5406 47.4641L66.3878 47.8575C66.5777 47.3791 66.7584 46.742 66.9064 46.0834C67.033 46.2534 67.1392 46.4132 67.2025 46.53C68.0069 46.3067 68.7378 46.0199 69.3626 45.6378C69.9975 46.0301 70.7172 46.3487 71.5216 46.5505C71.6911 46.2319 72.0402 45.7331 72.3158 45.478C71.6063 45.3397 70.95 45.1277 70.3681 44.8511C70.8019 44.4158 71.1511 43.9057 71.4267 43.3003H72.0402Z" fill="black"/>
<path d="M82.2125 49.6101H78.4549V48.1658H82.2125V49.6101ZM80.8262 43.7787H79.5451V47.0503H77.2268V51.1076H78.4549V50.7143H82.2125V51.0974H83.5039V47.0503H80.8262V45.8929H84.1286V44.7774H80.8262V43.7787ZM80.4128 42.4194V41.1974H79.101V42.4194H75.3321V45.096C75.3321 46.6252 75.2576 48.8562 74.3899 50.3752C74.6859 50.5125 75.2474 50.8741 75.4801 51.0861C76.4326 49.4298 76.5918 46.8055 76.5918 45.096V43.6189H84.2665V42.4194H80.4128Z" fill="black"/>
<path d="M37.8321 56.8612L38.4201 56.8674L38.4139 57.4574L37.8259 57.4512M39.0081 56.8746L39.5961 56.8807L39.5899 57.4707L39.0019 57.4646M40.1841 56.8879L40.7721 56.894L40.7659 57.484L40.1779 57.4779M41.3601 56.9012L41.9481 56.9073L41.9419 57.4973L41.3539 57.4912M42.5361 56.9145L43.1241 56.9206L43.1179 57.5106L42.5299 57.5045M43.7121 56.9278L44.3001 56.934L44.2939 57.524L43.7059 57.5178M44.8881 56.9411L45.4761 56.9473L45.4689 57.5373L44.8809 57.5311M46.0641 56.9544L46.6521 56.9606L46.6449 57.5506L46.0569 57.5444M47.2401 56.9678L47.8281 56.9739L47.8209 57.5639L47.2329 57.5578M48.4161 56.9811L49.0041 56.9872L48.9969 57.5772L48.4089 57.5711M49.5921 56.9944L50.1801 57.0005L50.1729 57.5905L49.5849 57.5844M50.7681 57.0077L51.3561 57.0149L51.3489 57.6039L50.7609 57.5977M51.9441 57.021L52.5321 57.0282L52.5249 57.6182L51.9369 57.611M53.119 57.0343L53.707 57.0415L53.7009 57.6315L53.1129 57.6243M54.295 57.0477L54.883 57.0548L54.8769 57.6448L54.2889 57.6377M55.471 57.061L56.059 57.0681L56.0529 57.6581L55.4649 57.651M56.647 57.0743L57.235 57.0815L57.2289 57.6715L56.6409 57.6643M57.823 57.0876L58.411 57.0948L58.4049 57.6848L57.8169 57.6776M58.999 57.1009L59.587 57.1081L59.5809 57.6981L58.9929 57.6909" fill="#4282B8"/>
</svg>
