<svg width="175" height="256" viewBox="0 0 175 256" fill="none" xmlns="http://www.w3.org/2000/svg">
<g clip-path="url(#clip0_59_992)">
<path opacity="0.05" d="M141.644 187.776L112.433 170.906L141.643 154.038L170.855 170.907L141.644 187.776Z" fill="#1A1A1A"/>
<path d="M140.894 185.301C140.376 185.301 139.957 184.881 139.957 184.364V134.882C139.957 134.365 140.376 133.945 140.894 133.945C141.411 133.945 141.831 134.365 141.831 134.882V184.364C141.831 184.881 141.411 185.301 140.894 185.301Z" fill="#BBB4B4"/>
<path d="M115.994 172.521C115.979 172.521 115.963 172.521 115.948 172.52C115.431 172.495 115.032 172.055 115.057 171.538L117.096 122.115C117.122 121.598 117.571 121.198 118.078 121.224C118.595 121.249 118.993 121.688 118.968 122.205L116.929 171.629C116.905 172.131 116.491 172.521 115.994 172.521Z" fill="#BBB4B4"/>
<path d="M167.668 172.521C167.171 172.521 166.757 172.131 166.733 171.629L164.694 122.206C164.669 121.689 165.067 121.249 165.584 121.224C166.09 121.196 166.54 121.597 166.565 122.115L168.604 171.538C168.63 172.055 168.231 172.495 167.714 172.52C167.699 172.521 167.683 172.521 167.668 172.521Z" fill="#BBB4B4"/>
<path d="M138.645 159.432C138.128 159.432 137.708 159.013 137.708 158.495V109.014C137.708 108.496 138.128 108.077 138.645 108.077C139.163 108.077 139.582 108.496 139.582 109.014V158.495C139.582 159.013 139.163 159.432 138.645 159.432Z" fill="#BBB4B4"/>
<path d="M166.379 122.509L143.043 105.779C141.655 104.977 138.645 107.866 138.645 106.015C140.024 92.9772 142.12 61.851 140.53 49.4109C140.53 47.5599 141.655 46.7091 143.043 47.5106L167.228 61.4775C168.616 62.279 169.741 64.4293 169.741 66.2802C171.805 77.998 171.262 104.317 169.741 117.845C169.741 119.696 167.767 123.311 166.379 122.509Z" fill="#BBB4B4"/>
<path d="M136.805 134.71L117.272 123.429C114.599 121.886 114.934 119.19 118.02 117.408L136.055 106.993C139.141 105.211 143.81 105.017 146.482 106.561L166.015 117.841C168.688 119.384 168.353 122.08 165.267 123.862L147.232 134.277C144.146 136.059 139.477 136.253 136.805 134.71Z" fill="#BBB4B4"/>
<path d="M132.11 90.147C134.36 91.3143 150.145 102.693 146.15 106.341C142.156 109.989 114.867 134.088 102.883 133.723C102.883 133.723 89.9649 119.538 91.2237 117.146C92.6452 114.444 115.256 104.105 132.359 102.244C132.359 102.244 129.859 88.9797 132.11 90.147Z" fill="#3C4358"/>
<path d="M98.0871 188.786C98.0871 188.786 96.7293 188.408 96.6022 188.113C96.4752 187.818 97.6685 187.378 97.6685 187.378L98.1327 187.989L98.0871 188.786Z" fill="#998E82"/>
<path d="M103.656 183.987C104.331 181.745 104.52 179.379 103.064 177.222C100.631 173.618 96.0757 174.809 93.5664 175.981C91.0571 177.153 90.163 179.705 83.2405 183.209C81.4913 184.095 72.5983 187.945 75.0669 191.54C76.8429 194.127 82.8108 193.687 88.5704 192.856C93.4908 192.147 96.703 187.567 97.8527 187.929C98.0181 188.022 97.767 188.614 98.087 188.786C98.7892 189.163 103.621 186.953 103.777 185.985C103.915 185.133 103.981 184.845 103.656 183.987Z" fill="#4A4C57"/>
<path d="M100.291 161.429C103.078 165.715 99.868 173.635 101.791 176.298C104.245 179.697 97.996 182.681 96.5352 182.395C96.1923 182.328 96.8023 181.383 96.9913 180.64C97.2058 179.797 92.1958 177.694 91.3204 178.286C90.82 178.623 92.7808 177.162 93.9284 176.517C94.3924 176.256 94.9636 175.862 95.1159 175.68C96.0571 174.559 93.2067 163.857 92.7022 162.632C92.1977 161.406 99.0865 159.577 100.291 161.429Z" fill="#314058"/>
<path d="M111.418 121.563C111.418 121.563 105.272 150.569 105.511 179.123C105.525 180.742 99.3441 182.608 97.5999 182.686C95.4671 182.783 89.8296 180.851 89.9958 177.845C90.949 160.603 86.4022 134.493 89.9922 119.87C92.8876 108.077 111.418 121.563 111.418 121.563Z" fill="#3C4358"/>
<path opacity="0.05" d="M106.943 149.49C105.377 148.639 101.731 128.496 104.984 122.1C106.423 119.271 133.599 104.577 137.858 108.028L107.927 124.674L106.943 149.49Z" fill="#1A1A1A"/>
<path d="M164.668 102.542C164.668 102.542 166.544 111.914 163.658 116.549C159.564 123.125 132.202 142.626 114.925 141.579C114.925 141.579 108.226 136.775 106.655 124.73C106.305 122.045 136.369 105.303 153.767 103.442C163.666 102.383 164.668 102.542 164.668 102.542Z" fill="#3C4358"/>
<path d="M119.563 199.284C119.563 199.284 118.177 199.029 118.024 198.747C117.871 198.464 119.02 197.919 119.02 197.919L119.537 198.485L119.563 199.284Z" fill="#998E82"/>
<path d="M124.692 194.029C125.163 191.736 125.138 189.362 123.494 187.344C120.747 183.974 116.317 185.571 113.923 186.964C111.53 188.357 110.869 190.978 104.289 195.091C102.627 196.131 94.5807 201.504 97.3627 204.862C99.3641 207.278 105.268 206.303 110.93 204.958C115.766 203.809 118.089 198.22 119.267 198.477C119.44 198.555 119.243 199.167 119.577 199.31C120.31 199.622 124.923 196.986 124.992 196.008C125.053 195.147 125.093 194.854 124.692 194.029Z" fill="#4A4C57"/>
<path d="M121.124 172.516C123.911 176.803 120.701 184.722 122.624 187.385C125.078 190.784 118.829 193.769 117.368 193.482C117.026 193.415 117.636 192.471 117.825 191.727C118.039 190.884 113.029 188.782 112.154 189.373C111.653 189.711 113.614 188.249 114.762 187.604C115.226 187.343 115.797 186.949 115.949 186.768C116.89 185.647 114.04 174.945 113.535 173.719C113.031 172.494 119.92 170.664 121.124 172.516Z" fill="#314058"/>
<path d="M126.723 120.638C126.723 120.638 125.101 161.408 125.341 189.962C125.355 191.581 119.174 193.447 117.43 193.525C115.297 193.622 109.659 191.69 109.826 188.684C110.779 171.442 105.534 144.8 105.198 129.856C104.884 115.885 126.723 120.638 126.723 120.638Z" fill="#3C4358"/>
<path d="M117.374 42.9809C113.885 47.7332 114.904 85.0832 119.879 84.9364C124.853 84.7896 127.105 61.0795 128.115 45.8298C129.152 30.1901 120.524 38.6902 117.374 42.9809Z" fill="#363E58"/>
<path opacity="0.1" d="M124.333 52.2466C124.333 52.2466 118.927 52.5385 119.411 58.1994C119.904 63.9563 124.444 79.2442 124.444 79.2442L124.333 52.2466Z" fill="black"/>
<path d="M131.013 105.857C131.013 105.857 129.84 92.3342 131.962 89.0295C132.822 87.6899 131.598 82.9359 132.498 82.8595C132.971 82.8194 141.848 90.2623 152.978 89.0567C159.32 88.3698 160.526 85.1127 160.789 85.3337C161.052 85.5547 161.872 90.9531 161.872 90.9531C164.022 91.3314 167.135 107.838 158.988 122.728C154.807 130.368 131.013 105.857 131.013 105.857Z" fill="#3C4358"/>
<path d="M128.099 42.9436L128.206 41.7568L128.099 42.9436Z" fill="#CDCDD5"/>
<path d="M131.995 35.8972L132.274 33.9028L134.976 37.0107L132.006 39.9141L131.995 35.8972Z" fill="#ECF5FA"/>
<path d="M137.703 41.6124L134.976 37.0109L142.892 33.2886L143.281 34.7151L143.033 36.2701L137.703 41.6124Z" fill="#ECF5FA"/>
<path opacity="0.5" d="M131.995 35.8972L132.274 33.9028L134.976 37.0107L132.006 39.9141L131.995 35.8972Z" fill="white"/>
<path opacity="0.5" d="M137.703 41.6124L134.976 37.0109L142.892 33.2886L143.281 34.7151L143.033 36.2701L137.703 41.6124Z" fill="white"/>
<path d="M138.53 105.738C138.728 105.784 138.9 105.967 138.917 106.148L139.201 109.277C139.217 109.455 139.071 109.564 138.873 109.518L133.698 108.319C133.499 108.273 133.327 108.091 133.311 107.912L133.027 104.783C133.011 104.602 133.156 104.493 133.355 104.539L138.53 105.738Z" fill="#BEBEBE"/>
<path d="M138.505 108.836L138.273 106.276L133.722 105.222L133.954 107.781L138.505 108.836Z" fill="#4A4C57"/>
<path d="M160.943 58.7351C160.815 54.8807 160.426 51.7738 159.355 48.8532C158.504 46.5318 157.152 44.1295 154.98 41.9844C151.728 38.7735 148.555 36.8176 143.486 35.7268L143.281 34.7153C143.281 34.7153 138.31 33.7173 132.604 34.1076L132.427 34.6907C130.41 34.8223 127.853 35.4702 125.68 37.8897C121.162 42.9207 123.285 53.3685 124.084 62.5771C124.882 71.7857 129.829 65.1014 128.352 84.9389C126.591 108.59 135.081 103.851 152.421 104.843C160.265 105.292 161.878 106.654 161.557 102.952C161.197 98.7989 161.355 97.6585 160.169 93.7615C159.953 93.0481 159.754 92.2308 159.588 91.2823C159.302 89.6534 159.108 87.6358 159.073 85.0801C158.998 79.5657 160.999 60.4506 160.943 58.7351Z" fill="#ECF5FA"/>
<path d="M135.839 41.2851C136.285 40.5817 136.354 39.3354 136.354 39.3354L134.976 37.0112L133.28 38.669C133.28 38.669 133.079 40.2755 133.612 41.0642C133.706 41.204 133.834 41.3253 133.995 41.4201L131.011 98.0964L135.956 103.245L142.503 99.6803L135.715 41.4257C135.761 41.3858 135.803 41.3411 135.839 41.2851Z" fill="black"/>
<path d="M132.599 34.0527L131.095 34.0054L130.353 34.5375C128.29 34.95 125.881 36.3433 124.045 37.7668C124.045 37.7668 119.47 44.0607 120.942 61.0343C121.546 68.0034 124.555 78.2351 125.197 83.5581C125.301 84.4203 125.28 87.5166 125.28 87.5166L125.058 92.6689C125.058 92.6689 125.008 93.5945 124.927 95.1093C124.74 95.064 124.59 95.0596 124.507 95.1201C124.003 95.4853 123.115 98.8306 123.536 99.3715C123.665 99.5371 124.104 99.8923 124.655 100.286C124.252 108.113 119.199 108.962 119.304 110.401C119.537 113.608 122.002 117.788 124.039 117.489C125.657 117.25 134.405 103.504 135.543 92.4464C135.837 89.5843 136.227 85.8905 136.075 83.8149C135.872 81.0539 135.503 81.0972 134.534 80.0682C134.235 79.7504 133.879 79.3315 133.452 78.6945C130.56 74.3771 131.379 33.9599 132.599 34.0527Z" fill="#363E58"/>
<path opacity="0.05" d="M132.599 34.0527L131.095 34.0054L130.353 34.5375L127.819 37.2836L129.274 38.7324L125.793 39.4417C125.793 39.4417 125.826 78.9414 134.534 80.0681C134.235 79.7503 133.879 79.3314 133.452 78.6945C130.56 74.377 131.379 33.9599 132.599 34.0527Z" fill="white"/>
<path opacity="0.05" d="M126.414 100.948C127.044 98.9261 127.352 97.0271 126.831 96.3746C126.31 95.7221 124.939 94.8817 124.507 95.12C123.962 95.4204 123.059 98.8793 123.536 99.3713C124.045 99.895 126.212 101.596 126.414 100.948Z" fill="white"/>
<g opacity="0.05">
<path d="M133.369 81.3491C133.929 81.5273 134.423 82.1674 134.475 82.7752C134.526 83.3832 134.114 83.7311 133.555 83.5529C132.996 83.3747 132.501 82.7382 132.45 82.1302C132.399 81.5225 132.81 81.1709 133.369 81.3491Z" fill="black"/>
</g>
<g opacity="0.05">
<path d="M132.768 93.0693C133.327 93.2475 133.822 93.8876 133.873 94.4954C133.925 95.1034 133.513 95.4513 132.954 95.2731C132.394 95.0949 131.9 94.4584 131.849 93.8504C131.798 93.2427 132.209 92.8911 132.768 93.0693Z" fill="black"/>
</g>
<path d="M132.792 30.9787C132.418 33.8414 131.489 35.8794 133.729 36.6723C135.969 37.4651 141.428 37.5202 142.703 36.1867C143.711 35.1325 142.122 29.2809 141.433 28.7483C140.744 28.2158 132.792 30.9787 132.792 30.9787Z" fill="#FFC9CA"/>
<path d="M165.05 98.2764C162.799 92.1163 162.378 90.1258 162.029 84.3486C161.669 78.3777 161.505 64.6534 160.921 54.8727C160.578 49.1464 160.092 44.7706 159.338 44.0963C155.324 40.5095 148.804 36.6069 146.773 36.2964L146.773 36.2961L143.281 34.7153C143.281 34.7153 140.122 74.247 134.598 80.1364C134.598 80.1364 135.569 93.1269 135.675 94.1245C136.761 104.284 143.412 123.4 147.35 125.388C151.288 127.375 169.039 116.808 168.326 111.441C168.048 109.349 166.488 102.21 165.05 98.2764Z" fill="#363E58"/>
<path opacity="0.05" d="M145.315 59.7947L151.081 60.7314L150.927 58.953L145.83 57.9927C145.663 58.5894 145.491 59.1908 145.315 59.7947Z" fill="white"/>
<path opacity="0.05" d="M149.522 42.7527L145.655 41.2006L148.07 40.0339L146.773 36.2964L146.773 36.296L143.281 34.7153C143.281 34.7153 140.122 74.247 134.598 80.1364C142.239 79.2532 149.522 42.7527 149.522 42.7527Z" fill="white"/>
<path opacity="0.05" d="M147.04 101.597C146.766 102.775 147.204 105.08 148.097 105.184C148.99 105.288 158.611 101.792 159.553 100.48C160.495 99.1684 158.905 96.2203 158.115 96.3739C157.324 96.5275 147.262 100.645 147.04 101.597Z" fill="white"/>
<path opacity="0.1" d="M165.193 98.8368C162.942 92.6766 162.01 85.0578 161.661 79.2805C161.301 73.3098 161.137 59.5855 160.553 49.8047C157.445 54.0745 152.228 62.6329 153.11 71.0002C154.25 81.8103 157.477 96.2693 165.193 98.8368Z" fill="black"/>
<path d="M163.584 47.1476C167.017 50.9243 160.131 88.6665 157.189 96.4525C156.768 97.5648 147.812 91.3907 148.337 91.0568C148.846 90.7326 151.416 78.0909 153.395 61.7645C155.368 45.4811 154.454 37.1029 163.584 47.1476Z" fill="#363E58"/>
<path d="M124.143 11.5881C124.143 11.5881 123.958 15.8211 124.816 16.7507L126.815 9.69971L124.143 11.5881Z" fill="#434856"/>
<path d="M125.625 10.0302C123.125 13.5567 125.826 21.8062 125.826 21.8062C125.826 21.8062 125.306 31.789 134.407 34.4729C141.642 36.6066 147.472 28.7998 147.472 28.7998C147.472 28.7998 157.311 9.56545 143.853 5.04575C131.449 0.880177 128.126 6.50367 125.625 10.0302Z" fill="#FFD3D4"/>
<path d="M152.996 12.554C154.17 19.5474 147.472 28.7997 147.472 28.7997C147.472 28.7997 145.843 26.4673 147.141 26.6279C148.783 26.831 150.811 21.4361 148.994 19.4907C147.178 17.5452 145.724 21.9314 145.724 21.9314L144.5 23.8724L143.088 17.1093C143.088 17.1093 152.161 7.57835 152.996 12.554Z" fill="#434856"/>
<path d="M130.992 12.7759C131.805 11.8639 136.703 10.2085 141.383 17.2791C144.472 21.9465 148.478 18.3627 148.179 18.2815C146.553 17.8402 146.196 15.8811 146.196 15.8811C146.196 15.8811 152.409 17.263 151.587 16.5061C150.112 15.1496 150.631 14.4165 150.631 14.4165C150.631 14.4165 154.786 15.0669 154.548 14.5028C153.299 11.5402 151.413 7.91373 150.727 5.76079C150.056 3.65281 142.521 -0.450374 139.405 1.46633C139.405 1.46633 134.76 -0.908158 130.926 0.386096C128.259 1.28617 124.521 2.53185 123.912 7.59156C123.321 12.4971 121.228 15.8866 122.469 15.7102C123.71 15.5339 125.807 11.6527 127.771 11.4823C129.736 11.312 130.992 12.7759 130.992 12.7759Z" fill="#3D4356"/>
<path opacity="0.1" d="M174.963 219.377L71.8166 162.317L11.1774 197.53L114.323 254.589L174.963 219.377Z" fill="#333333"/>
<path d="M20.0876 198.32L22.8308 196.736V105.02L20.0876 106.604V198.32Z" fill="#B9CCE3"/>
<path d="M17.3445 196.736L20.0876 198.32V106.604L17.3445 105.02V196.736Z" fill="#C4D2E3"/>
<path d="M71.1246 168.841L73.8677 167.257V75.541L71.1246 77.1252V168.841Z" fill="#B9CCE3"/>
<path d="M68.3815 167.257L71.1246 168.841V77.1252L68.3815 75.541V167.257Z" fill="#C4D2E3"/>
<path d="M166.198 221.423L168.941 219.839V128.123L166.198 129.707V221.423Z" fill="#B9CCE3"/>
<path d="M163.454 219.839L166.198 221.423V129.707L163.454 128.123V219.839Z" fill="#C4D2E3"/>
<path d="M115.161 250.902L117.904 249.318V157.602L115.161 159.186V250.902Z" fill="#B9CCE3"/>
<path d="M112.417 249.318L115.161 250.902V159.186L112.417 157.602V249.318Z" fill="#C4D2E3"/>
<path d="M113.686 163.661V166.245L174.322 131.25V128.666L113.686 163.661Z" fill="#B9CCE3"/>
<path d="M10.5364 106.625L113.682 163.685L174.322 128.666L71.1756 71.6064L10.5364 106.625Z" fill="#CED7E3"/>
<path d="M10.5364 106.599V109.183L113.686 166.245V163.661L10.5364 106.599Z" fill="#C4D2E3"/>
<path d="M134.837 137.87L116.986 127.561L89.722 143.306L107.573 153.614L134.837 137.87Z" fill="black"/>
<path opacity="0.3" d="M134.837 137.87L116.986 127.561L89.722 143.306L107.573 153.614L134.837 137.87Z" fill="white"/>
<path d="M137.758 138.432L119.907 128.124L92.6431 143.868L110.494 154.177L137.758 138.432Z" fill="black"/>
<path opacity="0.4" d="M137.758 138.432L119.907 128.124L92.6431 143.868L110.494 154.177L137.758 138.432Z" fill="white"/>
<path d="M140.679 138.994L122.828 128.686L95.5642 144.43L113.415 154.739L140.679 138.994Z" fill="black"/>
<path opacity="0.5" d="M140.679 138.994L122.828 128.686L95.5642 144.43L113.415 154.739L140.679 138.994Z" fill="white"/>
<path opacity="0.05" d="M82.9923 92.5264L92.0104 87.3185L73.3326 76.5322L64.5341 81.6132L64.5282 81.6099L55.51 86.8178L55.5132 86.8196L46.9141 91.7856L46.9082 91.7822L37.89 96.9902L56.5679 107.776L65.3663 102.695L65.3722 102.699L74.3904 97.4908L74.3872 97.4889L82.9864 92.523L82.9923 92.5264Z" fill="black"/>
<path d="M91.7401 84.7052L73.3413 74.0801L64.6022 79.1269L83.001 89.752L91.7401 84.7052Z" fill="#968D82"/>
<path opacity="0.2" d="M91.7401 84.7052L73.3413 74.0801L64.6022 79.1269L83.001 89.752L91.7401 84.7052Z" fill="white"/>
<path opacity="0.8" d="M72.3793 75.167L66.4841 78.5714C66.7923 78.9194 66.7923 79.3346 66.4842 79.6826L82.0389 88.6652C82.6415 88.4873 83.3604 88.4873 83.963 88.6652L89.8581 85.2608C89.55 84.9128 89.5499 84.4977 89.8581 84.1497L74.3034 75.167C73.7008 75.345 72.9819 75.3449 72.3793 75.167ZM75.6413 80.4552C77.2925 79.5017 79.7637 79.3827 81.1609 80.1896C82.558 80.9965 82.3522 82.4236 80.701 83.3771C79.0498 84.3307 76.5786 84.4496 75.1814 83.6427C73.7842 82.8359 73.9901 81.4087 75.6413 80.4552Z" fill="white"/>
<path d="M83.001 92.264V89.7521L64.6022 79.127V81.6389L83.001 92.264Z" fill="#968D82"/>
<path d="M83.001 92.2638L91.7402 87.217V84.7051L83.001 89.7519V92.2638Z" fill="#968D82"/>
<path opacity="0.7" d="M83.001 92.264V89.7521L64.6022 79.127V81.6389L83.001 92.264Z" fill="white"/>
<path opacity="0.6" d="M83.001 92.2638L91.7402 87.217V84.7051L83.001 89.7519V92.2638Z" fill="white"/>
<path opacity="0.1" d="M71.8757 84.4128L67.0883 81.6481C67.0349 81.6173 66.9916 81.5423 66.9916 81.4807C66.9916 81.419 67.0349 81.394 67.0883 81.4248L71.8757 84.1895C71.9291 84.2204 71.9724 84.2953 71.9724 84.357C71.9724 84.4187 71.9291 84.4437 71.8757 84.4128Z" fill="black"/>
<path opacity="0.1" d="M90.3326 86.5573L85.5452 89.322C85.4918 89.3528 85.4485 89.3279 85.4485 89.2662C85.4485 89.2045 85.4918 89.1295 85.5452 89.0987L90.3326 86.334C90.386 86.3032 90.4293 86.3282 90.4293 86.3898C90.4293 86.4515 90.386 86.5265 90.3326 86.5573Z" fill="black"/>
<path opacity="0.1" d="M77.7622 88.5001L70.1501 84.1042C70.0968 84.0733 70.0535 83.9984 70.0535 83.9367C70.0535 83.875 70.0968 83.8501 70.1501 83.8809L77.7622 88.2768C77.8156 88.3076 77.8589 88.3826 77.8589 88.4443C77.8589 88.5059 77.8156 88.5309 77.7622 88.5001Z" fill="black"/>
<path opacity="0.1" d="M86.9794 89.5715L84.5857 90.9538C84.5324 90.9847 84.4891 90.9597 84.4891 90.898C84.4891 90.8363 84.5324 90.7613 84.5857 90.7305L86.9794 89.3482C87.0328 89.3173 87.0761 89.3423 87.0761 89.404C87.0761 89.4657 87.0328 89.5406 86.9794 89.5715Z" fill="black"/>
<path d="M72.9661 86.469V83.957L74.637 84.9219V87.4339L72.9661 86.469Z" fill="#DBEBF4"/>
<path d="M72.9661 83.9569L81.7053 78.9102L83.3762 79.8751L74.637 84.9218L72.9661 83.9569Z" fill="#EFF6FA"/>
<path d="M82.9358 89.7828L64.537 79.1577L55.7979 84.2045L74.1967 94.8296L82.9358 89.7828Z" fill="#968D82"/>
<path opacity="0.2" d="M82.9358 89.7828L64.537 79.1577L55.7979 84.2045L74.1967 94.8296L82.9358 89.7828Z" fill="white"/>
<path opacity="0.8" d="M63.575 80.2446L57.6799 83.649C57.9881 83.9971 57.9881 84.4122 57.6799 84.7602L73.2346 93.7429C73.8372 93.5649 74.5561 93.5649 75.1587 93.7429L81.0539 90.3385C80.7457 89.9905 80.7457 89.5753 81.0539 89.2273L65.4991 80.2446C64.8966 80.4226 64.1776 80.4226 63.575 80.2446ZM66.837 85.5328C68.4882 84.5793 70.9594 84.4603 72.3566 85.2672C73.7538 86.0741 73.5479 87.5012 71.8967 88.4547C70.2455 89.4083 67.7743 89.5272 66.3771 88.7203C64.98 87.9135 65.1859 86.4863 66.837 85.5328Z" fill="white"/>
<path d="M74.1967 97.3417V94.8297L55.7979 84.2046V86.7165L74.1967 97.3417Z" fill="#968D82"/>
<path d="M74.1967 97.3415L82.9359 92.2947V89.7827L74.1967 94.8295V97.3415Z" fill="#968D82"/>
<path opacity="0.7" d="M74.1967 97.3417V94.8297L55.7979 84.2046V86.7165L74.1967 97.3417Z" fill="white"/>
<path opacity="0.6" d="M74.1967 97.3415L82.9359 92.2947V89.7827L74.1967 94.8295V97.3415Z" fill="white"/>
<path opacity="0.1" d="M63.0714 89.4905L58.284 86.7258C58.2306 86.6949 58.1873 86.62 58.1873 86.5583C58.1873 86.4966 58.2306 86.4716 58.284 86.5025L63.0714 89.2672C63.1248 89.298 63.1681 89.373 63.1681 89.4346C63.1681 89.4963 63.1248 89.5213 63.0714 89.4905Z" fill="black"/>
<path opacity="0.1" d="M81.5283 91.6349L76.7409 94.3996C76.6875 94.4305 76.6442 94.4055 76.6442 94.3438C76.6442 94.2822 76.6875 94.2072 76.7409 94.1763L81.5283 91.4116C81.5817 91.3808 81.625 91.4058 81.625 91.4675C81.625 91.5291 81.5817 91.6041 81.5283 91.6349Z" fill="black"/>
<path opacity="0.1" d="M68.9579 93.5777L61.3458 89.1818C61.2924 89.151 61.2491 89.076 61.2491 89.0143C61.2491 88.9527 61.2924 88.9277 61.3458 88.9585L68.9579 93.3545C69.0113 93.3853 69.0546 93.4603 69.0546 93.5219C69.0546 93.5836 69.0113 93.6086 68.9579 93.5777Z" fill="black"/>
<path opacity="0.1" d="M78.1752 94.6491L75.7815 96.0315C75.7281 96.0623 75.6848 96.0373 75.6848 95.9756C75.6848 95.914 75.7281 95.839 75.7815 95.8081L78.1752 94.4258C78.2286 94.395 78.2718 94.42 78.2718 94.4816C78.2718 94.5433 78.2286 94.6183 78.1752 94.6491Z" fill="black"/>
<path d="M64.1619 91.5466V89.0347L65.8327 89.9996V92.5115L64.1619 91.5466Z" fill="#DBEBF4"/>
<path d="M64.1619 89.0346L72.9011 83.9878L74.5719 84.9527L65.8327 89.9995L64.1619 89.0346Z" fill="#EFF6FA"/>
<path d="M74.1201 94.8776L55.7213 84.2524L46.9821 89.2992L65.381 99.9244L74.1201 94.8776Z" fill="#968D82"/>
<path opacity="0.2" d="M74.1201 94.8776L55.7213 84.2524L46.9821 89.2992L65.381 99.9244L74.1201 94.8776Z" fill="white"/>
<path opacity="0.8" d="M54.7593 85.3394L48.8641 88.7438C49.1723 89.0918 49.1723 89.5069 48.8642 89.8549L64.4189 98.8376C65.0215 98.6596 65.7404 98.6597 66.343 98.8376L72.2382 95.4332C71.93 95.0852 71.93 94.67 72.2382 94.322L56.6834 85.3394C56.0808 85.5173 55.3619 85.5173 54.7593 85.3394ZM58.0213 90.6275C59.6725 89.674 62.1437 89.5551 63.5409 90.362C64.938 91.1689 64.7322 92.5959 63.081 93.5495C61.4298 94.503 58.9586 94.6219 57.5614 93.8151C56.1642 93.0082 56.3701 91.5811 58.0213 90.6275Z" fill="white"/>
<path d="M65.381 102.436V99.9244L46.9821 89.2993V91.8113L65.381 102.436Z" fill="#968D82"/>
<path d="M65.381 102.436L74.1201 97.3894V94.8774L65.381 99.9243V102.436Z" fill="#968D82"/>
<path opacity="0.7" d="M65.381 102.436V99.9244L46.9821 89.2993V91.8113L65.381 102.436Z" fill="white"/>
<path opacity="0.6" d="M65.381 102.436L74.1201 97.3894V94.8774L65.381 99.9243V102.436Z" fill="white"/>
<path opacity="0.1" d="M54.2557 94.5852L49.4682 91.8205C49.4149 91.7897 49.3716 91.7147 49.3716 91.653C49.3716 91.5914 49.4149 91.5664 49.4682 91.5972L54.2557 94.3619C54.309 94.3927 54.3523 94.4677 54.3523 94.5294C54.3523 94.591 54.309 94.616 54.2557 94.5852Z" fill="black"/>
<path opacity="0.1" d="M72.7126 96.7297L67.9252 99.4944C67.8718 99.5252 67.8285 99.5002 67.8285 99.4385C67.8285 99.3769 67.8718 99.3019 67.9252 99.2711L72.7126 96.5064C72.7659 96.4755 72.8092 96.5005 72.8092 96.5622C72.8092 96.6239 72.7659 96.6988 72.7126 96.7297Z" fill="black"/>
<path opacity="0.1" d="M60.1422 98.6725L52.5301 94.2765C52.4767 94.2457 52.4334 94.1707 52.4334 94.1091C52.4334 94.0474 52.4767 94.0224 52.5301 94.0532L60.1422 98.4492C60.1955 98.48 60.2388 98.555 60.2388 98.6166C60.2388 98.6783 60.1955 98.7033 60.1422 98.6725Z" fill="black"/>
<path opacity="0.1" d="M69.3594 99.7438L66.9657 101.126C66.9124 101.157 66.8691 101.132 66.8691 101.07C66.8691 101.009 66.9124 100.934 66.9657 100.903L69.3594 99.5205C69.4128 99.4897 69.4561 99.5147 69.4561 99.5764C69.4561 99.638 69.4128 99.713 69.3594 99.7438Z" fill="black"/>
<path d="M55.3461 96.6414V94.1294L57.017 95.0943V97.6063L55.3461 96.6414Z" fill="#DBEBF4"/>
<path d="M55.3461 94.1293L64.0853 89.0825L65.7561 90.0474L57.017 95.0942L55.3461 94.1293Z" fill="#EFF6FA"/>
<path d="M65.3158 99.9552L46.917 89.3301L38.1778 94.3769L56.5766 105.002L65.3158 99.9552Z" fill="#968D82"/>
<path opacity="0.2" d="M65.3158 99.9552L46.917 89.3301L38.1778 94.3769L56.5766 105.002L65.3158 99.9552Z" fill="white"/>
<path opacity="0.8" d="M45.9549 90.417L40.0598 93.8214C40.3679 94.1694 40.368 94.5846 40.0598 94.9326L55.6145 103.915C56.2171 103.737 56.936 103.737 57.5386 103.915L63.4338 100.511C63.1256 100.163 63.1256 99.7477 63.4338 99.3997L47.879 90.417C47.2764 90.595 46.5575 90.5949 45.9549 90.417ZM49.2169 95.7052C50.8681 94.7516 53.3393 94.6327 54.7365 95.4396C56.1337 96.2465 55.9278 97.6735 54.2766 98.6271C52.6254 99.5806 50.1542 99.6995 48.7571 98.8927C47.3599 98.0858 47.5658 96.6587 49.2169 95.7052Z" fill="white"/>
<path d="M56.5766 107.514V105.002L38.1778 94.377V96.8889L56.5766 107.514Z" fill="#968D82"/>
<path d="M56.5767 107.514L65.3158 102.467V99.9551L56.5767 105.002V107.514Z" fill="#968D82"/>
<path opacity="0.7" d="M56.5766 107.514V105.002L38.1778 94.377V96.8889L56.5766 107.514Z" fill="white"/>
<path opacity="0.6" d="M56.5767 107.514L65.3158 102.467V99.9551L56.5767 105.002V107.514Z" fill="white"/>
<path opacity="0.1" d="M45.4513 99.6628L40.6639 96.8981C40.6105 96.8673 40.5673 96.7923 40.5673 96.7307C40.5673 96.669 40.6105 96.644 40.6639 96.6748L45.4513 99.4395C45.5047 99.4704 45.548 99.5453 45.548 99.607C45.548 99.6687 45.5047 99.6937 45.4513 99.6628Z" fill="black"/>
<path opacity="0.1" d="M63.9082 101.807L59.1208 104.572C59.0675 104.603 59.0242 104.578 59.0242 104.516C59.0242 104.455 59.0675 104.38 59.1208 104.349L63.9082 101.584C63.9616 101.553 64.0049 101.578 64.0049 101.64C64.0049 101.701 63.9616 101.776 63.9082 101.807Z" fill="black"/>
<path opacity="0.1" d="M51.3378 103.75L43.7258 99.3542C43.6724 99.3234 43.6291 99.2484 43.6291 99.1867C43.6291 99.125 43.6724 99.1 43.7258 99.1309L51.3378 103.527C51.3912 103.558 51.4345 103.633 51.4345 103.694C51.4345 103.756 51.3912 103.781 51.3378 103.75Z" fill="black"/>
<path opacity="0.1" d="M60.5551 104.821L58.1614 106.204C58.108 106.235 58.0648 106.21 58.0648 106.148C58.0648 106.086 58.108 106.011 58.1614 105.981L60.5551 104.598C60.6085 104.567 60.6518 104.592 60.6518 104.654C60.6518 104.716 60.6085 104.791 60.5551 104.821Z" fill="black"/>
<path d="M46.5418 101.719V99.207L48.2127 100.172V102.684L46.5418 101.719Z" fill="#DBEBF4"/>
<path d="M46.5418 99.207L55.281 94.1602L56.9518 95.1251L48.2127 100.172L46.5418 99.207Z" fill="#EFF6FA"/>
<path d="M91.7401 82.1754L73.3413 71.5503L64.6022 76.5971L83.001 87.2222L91.7401 82.1754Z" fill="#968D82"/>
<path opacity="0.2" d="M91.7401 82.1754L73.3413 71.5503L64.6022 76.5971L83.001 87.2222L91.7401 82.1754Z" fill="white"/>
<path opacity="0.8" d="M72.3793 72.6372L66.4841 76.0416C66.7923 76.3896 66.7923 76.8048 66.4842 77.1528L82.0389 86.1355C82.6415 85.9575 83.3604 85.9575 83.963 86.1355L89.8581 82.731C89.55 82.383 89.5499 81.9679 89.8581 81.6199L74.3034 72.6372C73.7008 72.8152 72.9819 72.8151 72.3793 72.6372ZM75.6413 77.9254C77.2925 76.9718 79.7637 76.8529 81.1609 77.6598C82.558 78.4667 82.3522 79.8937 80.701 80.8473C79.0498 81.8009 76.5786 81.9197 75.1814 81.1129C73.7842 80.306 73.9901 78.8789 75.6413 77.9254Z" fill="white"/>
<path d="M83.001 89.7342V87.2223L64.6022 76.5972V79.1091L83.001 89.7342Z" fill="#968D82"/>
<path d="M83.001 89.7341L91.7402 84.6873V82.1753L83.001 87.2221V89.7341Z" fill="#968D82"/>
<path opacity="0.7" d="M83.001 89.7342V87.2223L64.6022 76.5972V79.1091L83.001 89.7342Z" fill="white"/>
<path opacity="0.6" d="M83.001 89.7341L91.7402 84.6873V82.1753L83.001 87.2221V89.7341Z" fill="white"/>
<path opacity="0.1" d="M71.8757 81.883L67.0883 79.1183C67.0349 79.0875 66.9916 79.0125 66.9916 78.9509C66.9916 78.8892 67.0349 78.8642 67.0883 78.895L71.8757 81.6597C71.9291 81.6906 71.9724 81.7656 71.9724 81.8272C71.9724 81.8889 71.9291 81.9139 71.8757 81.883Z" fill="black"/>
<path opacity="0.1" d="M90.3326 84.0275L85.5452 86.7922C85.4918 86.8231 85.4485 86.7981 85.4485 86.7364C85.4485 86.6747 85.4918 86.5998 85.5452 86.5689L90.3326 83.8042C90.386 83.7734 90.4293 83.7984 90.4293 83.86C90.4293 83.9217 90.386 83.9967 90.3326 84.0275Z" fill="black"/>
<path opacity="0.1" d="M77.7622 85.9703L70.1501 81.5744C70.0968 81.5436 70.0535 81.4686 70.0535 81.4069C70.0535 81.3453 70.0968 81.3203 70.1501 81.3511L77.7622 85.747C77.8156 85.7779 77.8589 85.8528 77.8589 85.9145C77.8589 85.9762 77.8156 86.0012 77.7622 85.9703Z" fill="black"/>
<path opacity="0.1" d="M86.9794 87.0417L84.5857 88.424C84.5324 88.4549 84.4891 88.4299 84.4891 88.3682C84.4891 88.3065 84.5324 88.2316 84.5857 88.2007L86.9794 86.8184C87.0328 86.7876 87.0761 86.8125 87.0761 86.8742C87.0761 86.9359 87.0328 87.0108 86.9794 87.0417Z" fill="black"/>
<path d="M72.9661 83.9392V81.4272L74.637 82.3921V84.9041L72.9661 83.9392Z" fill="#DBEBF4"/>
<path d="M72.9661 81.4272L81.7053 76.3804L83.3762 77.3453L74.637 82.3921L72.9661 81.4272Z" fill="#EFF6FA"/>
<path d="M82.9358 87.2531L64.537 76.6279L55.7979 81.6747L74.1967 92.2999L82.9358 87.2531Z" fill="#968D82"/>
<path opacity="0.2" d="M82.9358 87.2531L64.537 76.6279L55.7979 81.6747L74.1967 92.2999L82.9358 87.2531Z" fill="white"/>
<path opacity="0.8" d="M63.575 77.7148L57.6799 81.1193C57.9881 81.4673 57.9881 81.8824 57.6799 82.2304L73.2346 91.2131C73.8372 91.0351 74.5561 91.0352 75.1587 91.2131L81.0539 87.8087C80.7457 87.4607 80.7457 87.0455 81.0539 86.6975L65.4991 77.7148C64.8966 77.8928 64.1776 77.8928 63.575 77.7148ZM66.837 83.003C68.4882 82.0495 70.9594 81.9306 72.3566 82.7375C73.7538 83.5444 73.5479 84.9714 71.8967 85.925C70.2455 86.8785 67.7743 86.9974 66.3771 86.1906C64.98 85.3837 65.1859 83.9566 66.837 83.003Z" fill="white"/>
<path d="M74.1967 94.8119V92.2999L55.7979 81.6748V84.1868L74.1967 94.8119Z" fill="#968D82"/>
<path d="M74.1967 94.8117L82.9359 89.7649V87.2529L74.1967 92.2997V94.8117Z" fill="#968D82"/>
<path opacity="0.7" d="M74.1967 94.8119V92.2999L55.7979 81.6748V84.1868L74.1967 94.8119Z" fill="white"/>
<path opacity="0.6" d="M74.1967 94.8117L82.9359 89.7649V87.2529L74.1967 92.2997V94.8117Z" fill="white"/>
<path opacity="0.1" d="M63.0714 86.9607L58.284 84.196C58.2306 84.1651 58.1873 84.0902 58.1873 84.0285C58.1873 83.9668 58.2306 83.9418 58.284 83.9727L63.0714 86.7374C63.1248 86.7682 63.1681 86.8432 63.1681 86.9049C63.1681 86.9665 63.1248 86.9915 63.0714 86.9607Z" fill="black"/>
<path opacity="0.1" d="M81.5283 89.1052L76.7409 91.8699C76.6875 91.9007 76.6442 91.8757 76.6442 91.814C76.6442 91.7524 76.6875 91.6774 76.7409 91.6466L81.5283 88.8819C81.5817 88.851 81.625 88.876 81.625 88.9377C81.625 88.9993 81.5817 89.0743 81.5283 89.1052Z" fill="black"/>
<path opacity="0.1" d="M68.9579 91.048L61.3458 86.652C61.2924 86.6212 61.2491 86.5462 61.2491 86.4846C61.2491 86.4229 61.2924 86.3979 61.3458 86.4287L68.9579 90.8247C69.0113 90.8555 69.0546 90.9305 69.0546 90.9921C69.0546 91.0538 69.0113 91.0788 68.9579 91.048Z" fill="black"/>
<path opacity="0.1" d="M78.1752 92.1193L75.7815 93.5017C75.7281 93.5325 75.6848 93.5075 75.6848 93.4458C75.6848 93.3842 75.7281 93.3092 75.7815 93.2784L78.1752 91.896C78.2286 91.8652 78.2718 91.8902 78.2718 91.9518C78.2718 92.0135 78.2286 92.0885 78.1752 92.1193Z" fill="black"/>
<path d="M64.1619 89.0168V86.5049L65.8327 87.4697V89.9817L64.1619 89.0168Z" fill="#DBEBF4"/>
<path d="M64.1619 86.5048L72.9011 81.458L74.5719 82.4229L65.8327 87.4697L64.1619 86.5048Z" fill="#EFF6FA"/>
<path d="M74.1201 92.3477L55.7213 81.7227L46.9821 86.7694L65.381 97.3946L74.1201 92.3477Z" fill="#968D82"/>
<path opacity="0.2" d="M74.1201 92.3477L55.7213 81.7227L46.9821 86.7694L65.381 97.3946L74.1201 92.3477Z" fill="white"/>
<path opacity="0.8" d="M54.7593 82.8096L48.8641 86.214C49.1723 86.562 49.1723 86.9771 48.8642 87.3252L64.4189 96.3078C65.0215 96.1299 65.7404 96.1299 66.343 96.3078L72.2382 92.9034C71.93 92.5554 71.93 92.1403 72.2382 91.7922L56.6834 82.8096C56.0808 82.9875 55.3619 82.9875 54.7593 82.8096ZM58.0213 88.0977C59.6725 87.1442 62.1437 87.0253 63.5409 87.8322C64.938 88.6391 64.7322 90.0661 63.081 91.0197C61.4298 91.9732 58.9586 92.0921 57.5614 91.2853C56.1642 90.4784 56.3701 89.0513 58.0213 88.0977Z" fill="white"/>
<path d="M65.381 99.9066V97.3947L46.9821 86.7695V89.2815L65.381 99.9066Z" fill="#968D82"/>
<path d="M65.381 99.9064L74.1201 94.8596V92.3477L65.381 97.3945V99.9064Z" fill="#968D82"/>
<path opacity="0.7" d="M65.381 99.9066V97.3947L46.9821 86.7695V89.2815L65.381 99.9066Z" fill="white"/>
<path opacity="0.6" d="M65.381 99.9064L74.1201 94.8596V92.3477L65.381 97.3945V99.9064Z" fill="white"/>
<path opacity="0.1" d="M54.2557 92.0554L49.4682 89.2907C49.4149 89.2599 49.3716 89.1849 49.3716 89.1232C49.3716 89.0616 49.4149 89.0366 49.4682 89.0674L54.2557 91.8321C54.309 91.8629 54.3523 91.9379 54.3523 91.9996C54.3523 92.0612 54.309 92.0862 54.2557 92.0554Z" fill="black"/>
<path opacity="0.1" d="M72.7126 94.1999L67.9252 96.9646C67.8718 96.9954 67.8285 96.9704 67.8285 96.9088C67.8285 96.8471 67.8718 96.7721 67.9252 96.7413L72.7126 93.9766C72.7659 93.9458 72.8092 93.9707 72.8092 94.0324C72.8092 94.0941 72.7659 94.169 72.7126 94.1999Z" fill="black"/>
<path opacity="0.1" d="M60.1422 96.1427L52.5301 91.7468C52.4767 91.7159 52.4334 91.641 52.4334 91.5793C52.4334 91.5176 52.4767 91.4926 52.5301 91.5235L60.1422 95.9194C60.1955 95.9502 60.2388 96.0252 60.2388 96.0869C60.2388 96.1485 60.1955 96.1735 60.1422 96.1427Z" fill="black"/>
<path opacity="0.1" d="M69.3594 97.214L66.9657 98.5964C66.9124 98.6272 66.8691 98.6022 66.8691 98.5406C66.8691 98.4789 66.9124 98.4039 66.9657 98.3731L69.3594 96.9907C69.4128 96.9599 69.4561 96.9849 69.4561 97.0466C69.4561 97.1082 69.4128 97.1832 69.3594 97.214Z" fill="black"/>
<path d="M55.3461 94.1115V91.5996L57.017 92.5645V95.0764L55.3461 94.1115Z" fill="#DBEBF4"/>
<path d="M55.3461 91.5995L64.0853 86.5527L65.7561 87.5176L57.017 92.5644L55.3461 91.5995Z" fill="#EFF6FA"/>
<path d="M65.3158 97.4254L46.917 86.8003L38.1778 91.8471L56.5766 102.472L65.3158 97.4254Z" fill="#968D82"/>
<path opacity="0.2" d="M65.3158 97.4254L46.917 86.8003L38.1778 91.8471L56.5766 102.472L65.3158 97.4254Z" fill="white"/>
<path opacity="0.8" d="M45.9549 87.8872L40.0598 91.2916C40.3679 91.6396 40.368 92.0548 40.0598 92.4028L55.6145 101.385C56.2171 101.208 56.936 101.208 57.5386 101.385L63.4338 97.981C63.1256 97.633 63.1256 97.2179 63.4338 96.8699L47.879 87.8872C47.2764 88.0652 46.5575 88.0652 45.9549 87.8872ZM49.2169 93.1754C50.8681 92.2219 53.3393 92.103 54.7365 92.9098C56.1337 93.7167 55.9278 95.1438 54.2766 96.0973C52.6254 97.0509 50.1542 97.1698 48.7571 96.3629C47.3599 95.5561 47.5658 94.129 49.2169 93.1754Z" fill="white"/>
<path d="M56.5766 104.984V102.472L38.1778 91.8472V94.3591L56.5766 104.984Z" fill="#968D82"/>
<path d="M56.5767 104.984L65.3158 99.9372V97.4253L56.5767 102.472V104.984Z" fill="#968D82"/>
<path opacity="0.7" d="M56.5766 104.984V102.472L38.1778 91.8472V94.3591L56.5766 104.984Z" fill="white"/>
<path opacity="0.6" d="M56.5767 104.984L65.3158 99.9372V97.4253L56.5767 102.472V104.984Z" fill="white"/>
<path opacity="0.1" d="M45.4513 97.133L40.6639 94.3683C40.6105 94.3375 40.5673 94.2625 40.5673 94.2009C40.5673 94.1392 40.6105 94.1142 40.6639 94.145L45.4513 96.9097C45.5047 96.9406 45.548 97.0155 45.548 97.0772C45.548 97.1389 45.5047 97.1639 45.4513 97.133Z" fill="black"/>
<path opacity="0.1" d="M63.9082 99.2775L59.1208 102.042C59.0675 102.073 59.0242 102.048 59.0242 101.986C59.0242 101.925 59.0675 101.85 59.1208 101.819L63.9082 99.0542C63.9616 99.0234 64.0049 99.0484 64.0049 99.11C64.0049 99.1717 63.9616 99.2467 63.9082 99.2775Z" fill="black"/>
<path opacity="0.1" d="M51.3378 101.22L43.7258 96.8244C43.6724 96.7936 43.6291 96.7186 43.6291 96.6569C43.6291 96.5953 43.6724 96.5703 43.7258 96.6011L51.3378 100.997C51.3912 101.028 51.4345 101.103 51.4345 101.165C51.4345 101.226 51.3912 101.251 51.3378 101.22Z" fill="black"/>
<path opacity="0.1" d="M60.5551 102.292L58.1614 103.674C58.108 103.705 58.0648 103.68 58.0648 103.618C58.0648 103.557 58.108 103.482 58.1614 103.451L60.5551 102.068C60.6085 102.038 60.6518 102.063 60.6518 102.124C60.6518 102.186 60.6085 102.261 60.5551 102.292Z" fill="black"/>
<path d="M46.5418 99.1892V96.6772L48.2127 97.6421V100.154L46.5418 99.1892Z" fill="#DBEBF4"/>
<path d="M46.5418 96.6772L55.281 91.6304L56.9518 92.5953L48.2127 97.642L46.5418 96.6772Z" fill="#EFF6FA"/>
<path d="M91.7401 79.6505L73.3413 69.0254L64.6022 74.0722L83.001 84.6973L91.7401 79.6505Z" fill="#968D82"/>
<path opacity="0.2" d="M91.7401 79.6505L73.3413 69.0254L64.6022 74.0722L83.001 84.6973L91.7401 79.6505Z" fill="white"/>
<path opacity="0.8" d="M72.3793 70.1123L66.4841 73.5167C66.7923 73.8647 66.7923 74.2799 66.4842 74.6279L82.0389 83.6106C82.6415 83.4326 83.3604 83.4326 83.963 83.6106L89.8581 80.2061C89.55 79.8581 89.5499 79.443 89.8581 79.095L74.3034 70.1123C73.7008 70.2903 72.9819 70.2902 72.3793 70.1123ZM75.6413 75.4005C77.2925 74.447 79.7637 74.328 81.1609 75.1349C82.558 75.9418 82.3522 77.3689 80.701 78.3224C79.0498 79.276 76.5786 79.3949 75.1814 78.588C73.7842 77.7812 73.9901 76.3541 75.6413 75.4005Z" fill="white"/>
<path d="M83.001 87.2093V84.6974L64.6022 74.0723V76.5842L83.001 87.2093Z" fill="#968D82"/>
<path d="M83.001 87.2091L91.7402 82.1623V79.6504L83.001 84.6972V87.2091Z" fill="#968D82"/>
<path opacity="0.7" d="M83.001 87.2093V84.6974L64.6022 74.0723V76.5842L83.001 87.2093Z" fill="white"/>
<path opacity="0.6" d="M83.001 87.2091L91.7402 82.1623V79.6504L83.001 84.6972V87.2091Z" fill="white"/>
<path opacity="0.1" d="M71.8757 79.3581L67.0883 76.5934C67.0349 76.5626 66.9916 76.4876 66.9916 76.426C66.9916 76.3643 67.0349 76.3393 67.0883 76.3701L71.8757 79.1348C71.9291 79.1657 71.9724 79.2407 71.9724 79.3023C71.9724 79.364 71.9291 79.389 71.8757 79.3581Z" fill="black"/>
<path opacity="0.1" d="M90.3326 81.5026L85.5452 84.2673C85.4918 84.2982 85.4485 84.2732 85.4485 84.2115C85.4485 84.1498 85.4918 84.0749 85.5452 84.044L90.3326 81.2793C90.386 81.2485 90.4293 81.2735 90.4293 81.3351C90.4293 81.3968 90.386 81.4718 90.3326 81.5026Z" fill="black"/>
<path opacity="0.1" d="M77.7622 83.4454L70.1501 79.0495C70.0968 79.0187 70.0535 78.9437 70.0535 78.882C70.0535 78.8204 70.0968 78.7954 70.1501 78.8262L77.7622 83.2221C77.8156 83.253 77.8589 83.3279 77.8589 83.3896C77.8589 83.4513 77.8156 83.4763 77.7622 83.4454Z" fill="black"/>
<path opacity="0.1" d="M86.9794 84.5168L84.5857 85.8991C84.5324 85.93 84.4891 85.905 84.4891 85.8433C84.4891 85.7816 84.5324 85.7067 84.5857 85.6758L86.9794 84.2935C87.0328 84.2626 87.0761 84.2876 87.0761 84.3493C87.0761 84.411 87.0328 84.4859 86.9794 84.5168Z" fill="black"/>
<path d="M72.9661 81.4143V78.9023L74.637 79.8672V82.3792L72.9661 81.4143Z" fill="#DBEBF4"/>
<path d="M72.9661 78.9022L81.7053 73.8555L83.3762 74.8204L74.637 79.8671L72.9661 78.9022Z" fill="#EFF6FA"/>
<path d="M82.9358 84.7282L64.537 74.103L55.7979 79.1498L74.1967 89.775L82.9358 84.7282Z" fill="#968D82"/>
<path opacity="0.2" d="M82.9358 84.7282L64.537 74.103L55.7979 79.1498L74.1967 89.775L82.9358 84.7282Z" fill="white"/>
<path opacity="0.8" d="M63.575 75.1899L57.6799 78.5944C57.9881 78.9424 57.9881 79.3575 57.6799 79.7055L73.2346 88.6882C73.8372 88.5102 74.5561 88.5103 75.1587 88.6882L81.0539 85.2838C80.7457 84.9358 80.7457 84.5206 81.0539 84.1726L65.4991 75.1899C64.8966 75.3679 64.1776 75.3679 63.575 75.1899ZM66.837 80.4781C68.4882 79.5246 70.9594 79.4057 72.3566 80.2125C73.7538 81.0194 73.5479 82.4465 71.8967 83.4C70.2455 84.3536 67.7743 84.4725 66.3771 83.6656C64.98 82.8588 65.1859 81.4317 66.837 80.4781Z" fill="white"/>
<path d="M74.1967 92.287V89.775L55.7979 79.1499V81.6618L74.1967 92.287Z" fill="#968D82"/>
<path d="M74.1967 92.2868L82.9359 87.24V84.728L74.1967 89.7748V92.2868Z" fill="#968D82"/>
<path opacity="0.7" d="M74.1967 92.287V89.775L55.7979 79.1499V81.6618L74.1967 92.287Z" fill="white"/>
<path opacity="0.6" d="M74.1967 92.2868L82.9359 87.24V84.728L74.1967 89.7748V92.2868Z" fill="white"/>
<path opacity="0.1" d="M63.0714 84.4358L58.284 81.6711C58.2306 81.6402 58.1873 81.5653 58.1873 81.5036C58.1873 81.4419 58.2306 81.4169 58.284 81.4478L63.0714 84.2125C63.1248 84.2433 63.1681 84.3183 63.1681 84.3799C63.1681 84.4416 63.1248 84.4666 63.0714 84.4358Z" fill="black"/>
<path opacity="0.1" d="M81.5283 86.5803L76.7409 89.345C76.6875 89.3758 76.6442 89.3508 76.6442 89.2891C76.6442 89.2275 76.6875 89.1525 76.7409 89.1217L81.5283 86.357C81.5817 86.3261 81.625 86.3511 81.625 86.4128C81.625 86.4745 81.5817 86.5494 81.5283 86.5803Z" fill="black"/>
<path opacity="0.1" d="M68.9579 88.5231L61.3458 84.1271C61.2924 84.0963 61.2491 84.0213 61.2491 83.9597C61.2491 83.898 61.2924 83.873 61.3458 83.9038L68.9579 88.2998C69.0113 88.3306 69.0546 88.4056 69.0546 88.4672C69.0546 88.5289 69.0113 88.5539 68.9579 88.5231Z" fill="black"/>
<path opacity="0.1" d="M78.1752 89.5944L75.7815 90.9768C75.7281 91.0076 75.6848 90.9826 75.6848 90.9209C75.6848 90.8593 75.7281 90.7843 75.7815 90.7535L78.1752 89.3711C78.2286 89.3403 78.2718 89.3653 78.2718 89.4269C78.2718 89.4886 78.2286 89.5636 78.1752 89.5944Z" fill="black"/>
<path d="M64.1619 86.4919V83.98L65.8327 84.9449V87.4568L64.1619 86.4919Z" fill="#DBEBF4"/>
<path d="M64.1619 83.9799L72.9011 78.9331L74.5719 79.898L65.8327 84.9448L64.1619 83.9799Z" fill="#EFF6FA"/>
<path d="M74.1201 89.8229L55.7213 79.1978L46.9821 84.2446L65.381 94.8697L74.1201 89.8229Z" fill="#968D82"/>
<path opacity="0.2" d="M74.1201 89.8229L55.7213 79.1978L46.9821 84.2446L65.381 94.8697L74.1201 89.8229Z" fill="white"/>
<path opacity="0.8" d="M54.7593 80.2847L48.8641 83.6891C49.1723 84.0371 49.1723 84.4522 48.8642 84.8003L64.4189 93.7829C65.0215 93.605 65.7404 93.605 66.343 93.7829L72.2382 90.3785C71.93 90.0305 71.93 89.6154 72.2382 89.2673L56.6834 80.2847C56.0808 80.4626 55.3619 80.4626 54.7593 80.2847ZM58.0213 85.5729C59.6725 84.6193 62.1437 84.5004 63.5409 85.3073C64.938 86.1142 64.7322 87.5412 63.081 88.4948C61.4298 89.4483 58.9586 89.5672 57.5614 88.7604C56.1642 87.9535 56.3701 86.5264 58.0213 85.5729Z" fill="white"/>
<path d="M65.381 97.3817V94.8697L46.9821 84.2446V86.7566L65.381 97.3817Z" fill="#968D82"/>
<path d="M65.381 97.3815L74.1201 92.3347V89.8228L65.381 94.8696V97.3815Z" fill="#968D82"/>
<path opacity="0.7" d="M65.381 97.3817V94.8697L46.9821 84.2446V86.7566L65.381 97.3817Z" fill="white"/>
<path opacity="0.6" d="M65.381 97.3815L74.1201 92.3347V89.8228L65.381 94.8696V97.3815Z" fill="white"/>
<path opacity="0.1" d="M54.2557 89.5305L49.4682 86.7658C49.4149 86.735 49.3716 86.66 49.3716 86.5983C49.3716 86.5367 49.4149 86.5117 49.4682 86.5425L54.2557 89.3072C54.309 89.338 54.3523 89.413 54.3523 89.4747C54.3523 89.5363 54.309 89.5613 54.2557 89.5305Z" fill="black"/>
<path opacity="0.1" d="M72.7126 91.675L67.9252 94.4397C67.8718 94.4705 67.8285 94.4455 67.8285 94.3839C67.8285 94.3222 67.8718 94.2472 67.9252 94.2164L72.7126 91.4517C72.7659 91.4209 72.8092 91.4458 72.8092 91.5075C72.8092 91.5692 72.7659 91.6442 72.7126 91.675Z" fill="black"/>
<path opacity="0.1" d="M60.1422 93.6178L52.5301 89.2219C52.4767 89.191 52.4334 89.116 52.4334 89.0544C52.4334 88.9927 52.4767 88.9677 52.5301 88.9986L60.1422 93.3945C60.1955 93.4253 60.2388 93.5003 60.2388 93.562C60.2388 93.6236 60.1955 93.6486 60.1422 93.6178Z" fill="black"/>
<path opacity="0.1" d="M69.3594 94.6891L66.9657 96.0715C66.9124 96.1023 66.8691 96.0773 66.8691 96.0157C66.8691 95.954 66.9124 95.879 66.9657 95.8482L69.3594 94.4658C69.4128 94.435 69.4561 94.46 69.4561 94.5217C69.4561 94.5833 69.4128 94.6583 69.3594 94.6891Z" fill="black"/>
<path d="M55.3461 91.5867V89.0747L57.017 90.0396V92.5515L55.3461 91.5867Z" fill="#DBEBF4"/>
<path d="M55.3461 89.0746L64.0853 84.0278L65.7561 84.9927L57.017 90.0395L55.3461 89.0746Z" fill="#EFF6FA"/>
<path d="M65.3158 94.9005L46.917 84.2754L38.1778 89.3222L56.5766 99.9473L65.3158 94.9005Z" fill="#968D82"/>
<path opacity="0.2" d="M65.3158 94.9005L46.917 84.2754L38.1778 89.3222L56.5766 99.9473L65.3158 94.9005Z" fill="white"/>
<path opacity="0.8" d="M45.9549 85.3623L40.0598 88.7667C40.3679 89.1147 40.368 89.5299 40.0598 89.8779L55.6145 98.8606C56.2171 98.6826 56.936 98.6826 57.5386 98.8606L63.4338 95.4561C63.1256 95.1081 63.1256 94.693 63.4338 94.345L47.879 85.3623C47.2764 85.5403 46.5575 85.5402 45.9549 85.3623ZM49.2169 90.6505C50.8681 89.697 53.3393 89.578 54.7365 90.3849C56.1337 91.1918 55.9278 92.6188 54.2766 93.5724C52.6254 94.526 50.1542 94.6449 48.7571 93.838C47.3599 93.0311 47.5658 91.604 49.2169 90.6505Z" fill="white"/>
<path d="M56.5766 102.459V99.9474L38.1778 89.3223V91.8342L56.5766 102.459Z" fill="#968D82"/>
<path d="M56.5767 102.459L65.3158 97.4124V94.9004L56.5767 99.9472V102.459Z" fill="#968D82"/>
<path opacity="0.7" d="M56.5766 102.459V99.9474L38.1778 89.3223V91.8342L56.5766 102.459Z" fill="white"/>
<path opacity="0.6" d="M56.5767 102.459L65.3158 97.4124V94.9004L56.5767 99.9472V102.459Z" fill="white"/>
<path opacity="0.1" d="M45.4513 94.6081L40.6639 91.8434C40.6105 91.8126 40.5673 91.7376 40.5673 91.676C40.5673 91.6143 40.6105 91.5893 40.6639 91.6201L45.4513 94.3848C45.5047 94.4157 45.548 94.4906 45.548 94.5523C45.548 94.614 45.5047 94.639 45.4513 94.6081Z" fill="black"/>
<path opacity="0.1" d="M63.9082 96.7526L59.1208 99.5173C59.0675 99.5481 59.0242 99.5232 59.0242 99.4615C59.0242 99.3998 59.0675 99.3249 59.1208 99.294L63.9082 96.5293C63.9616 96.4985 64.0049 96.5235 64.0049 96.5851C64.0049 96.6468 63.9616 96.7218 63.9082 96.7526Z" fill="black"/>
<path opacity="0.1" d="M51.3378 98.6954L43.7258 94.2995C43.6724 94.2687 43.6291 94.1937 43.6291 94.132C43.6291 94.0704 43.6724 94.0454 43.7258 94.0762L51.3378 98.4721C51.3912 98.503 51.4345 98.5779 51.4345 98.6396C51.4345 98.7013 51.3912 98.7263 51.3378 98.6954Z" fill="black"/>
<path opacity="0.1" d="M60.5551 99.7668L58.1614 101.149C58.108 101.18 58.0648 101.155 58.0648 101.093C58.0648 101.032 58.108 100.957 58.1614 100.926L60.5551 99.5435C60.6085 99.5126 60.6518 99.5376 60.6518 99.5993C60.6518 99.661 60.6085 99.736 60.5551 99.7668Z" fill="black"/>
<path d="M46.5418 96.6643V94.1523L48.2127 95.1172V97.6292L46.5418 96.6643Z" fill="#DBEBF4"/>
<path d="M46.5418 94.1523L55.281 89.1055L56.9518 90.0704L48.2127 95.1172L46.5418 94.1523Z" fill="#EFF6FA"/>
<path d="M91.7401 77.1329L73.3413 66.5078L64.6022 71.5546L83.001 82.1797L91.7401 77.1329Z" fill="#968D82"/>
<path opacity="0.2" d="M91.7401 77.1329L73.3413 66.5078L64.6022 71.5546L83.001 82.1797L91.7401 77.1329Z" fill="white"/>
<path opacity="0.8" d="M72.3793 67.5947L66.4841 70.9992C66.7923 71.3472 66.7923 71.7623 66.4842 72.1103L82.0389 81.093C82.6415 80.915 83.3604 80.915 83.963 81.093L89.8581 77.6886C89.55 77.3406 89.5499 76.9254 89.8581 76.5774L74.3034 67.5947C73.7008 67.7727 72.9819 67.7727 72.3793 67.5947ZM75.6413 72.8829C77.2925 71.9294 79.7637 71.8104 81.1609 72.6173C82.558 73.4242 82.3522 74.8513 80.701 75.8048C79.0498 76.7584 76.5786 76.8773 75.1814 76.0704C73.7842 75.2636 73.9901 73.8364 75.6413 72.8829Z" fill="white"/>
<path d="M83.001 84.6917V82.1798L64.6022 71.5547V74.0666L83.001 84.6917Z" fill="#968D82"/>
<path d="M83.001 84.6916L91.7402 79.6447V77.1328L83.001 82.1796V84.6916Z" fill="#968D82"/>
<path opacity="0.7" d="M83.001 84.6917V82.1798L64.6022 71.5547V74.0666L83.001 84.6917Z" fill="white"/>
<path opacity="0.6" d="M83.001 84.6916L91.7402 79.6447V77.1328L83.001 82.1796V84.6916Z" fill="white"/>
<path opacity="0.1" d="M71.8757 76.8406L67.0883 74.0759C67.0349 74.045 66.9916 73.9701 66.9916 73.9084C66.9916 73.8467 67.0349 73.8217 67.0883 73.8526L71.8757 76.6173C71.9291 76.6481 71.9724 76.7231 71.9724 76.7847C71.9724 76.8464 71.9291 76.8714 71.8757 76.8406Z" fill="black"/>
<path opacity="0.1" d="M90.3326 78.985L85.5452 81.7497C85.4918 81.7806 85.4485 81.7556 85.4485 81.6939C85.4485 81.6322 85.4918 81.5573 85.5452 81.5264L90.3326 78.7617C90.386 78.7309 90.4293 78.7559 90.4293 78.8176C90.4293 78.8792 90.386 78.9542 90.3326 78.985Z" fill="black"/>
<path opacity="0.1" d="M77.7622 80.9278L70.1501 76.5319C70.0968 76.5011 70.0535 76.4261 70.0535 76.3644C70.0535 76.3028 70.0968 76.2778 70.1501 76.3086L77.7622 80.7046C77.8156 80.7354 77.8589 80.8104 77.8589 80.872C77.8589 80.9337 77.8156 80.9587 77.7622 80.9278Z" fill="black"/>
<path opacity="0.1" d="M86.9794 81.9992L84.5857 83.3815C84.5324 83.4124 84.4891 83.3874 84.4891 83.3257C84.4891 83.2641 84.5324 83.1891 84.5857 83.1583L86.9794 81.7759C87.0328 81.7451 87.0761 81.7701 87.0761 81.8317C87.0761 81.8934 87.0328 81.9684 86.9794 81.9992Z" fill="black"/>
<path d="M72.9661 78.8967V76.3848L74.637 77.3497V79.8616L72.9661 78.8967Z" fill="#DBEBF4"/>
<path d="M72.9661 76.3847L81.7053 71.3379L83.3762 72.3028L74.637 77.3496L72.9661 76.3847Z" fill="#EFF6FA"/>
<path d="M82.9358 82.2106L64.537 71.5854L55.7979 76.6323L74.1967 87.2574L82.9358 82.2106Z" fill="#968D82"/>
<path opacity="0.2" d="M82.9358 82.2106L64.537 71.5854L55.7979 76.6323L74.1967 87.2574L82.9358 82.2106Z" fill="white"/>
<path opacity="0.8" d="M63.575 72.6724L57.6799 76.0768C57.9881 76.4248 57.9881 76.8399 57.6799 77.1879L73.2346 86.1706C73.8372 85.9926 74.5561 85.9927 75.1587 86.1706L81.0539 82.7662C80.7457 82.4182 80.7457 82.003 81.0539 81.655L65.4991 72.6724C64.8966 72.8503 64.1776 72.8503 63.575 72.6724ZM66.837 77.9606C68.4882 77.007 70.9594 76.8881 72.3566 77.695C73.7538 78.5019 73.5479 79.9289 71.8967 80.8825C70.2455 81.836 67.7743 81.9549 66.3771 81.1481C64.98 80.3412 65.1859 78.9141 66.837 77.9606Z" fill="white"/>
<path d="M74.1967 89.7694V87.2574L55.7979 76.6323V79.1443L74.1967 89.7694Z" fill="#968D82"/>
<path d="M74.1967 89.7692L82.9359 84.7224V82.2104L74.1967 87.2573V89.7692Z" fill="#968D82"/>
<path opacity="0.7" d="M74.1967 89.7694V87.2574L55.7979 76.6323V79.1443L74.1967 89.7694Z" fill="white"/>
<path opacity="0.6" d="M74.1967 89.7692L82.9359 84.7224V82.2104L74.1967 87.2573V89.7692Z" fill="white"/>
<path opacity="0.1" d="M63.0714 81.9182L58.284 79.1535C58.2306 79.1227 58.1873 79.0477 58.1873 78.986C58.1873 78.9244 58.2306 78.8994 58.284 78.9302L63.0714 81.6949C63.1248 81.7257 63.1681 81.8007 63.1681 81.8624C63.1681 81.924 63.1248 81.949 63.0714 81.9182Z" fill="black"/>
<path opacity="0.1" d="M81.5283 84.0627L76.7409 86.8274C76.6875 86.8582 76.6442 86.8332 76.6442 86.7716C76.6442 86.7099 76.6875 86.6349 76.7409 86.6041L81.5283 83.8394C81.5817 83.8085 81.625 83.8335 81.625 83.8952C81.625 83.9569 81.5817 84.0318 81.5283 84.0627Z" fill="black"/>
<path opacity="0.1" d="M68.9579 86.0055L61.3458 81.6096C61.2924 81.5787 61.2491 81.5037 61.2491 81.4421C61.2491 81.3804 61.2924 81.3554 61.3458 81.3863L68.9579 85.7822C69.0113 85.813 69.0546 85.888 69.0546 85.9497C69.0546 86.0113 69.0113 86.0363 68.9579 86.0055Z" fill="black"/>
<path opacity="0.1" d="M78.1752 87.0768L75.7815 88.4592C75.7281 88.49 75.6848 88.465 75.6848 88.4034C75.6848 88.3417 75.7281 88.2667 75.7815 88.2359L78.1752 86.8535C78.2286 86.8227 78.2718 86.8477 78.2718 86.9094C78.2718 86.971 78.2286 87.046 78.1752 87.0768Z" fill="black"/>
<path d="M64.1619 83.9743V81.4624L65.8327 82.4273V84.9392L64.1619 83.9743Z" fill="#DBEBF4"/>
<path d="M64.1619 81.4623L72.9011 76.4155L74.5719 77.3804L65.8327 82.4272L64.1619 81.4623Z" fill="#EFF6FA"/>
<path d="M74.1201 87.3053L55.7213 76.6802L46.9821 81.727L65.381 92.3521L74.1201 87.3053Z" fill="#968D82"/>
<path opacity="0.2" d="M74.1201 87.3053L55.7213 76.6802L46.9821 81.727L65.381 92.3521L74.1201 87.3053Z" fill="white"/>
<path opacity="0.8" d="M54.7593 77.7671L48.8641 81.1715C49.1723 81.5195 49.1723 81.9347 48.8642 82.2827L64.4189 91.2653C65.0215 91.0874 65.7404 91.0874 66.343 91.2653L72.2382 87.8609C71.93 87.5129 71.93 87.0978 72.2382 86.7498L56.6834 77.7671C56.0808 77.9451 55.3619 77.945 54.7593 77.7671ZM58.0213 83.0553C59.6725 82.1017 62.1437 81.9828 63.5409 82.7897C64.938 83.5966 64.7322 85.0236 63.081 85.9772C61.4298 86.9307 58.9586 87.0496 57.5614 86.2428C56.1642 85.4359 56.3701 84.0088 58.0213 83.0553Z" fill="white"/>
<path d="M65.381 94.8641V92.3521L46.9821 81.7271V84.239L65.381 94.8641Z" fill="#968D82"/>
<path d="M65.381 94.864L74.1201 89.8172V87.3052L65.381 92.352V94.864Z" fill="#968D82"/>
<path opacity="0.7" d="M65.381 94.8641V92.3521L46.9821 81.7271V84.239L65.381 94.8641Z" fill="white"/>
<path opacity="0.6" d="M65.381 94.864L74.1201 89.8172V87.3052L65.381 92.352V94.864Z" fill="white"/>
<path opacity="0.1" d="M54.2557 87.0129L49.4682 84.2482C49.4149 84.2174 49.3716 84.1424 49.3716 84.0807C49.3716 84.0191 49.4149 83.9941 49.4682 84.0249L54.2557 86.7896C54.309 86.8205 54.3523 86.8954 54.3523 86.9571C54.3523 87.0188 54.309 87.0438 54.2557 87.0129Z" fill="black"/>
<path opacity="0.1" d="M72.7126 89.1574L67.9252 91.9221C67.8718 91.9529 67.8285 91.9279 67.8285 91.8663C67.8285 91.8046 67.8718 91.7296 67.9252 91.6988L72.7126 88.9341C72.7659 88.9033 72.8092 88.9283 72.8092 88.9899C72.8092 89.0516 72.7659 89.1266 72.7126 89.1574Z" fill="black"/>
<path opacity="0.1" d="M60.1422 91.1002L52.5301 86.7043C52.4767 86.6735 52.4334 86.5985 52.4334 86.5368C52.4334 86.4751 52.4767 86.4501 52.5301 86.481L60.1422 90.8769C60.1955 90.9077 60.2388 90.9827 60.2388 91.0444C60.2388 91.1061 60.1955 91.131 60.1422 91.1002Z" fill="black"/>
<path opacity="0.1" d="M69.3594 92.1716L66.9657 93.5539C66.9124 93.5847 66.8691 93.5598 66.8691 93.4981C66.8691 93.4364 66.9124 93.3614 66.9657 93.3306L69.3594 91.9483C69.4128 91.9174 69.4561 91.9424 69.4561 92.0041C69.4561 92.0658 69.4128 92.1407 69.3594 92.1716Z" fill="black"/>
<path d="M55.3461 89.0691V86.5571L57.017 87.522V90.034L55.3461 89.0691Z" fill="#DBEBF4"/>
<path d="M55.3461 86.5571L64.0853 81.5103L65.7561 82.4752L57.017 87.522L55.3461 86.5571Z" fill="#EFF6FA"/>
<path d="M65.3158 92.3829L46.917 81.7578L38.1778 86.8046L56.5766 97.4297L65.3158 92.3829Z" fill="#968D82"/>
<path opacity="0.2" d="M65.3158 92.3829L46.917 81.7578L38.1778 86.8046L56.5766 97.4297L65.3158 92.3829Z" fill="white"/>
<path opacity="0.8" d="M45.9549 82.8447L40.0598 86.2491C40.3679 86.5972 40.368 87.0123 40.0598 87.3603L55.6145 96.343C56.2171 96.165 56.936 96.165 57.5386 96.343L63.4338 92.9386C63.1256 92.5905 63.1256 92.1754 63.4338 91.8274L47.879 82.8447C47.2764 83.0227 46.5575 83.0227 45.9549 82.8447ZM49.2169 88.1329C50.8681 87.1794 53.3393 87.0605 54.7365 87.8674C56.1337 88.6742 55.9278 90.1013 54.2766 91.0548C52.6254 92.0084 50.1542 92.1273 48.7571 91.3204C47.3599 90.5136 47.5658 89.0865 49.2169 88.1329Z" fill="white"/>
<path d="M56.5766 99.9417V97.4298L38.1778 86.8047V89.3167L56.5766 99.9417Z" fill="#968D82"/>
<path d="M56.5767 99.9416L65.3158 94.8947V92.3828L56.5767 97.4296V99.9416Z" fill="#968D82"/>
<path opacity="0.7" d="M56.5766 99.9417V97.4298L38.1778 86.8047V89.3167L56.5766 99.9417Z" fill="white"/>
<path opacity="0.6" d="M56.5767 99.9416L65.3158 94.8947V92.3828L56.5767 97.4296V99.9416Z" fill="white"/>
<path opacity="0.1" d="M45.4513 92.0906L40.6639 89.3259C40.6105 89.295 40.5673 89.2201 40.5673 89.1584C40.5673 89.0967 40.6105 89.0717 40.6639 89.1026L45.4513 91.8673C45.5047 91.8981 45.548 91.9731 45.548 92.0347C45.548 92.0964 45.5047 92.1214 45.4513 92.0906Z" fill="black"/>
<path opacity="0.1" d="M63.9082 94.235L59.1208 96.9997C59.0675 97.0306 59.0242 97.0056 59.0242 96.9439C59.0242 96.8823 59.0675 96.8073 59.1208 96.7764L63.9082 94.0117C63.9616 93.9809 64.0049 94.0059 64.0049 94.0676C64.0049 94.1292 63.9616 94.2042 63.9082 94.235Z" fill="black"/>
<path opacity="0.1" d="M51.3378 96.1779L43.7258 91.7819C43.6724 91.7511 43.6291 91.6761 43.6291 91.6144C43.6291 91.5528 43.6724 91.5278 43.7258 91.5586L51.3378 95.9545C51.3912 95.9854 51.4345 96.0604 51.4345 96.122C51.4345 96.1837 51.3912 96.2087 51.3378 96.1779Z" fill="black"/>
<path opacity="0.1" d="M60.5551 97.2492L58.1614 98.6315C58.108 98.6624 58.0648 98.6374 58.0648 98.5757C58.0648 98.5141 58.108 98.4391 58.1614 98.4082L60.5551 97.0259C60.6085 96.9951 60.6518 97.0201 60.6518 97.0817C60.6518 97.1434 60.6085 97.2184 60.5551 97.2492Z" fill="black"/>
<path d="M46.5418 94.1467V91.6348L48.2127 92.5997V95.1116L46.5418 94.1467Z" fill="#DBEBF4"/>
<path d="M46.5418 91.6347L55.281 86.5879L56.9518 87.5528L48.2127 92.5996L46.5418 91.6347Z" fill="#EFF6FA"/>
<path d="M91.7401 74.61L73.3413 63.9849L64.6022 69.0317L83.001 79.6568L91.7401 74.61Z" fill="#968D82"/>
<path opacity="0.2" d="M91.7401 74.61L73.3413 63.9849L64.6022 69.0317L83.001 79.6568L91.7401 74.61Z" fill="white"/>
<path opacity="0.8" d="M72.3793 65.0718L66.4841 68.4762C66.7923 68.8242 66.7923 69.2393 66.4842 69.5874L82.0389 78.57C82.6415 78.3921 83.3604 78.3921 83.963 78.57L89.8581 75.1656C89.55 74.8176 89.5499 74.4025 89.8581 74.0545L74.3034 65.0718C73.7008 65.2497 72.9819 65.2497 72.3793 65.0718ZM75.6413 70.36C77.2925 69.4065 79.7637 69.2875 81.1609 70.0944C82.558 70.9013 82.3522 72.3283 80.701 73.2819C79.0498 74.2355 76.5786 74.3544 75.1814 73.5475C73.7842 72.7406 73.9901 71.3135 75.6413 70.36Z" fill="white"/>
<path d="M83.001 82.1688V79.6569L64.6022 69.0317V71.5437L83.001 82.1688Z" fill="#968D82"/>
<path d="M83.001 82.1686L91.7402 77.1218V74.6099L83.001 79.6567V82.1686Z" fill="#968D82"/>
<path opacity="0.7" d="M83.001 82.1688V79.6569L64.6022 69.0317V71.5437L83.001 82.1688Z" fill="white"/>
<path opacity="0.6" d="M83.001 82.1686L91.7402 77.1218V74.6099L83.001 79.6567V82.1686Z" fill="white"/>
<path opacity="0.1" d="M71.8757 74.3176L67.0883 71.5529C67.0349 71.5221 66.9916 71.4471 66.9916 71.3854C66.9916 71.3238 67.0349 71.2988 67.0883 71.3296L71.8757 74.0943C71.9291 74.1251 71.9724 74.2001 71.9724 74.2618C71.9724 74.3234 71.9291 74.3484 71.8757 74.3176Z" fill="black"/>
<path opacity="0.1" d="M90.3326 76.4621L85.5452 79.2268C85.4918 79.2576 85.4485 79.2326 85.4485 79.171C85.4485 79.1093 85.4918 79.0343 85.5452 79.0035L90.3326 76.2388C90.386 76.208 90.4293 76.233 90.4293 76.2946C90.4293 76.3563 90.386 76.4313 90.3326 76.4621Z" fill="black"/>
<path opacity="0.1" d="M77.7622 78.4049L70.1501 74.009C70.0968 73.9781 70.0535 73.9032 70.0535 73.8415C70.0535 73.7798 70.0968 73.7548 70.1501 73.7857L77.7622 78.1816C77.8156 78.2124 77.8589 78.2874 77.8589 78.3491C77.8589 78.4107 77.8156 78.4357 77.7622 78.4049Z" fill="black"/>
<path opacity="0.1" d="M86.9794 79.4763L84.5857 80.8586C84.5324 80.8894 84.4891 80.8644 84.4891 80.8028C84.4891 80.7411 84.5324 80.6661 84.5857 80.6353L86.9794 79.253C87.0328 79.2221 87.0761 79.2471 87.0761 79.3088C87.0761 79.3704 87.0328 79.4454 86.9794 79.4763Z" fill="black"/>
<path d="M72.9661 76.3738V73.8618L74.637 74.8267V77.3387L72.9661 76.3738Z" fill="#DBEBF4"/>
<path d="M72.9661 73.8617L81.7053 68.8149L83.3762 69.7798L74.637 74.8266L72.9661 73.8617Z" fill="#EFF6FA"/>
<path d="M82.9358 79.6876L64.537 69.0625L55.7979 74.1093L74.1967 84.7344L82.9358 79.6876Z" fill="#968D82"/>
<path opacity="0.2" d="M82.9358 79.6876L64.537 69.0625L55.7979 74.1093L74.1967 84.7344L82.9358 79.6876Z" fill="white"/>
<path opacity="0.8" d="M63.575 70.1494L57.6799 73.5538C57.9881 73.9018 57.9881 74.317 57.6799 74.665L73.2346 83.6477C73.8372 83.4697 74.5561 83.4697 75.1587 83.6477L81.0539 80.2432C80.7457 79.8952 80.7457 79.4801 81.0539 79.1321L65.4991 70.1494C64.8966 70.3274 64.1776 70.3273 63.575 70.1494ZM66.837 75.4376C68.4882 74.4841 70.9594 74.3652 72.3566 75.172C73.7538 75.9789 73.5479 77.406 71.8967 78.3595C70.2455 79.3131 67.7743 79.432 66.3771 78.6251C64.98 77.8183 65.1859 76.3912 66.837 75.4376Z" fill="white"/>
<path d="M74.1967 87.2464V84.7345L55.7979 74.1094V76.6213L74.1967 87.2464Z" fill="#968D82"/>
<path d="M74.1967 87.2462L82.9359 82.1994V79.6875L74.1967 84.7343V87.2462Z" fill="#968D82"/>
<path opacity="0.7" d="M74.1967 87.2464V84.7345L55.7979 74.1094V76.6213L74.1967 87.2464Z" fill="white"/>
<path opacity="0.6" d="M74.1967 87.2462L82.9359 82.1994V79.6875L74.1967 84.7343V87.2462Z" fill="white"/>
<path opacity="0.1" d="M63.0714 79.3952L58.284 76.6305C58.2306 76.5997 58.1873 76.5247 58.1873 76.4631C58.1873 76.4014 58.2306 76.3764 58.284 76.4073L63.0714 79.1719C63.1248 79.2028 63.1681 79.2778 63.1681 79.3394C63.1681 79.4011 63.1248 79.4261 63.0714 79.3952Z" fill="black"/>
<path opacity="0.1" d="M81.5283 81.5397L76.7409 84.3044C76.6875 84.3353 76.6442 84.3103 76.6442 84.2486C76.6442 84.1869 76.6875 84.112 76.7409 84.0811L81.5283 81.3164C81.5817 81.2856 81.625 81.3106 81.625 81.3723C81.625 81.4339 81.5817 81.5089 81.5283 81.5397Z" fill="black"/>
<path opacity="0.1" d="M68.9579 83.4825L61.3458 79.0866C61.2924 79.0558 61.2491 78.9808 61.2491 78.9191C61.2491 78.8575 61.2924 78.8325 61.3458 78.8633L68.9579 83.2592C69.0113 83.2901 69.0546 83.365 69.0546 83.4267C69.0546 83.4884 69.0113 83.5134 68.9579 83.4825Z" fill="black"/>
<path opacity="0.1" d="M78.1752 84.5539L75.7815 85.9362C75.7281 85.9671 75.6848 85.9421 75.6848 85.8804C75.6848 85.8187 75.7281 85.7438 75.7815 85.7129L78.1752 84.3306C78.2286 84.2998 78.2718 84.3248 78.2718 84.3864C78.2718 84.4481 78.2286 84.5231 78.1752 84.5539Z" fill="black"/>
<path d="M64.1619 81.4514V78.9395L65.8327 79.9043V82.4163L64.1619 81.4514Z" fill="#DBEBF4"/>
<path d="M64.1619 78.9394L72.9011 73.8926L74.5719 74.8574L65.8327 79.9042L64.1619 78.9394Z" fill="#EFF6FA"/>
<path d="M74.1201 84.7824L55.7213 74.1572L46.9821 79.204L65.381 89.8292L74.1201 84.7824Z" fill="#968D82"/>
<path opacity="0.2" d="M74.1201 84.7824L55.7213 74.1572L46.9821 79.204L65.381 89.8292L74.1201 84.7824Z" fill="white"/>
<path opacity="0.8" d="M54.7593 75.2441L48.8641 78.6486C49.1723 78.9966 49.1723 79.4117 48.8642 79.7597L64.4189 88.7424C65.0215 88.5644 65.7404 88.5645 66.343 88.7424L72.2382 85.338C71.93 84.99 71.93 84.5748 72.2382 84.2268L56.6834 75.2441C56.0808 75.4221 55.3619 75.4221 54.7593 75.2441ZM58.0213 80.5323C59.6725 79.5788 62.1437 79.4599 63.5409 80.2668C64.938 81.0737 64.7322 82.5007 63.081 83.4543C61.4298 84.4078 58.9586 84.5267 57.5614 83.7199C56.1642 82.913 56.3701 81.4859 58.0213 80.5323Z" fill="white"/>
<path d="M65.381 92.3412V89.8292L46.9821 79.2041V81.716L65.381 92.3412Z" fill="#968D82"/>
<path d="M65.381 92.341L74.1201 87.2942V84.7822L65.381 89.829V92.341Z" fill="#968D82"/>
<path opacity="0.7" d="M65.381 92.3412V89.8292L46.9821 79.2041V81.716L65.381 92.3412Z" fill="white"/>
<path opacity="0.6" d="M65.381 92.341L74.1201 87.2942V84.7822L65.381 89.829V92.341Z" fill="white"/>
<path opacity="0.1" d="M54.2557 84.49L49.4682 81.7253C49.4149 81.6944 49.3716 81.6195 49.3716 81.5578C49.3716 81.4961 49.4149 81.4711 49.4682 81.502L54.2557 84.2667C54.309 84.2975 54.3523 84.3725 54.3523 84.4341C54.3523 84.4958 54.309 84.5208 54.2557 84.49Z" fill="black"/>
<path opacity="0.1" d="M72.7126 86.6345L67.9252 89.3992C67.8718 89.43 67.8285 89.405 67.8285 89.3433C67.8285 89.2817 67.8718 89.2067 67.9252 89.1759L72.7126 86.4112C72.7659 86.3803 72.8092 86.4053 72.8092 86.467C72.8092 86.5287 72.7659 86.6036 72.7126 86.6345Z" fill="black"/>
<path opacity="0.1" d="M60.1422 88.5773L52.5301 84.1813C52.4767 84.1505 52.4334 84.0755 52.4334 84.0139C52.4334 83.9522 52.4767 83.9272 52.5301 83.958L60.1422 88.354C60.1955 88.3848 60.2388 88.4598 60.2388 88.5214C60.2388 88.5831 60.1955 88.6081 60.1422 88.5773Z" fill="black"/>
<path opacity="0.1" d="M69.3594 89.6486L66.9657 91.031C66.9124 91.0618 66.8691 91.0368 66.8691 90.9751C66.8691 90.9135 66.9124 90.8385 66.9657 90.8077L69.3594 89.4253C69.4128 89.3945 69.4561 89.4195 69.4561 89.4811C69.4561 89.5428 69.4128 89.6178 69.3594 89.6486Z" fill="black"/>
<path d="M55.3461 86.5462V84.0342L57.017 84.9991V87.511L55.3461 86.5462Z" fill="#DBEBF4"/>
<path d="M55.3461 84.0341L64.0853 78.9873L65.7561 79.9522L57.017 84.999L55.3461 84.0341Z" fill="#EFF6FA"/>
<path d="M65.3158 89.86L46.917 79.2349L38.1778 84.2817L56.5766 94.9068L65.3158 89.86Z" fill="#968D82"/>
<path opacity="0.2" d="M65.3158 89.86L46.917 79.2349L38.1778 84.2817L56.5766 94.9068L65.3158 89.86Z" fill="white"/>
<path opacity="0.8" d="M45.9549 80.3218L40.0598 83.7262C40.3679 84.0742 40.368 84.4893 40.0598 84.8374L55.6145 93.82C56.2171 93.6421 56.936 93.6421 57.5386 93.82L63.4338 90.4156C63.1256 90.0676 63.1256 89.6525 63.4338 89.3044L47.879 80.3218C47.2764 80.4997 46.5575 80.4997 45.9549 80.3218ZM49.2169 85.61C50.8681 84.6564 53.3393 84.5375 54.7365 85.3444C56.1337 86.1513 55.9278 87.5783 54.2766 88.5319C52.6254 89.4854 50.1542 89.6043 48.7571 88.7975C47.3599 87.9906 47.5658 86.5635 49.2169 85.61Z" fill="white"/>
<path d="M56.5766 97.4188V94.9068L38.1778 84.2817V86.7937L56.5766 97.4188Z" fill="#968D82"/>
<path d="M56.5767 97.4186L65.3158 92.3718V89.8599L56.5767 94.9066V97.4186Z" fill="#968D82"/>
<path opacity="0.7" d="M56.5766 97.4188V94.9068L38.1778 84.2817V86.7937L56.5766 97.4188Z" fill="white"/>
<path opacity="0.6" d="M56.5767 97.4186L65.3158 92.3718V89.8599L56.5767 94.9066V97.4186Z" fill="white"/>
<path opacity="0.1" d="M45.4513 89.5676L40.6639 86.8029C40.6105 86.7721 40.5673 86.6971 40.5673 86.6354C40.5673 86.5738 40.6105 86.5488 40.6639 86.5796L45.4513 89.3443C45.5047 89.3751 45.548 89.4501 45.548 89.5118C45.548 89.5735 45.5047 89.5984 45.4513 89.5676Z" fill="black"/>
<path opacity="0.1" d="M63.9082 91.7121L59.1208 94.4768C59.0675 94.5076 59.0242 94.4826 59.0242 94.421C59.0242 94.3593 59.0675 94.2843 59.1208 94.2535L63.9082 91.4888C63.9616 91.458 64.0049 91.483 64.0049 91.5446C64.0049 91.6063 63.9616 91.6813 63.9082 91.7121Z" fill="black"/>
<path opacity="0.1" d="M51.3378 93.6549L43.7258 89.259C43.6724 89.2281 43.6291 89.1532 43.6291 89.0915C43.6291 89.0298 43.6724 89.0048 43.7258 89.0357L51.3378 93.4316C51.3912 93.4624 51.4345 93.5374 51.4345 93.5991C51.4345 93.6607 51.3912 93.6857 51.3378 93.6549Z" fill="black"/>
<path opacity="0.1" d="M60.5551 94.7262L58.1614 96.1086C58.108 96.1394 58.0648 96.1144 58.0648 96.0528C58.0648 95.9911 58.108 95.9161 58.1614 95.8853L60.5551 94.503C60.6085 94.4721 60.6518 94.4971 60.6518 94.5588C60.6518 94.6204 60.6085 94.6954 60.5551 94.7262Z" fill="black"/>
<path d="M46.5418 91.6238V89.1118L48.2127 90.0767V92.5887L46.5418 91.6238Z" fill="#DBEBF4"/>
<path d="M46.5418 89.1117L55.281 84.0649L56.9518 85.0298L48.2127 90.0766L46.5418 89.1117Z" fill="#EFF6FA"/>
<path d="M87.338 74.6281L68.9392 64.0029L60.2 69.0497L78.5989 79.6749L87.338 74.6281Z" fill="#968D82"/>
<path opacity="0.2" d="M87.338 74.6281L68.9392 64.0029L60.2 69.0497L78.5989 79.6749L87.338 74.6281Z" fill="white"/>
<path opacity="0.8" d="M67.9771 65.0898L62.082 68.4943C62.3902 68.8423 62.3902 69.2574 62.082 69.6054L77.6367 78.5881C78.2393 78.4101 78.9582 78.4102 79.5608 78.5881L85.456 75.1837C85.1478 74.8357 85.1478 74.4205 85.456 74.0725L69.9012 65.0898C69.2987 65.2678 68.5797 65.2678 67.9771 65.0898ZM71.2392 70.378C72.8903 69.4245 75.3615 69.3056 76.7587 70.1125C78.1559 70.9194 77.95 72.3464 76.2988 73.3C74.6476 74.2535 72.1765 74.3724 70.7793 73.5656C69.3821 72.7587 69.588 71.3316 71.2392 70.378Z" fill="white"/>
<path d="M78.5989 82.1869V79.6749L60.2 69.0498V71.5617L78.5989 82.1869Z" fill="#968D82"/>
<path d="M78.5989 82.1867L87.338 77.1399V74.6279L78.5989 79.6747V82.1867Z" fill="#968D82"/>
<path opacity="0.7" d="M78.5989 82.1869V79.6749L60.2 69.0498V71.5617L78.5989 82.1869Z" fill="white"/>
<path opacity="0.6" d="M78.5989 82.1867L87.338 77.1399V74.6279L78.5989 79.6747V82.1867Z" fill="white"/>
<path opacity="0.1" d="M67.4736 74.3357L62.6861 71.571C62.6328 71.5401 62.5895 71.4652 62.5895 71.4035C62.5895 71.3418 62.6328 71.3168 62.6861 71.3477L67.4736 74.1124C67.5269 74.1432 67.5702 74.2182 67.5702 74.2799C67.5702 74.3415 67.5269 74.3665 67.4736 74.3357Z" fill="black"/>
<path opacity="0.1" d="M85.9305 76.4802L81.143 79.2449C81.0897 79.2757 81.0464 79.2507 81.0464 79.189C81.0464 79.1274 81.0897 79.0524 81.143 79.0216L85.9305 76.2569C85.9838 76.226 86.0271 76.251 86.0271 76.3127C86.0271 76.3744 85.9838 76.4493 85.9305 76.4802Z" fill="black"/>
<path opacity="0.1" d="M73.3601 78.423L65.748 74.027C65.6946 73.9962 65.6513 73.9212 65.6513 73.8596C65.6513 73.7979 65.6946 73.7729 65.748 73.8037L73.3601 78.1997C73.4134 78.2305 73.4567 78.3055 73.4567 78.3671C73.4567 78.4288 73.4134 78.4538 73.3601 78.423Z" fill="black"/>
<path opacity="0.1" d="M82.5773 79.4943L80.1836 80.8767C80.1303 80.9075 80.087 80.8825 80.087 80.8208C80.087 80.7592 80.1303 80.6842 80.1836 80.6534L82.5773 79.271C82.6307 79.2402 82.674 79.2652 82.674 79.3268C82.674 79.3885 82.6307 79.4635 82.5773 79.4943Z" fill="black"/>
<path d="M68.564 76.3919V73.8799L70.2349 74.8448V77.3567L68.564 76.3919Z" fill="#DBEBF4"/>
<path d="M68.564 73.8798L77.3032 68.833L78.974 69.7979L70.2349 74.8447L68.564 73.8798Z" fill="#EFF6FA"/>
<path d="M78.5223 79.7228L60.1234 69.0977L51.3843 74.1445L69.7831 84.7696L78.5223 79.7228Z" fill="#968D82"/>
<path opacity="0.2" d="M78.5223 79.7228L60.1234 69.0977L51.3843 74.1445L69.7831 84.7696L78.5223 79.7228Z" fill="white"/>
<path opacity="0.8" d="M59.1614 70.1846L53.2662 73.589C53.5744 73.937 53.5744 74.3521 53.2663 74.7002L68.821 83.6828C69.4236 83.5049 70.1425 83.5049 70.7451 83.6828L76.6403 80.2784C76.3321 79.9304 76.332 79.5153 76.6403 79.1672L61.0855 70.1846C60.4829 70.3625 59.764 70.3625 59.1614 70.1846ZM62.4234 75.4728C64.0746 74.5192 66.5458 74.4003 67.943 75.2072C69.3402 76.0141 69.1343 77.4411 67.4831 78.3947C65.8319 79.3482 63.3607 79.4671 61.9636 78.6603C60.5664 77.8534 60.7723 76.4263 62.4234 75.4728Z" fill="white"/>
<path d="M69.7831 87.2816V84.7696L51.3843 74.1445V76.6565L69.7831 87.2816Z" fill="#968D82"/>
<path d="M69.7831 87.2814L78.5223 82.2346V79.7227L69.7831 84.7695V87.2814Z" fill="#968D82"/>
<path opacity="0.7" d="M69.7831 87.2816V84.7696L51.3843 74.1445V76.6565L69.7831 87.2816Z" fill="white"/>
<path opacity="0.6" d="M69.7831 87.2814L78.5223 82.2346V79.7227L69.7831 84.7695V87.2814Z" fill="white"/>
<path opacity="0.1" d="M58.6578 79.4304L53.8704 76.6657C53.817 76.6349 53.7737 76.5599 53.7737 76.4982C53.7737 76.4366 53.817 76.4116 53.8704 76.4424L58.6578 79.2071C58.7112 79.2379 58.7545 79.3129 58.7545 79.3746C58.7545 79.4362 58.7112 79.4612 58.6578 79.4304Z" fill="black"/>
<path opacity="0.1" d="M77.1147 81.5749L72.3273 84.3396C72.2739 84.3704 72.2307 84.3454 72.2307 84.2838C72.2307 84.2221 72.2739 84.1471 72.3273 84.1163L77.1147 81.3516C77.1681 81.3208 77.2114 81.3457 77.2114 81.4074C77.2114 81.4691 77.1681 81.5441 77.1147 81.5749Z" fill="black"/>
<path opacity="0.1" d="M64.5443 83.5177L56.9322 79.1218C56.8789 79.0909 56.8356 79.016 56.8356 78.9543C56.8356 78.8926 56.8789 78.8676 56.9322 78.8985L64.5443 83.2944C64.5977 83.3252 64.641 83.4002 64.641 83.4619C64.641 83.5235 64.5977 83.5485 64.5443 83.5177Z" fill="black"/>
<path opacity="0.1" d="M73.7616 84.589L71.3679 85.9714C71.3145 86.0022 71.2712 85.9772 71.2712 85.9156C71.2712 85.8539 71.3145 85.7789 71.3679 85.7481L73.7616 84.3658C73.815 84.3349 73.8583 84.3599 73.8583 84.4216C73.8583 84.4832 73.815 84.5582 73.7616 84.589Z" fill="black"/>
<path d="M59.7483 81.4866V78.9746L61.4191 79.9395V82.4515L59.7483 81.4866Z" fill="#DBEBF4"/>
<path d="M59.7483 78.9745L68.4874 73.9277L70.1583 74.8926L61.4191 79.9394L59.7483 78.9745Z" fill="#EFF6FA"/>
<path d="M69.7179 84.8004L51.3191 74.1753L42.58 79.2221L60.9788 89.8472L69.7179 84.8004Z" fill="#968D82"/>
<path opacity="0.2" d="M69.7179 84.8004L51.3191 74.1753L42.58 79.2221L60.9788 89.8472L69.7179 84.8004Z" fill="white"/>
<path opacity="0.8" d="M50.3571 75.2622L44.4619 78.6666C44.7701 79.0146 44.7701 79.4298 44.4619 79.7778L60.0167 88.7605C60.6193 88.5825 61.3382 88.5825 61.9408 88.7605L67.8359 85.356C67.5278 85.008 67.5277 84.5929 67.8359 84.2449L52.2812 75.2622C51.6786 75.4402 50.9597 75.4401 50.3571 75.2622ZM53.6191 80.5504C55.2703 79.5969 57.7414 79.4779 59.1386 80.2848C60.5358 81.0917 60.3299 82.5187 58.6787 83.4723C57.0276 84.4259 54.5564 84.5448 53.1592 83.7379C51.762 82.9311 51.9679 81.5039 53.6191 80.5504Z" fill="white"/>
<path d="M60.9788 92.3592V89.8473L42.58 79.2222V81.7341L60.9788 92.3592Z" fill="#968D82"/>
<path d="M60.9788 92.359L69.718 87.3122V84.8003L60.9788 89.8471V92.359Z" fill="#968D82"/>
<path opacity="0.7" d="M60.9788 92.3592V89.8473L42.58 79.2222V81.7341L60.9788 92.3592Z" fill="white"/>
<path opacity="0.6" d="M60.9788 92.359L69.718 87.3122V84.8003L60.9788 89.8471V92.359Z" fill="white"/>
<path opacity="0.1" d="M49.8535 84.508L45.0661 81.7433C45.0127 81.7125 44.9694 81.6375 44.9694 81.5759C44.9694 81.5142 45.0127 81.4892 45.0661 81.52L49.8535 84.2847C49.9069 84.3156 49.9502 84.3905 49.9502 84.4522C49.9502 84.5139 49.9069 84.5389 49.8535 84.508Z" fill="black"/>
<path opacity="0.1" d="M68.3104 86.6525L63.523 89.4172C63.4696 89.4481 63.4263 89.4231 63.4263 89.3614C63.4263 89.2997 63.4696 89.2248 63.523 89.1939L68.3104 86.4292C68.3638 86.3984 68.4071 86.4234 68.4071 86.4851C68.4071 86.5467 68.3638 86.6217 68.3104 86.6525Z" fill="black"/>
<path opacity="0.1" d="M55.74 88.5953L48.1279 84.1994C48.0745 84.1686 48.0312 84.0936 48.0312 84.0319C48.0312 83.9703 48.0745 83.9453 48.1279 83.9761L55.74 88.372C55.7934 88.4029 55.8367 88.4778 55.8367 88.5395C55.8367 88.6012 55.7934 88.6262 55.74 88.5953Z" fill="black"/>
<path opacity="0.1" d="M64.9572 89.6667L62.5635 91.049C62.5101 91.0799 62.4669 91.0549 62.4669 90.9932C62.4669 90.9315 62.5101 90.8566 62.5635 90.8257L64.9572 89.4434C65.0106 89.4126 65.0539 89.4375 65.0539 89.4992C65.0539 89.5609 65.0106 89.6358 64.9572 89.6667Z" fill="black"/>
<path d="M50.9439 86.5642V84.0522L52.6147 85.0171V87.5291L50.9439 86.5642Z" fill="#DBEBF4"/>
<path d="M50.9439 84.0521L59.6831 79.0054L61.3539 79.9702L52.6147 85.017L50.9439 84.0521Z" fill="#EFF6FA"/>
<path d="M82.9301 74.6554L64.5313 64.0303L55.7922 69.0771L74.191 79.7022L82.9301 74.6554Z" fill="#968D82"/>
<path opacity="0.2" d="M82.9301 74.6554L64.5313 64.0303L55.7922 69.0771L74.191 79.7022L82.9301 74.6554Z" fill="white"/>
<path opacity="0.8" d="M63.5693 65.1172L57.6741 68.5216C57.9823 68.8696 57.9823 69.2848 57.6742 69.6328L73.2289 78.6154C73.8315 78.4375 74.5504 78.4375 75.153 78.6154L81.0481 75.211C80.74 74.863 80.74 74.4479 81.0481 74.0999L65.4934 65.1172C64.8908 65.2952 64.1719 65.2951 63.5693 65.1172ZM66.8313 70.4054C68.4825 69.4519 70.9537 69.3329 72.3509 70.1398C73.748 70.9467 73.5422 72.3738 71.891 73.3273C70.2398 74.2809 67.7686 74.3998 66.3714 73.5929C64.9742 72.7861 65.1801 71.3589 66.8313 70.4054Z" fill="white"/>
<path d="M74.191 82.2142V79.7023L55.7922 69.0771V71.5891L74.191 82.2142Z" fill="#968D82"/>
<path d="M74.191 82.214L82.9301 77.1672V74.6553L74.191 79.7021V82.214Z" fill="#968D82"/>
<path opacity="0.7" d="M74.191 82.2142V79.7023L55.7922 69.0771V71.5891L74.191 82.2142Z" fill="white"/>
<path opacity="0.6" d="M74.191 82.214L82.9301 77.1672V74.6553L74.191 79.7021V82.214Z" fill="white"/>
<path opacity="0.1" d="M63.0657 74.363L58.2783 71.5983C58.2249 71.5675 58.1816 71.4925 58.1816 71.4308C58.1816 71.3692 58.2249 71.3442 58.2783 71.375L63.0657 74.1397C63.1191 74.1706 63.1624 74.2455 63.1624 74.3072C63.1624 74.3689 63.1191 74.3939 63.0657 74.363Z" fill="black"/>
<path opacity="0.1" d="M81.5226 76.5075L76.7352 79.2722C76.6818 79.303 76.6385 79.278 76.6385 79.2164C76.6385 79.1547 76.6818 79.0797 76.7352 79.0489L81.5226 76.2842C81.576 76.2534 81.6193 76.2784 81.6193 76.34C81.6193 76.4017 81.576 76.4767 81.5226 76.5075Z" fill="black"/>
<path opacity="0.1" d="M68.9522 78.4503L61.3401 74.0544C61.2868 74.0235 61.2435 73.9486 61.2435 73.8869C61.2435 73.8252 61.2868 73.8002 61.3401 73.8311L68.9522 78.227C69.0056 78.2578 69.0489 78.3328 69.0489 78.3945C69.0489 78.4561 69.0056 78.4811 68.9522 78.4503Z" fill="black"/>
<path opacity="0.1" d="M78.1694 79.5217L75.7757 80.904C75.7224 80.9348 75.6791 80.9098 75.6791 80.8482C75.6791 80.7865 75.7224 80.7115 75.7757 80.6807L78.1694 79.2984C78.2228 79.2675 78.2661 79.2925 78.2661 79.3542C78.2661 79.4159 78.2228 79.4908 78.1694 79.5217Z" fill="black"/>
<path d="M64.1561 76.4192V73.9072L65.827 74.8721V77.3841L64.1561 76.4192Z" fill="#DBEBF4"/>
<path d="M64.1561 73.9071L72.8953 68.8604L74.5662 69.8252L65.827 74.872L64.1561 73.9071Z" fill="#EFF6FA"/>
<path d="M74.1258 79.733L55.727 69.1079L46.9879 74.1547L65.3867 84.7798L74.1258 79.733Z" fill="#968D82"/>
<path opacity="0.2" d="M74.1258 79.733L55.727 69.1079L46.9879 74.1547L65.3867 84.7798L74.1258 79.733Z" fill="white"/>
<path opacity="0.8" d="M54.765 70.1948L48.8699 73.5992C49.1781 73.9473 49.1781 74.3624 48.8699 74.7104L64.4246 83.6931C65.0272 83.5151 65.7462 83.5151 66.3487 83.6931L72.2439 80.2887C71.9357 79.9406 71.9357 79.5255 72.2439 79.1775L56.6892 70.1948C56.0866 70.3728 55.3676 70.3728 54.765 70.1948ZM58.027 75.483C59.6782 74.5295 62.1494 74.4105 63.5466 75.2174C64.9438 76.0243 64.7379 77.4514 63.0867 78.4049C61.4355 79.3585 58.9643 79.4774 57.5671 78.6705C56.17 77.8637 56.3759 76.4365 58.027 75.483Z" fill="white"/>
<path d="M65.3867 87.2918V84.7799L46.9879 74.1548V76.6667L65.3867 87.2918Z" fill="#968D82"/>
<path d="M65.3867 87.2916L74.1258 82.2448V79.7329L65.3867 84.7797V87.2916Z" fill="#968D82"/>
<path opacity="0.7" d="M65.3867 87.2918V84.7799L46.9879 74.1548V76.6667L65.3867 87.2918Z" fill="white"/>
<path opacity="0.6" d="M65.3867 87.2916L74.1258 82.2448V79.7329L65.3867 84.7797V87.2916Z" fill="white"/>
<path opacity="0.1" d="M54.2614 79.4407L49.474 76.676C49.4206 76.6451 49.3773 76.5701 49.3773 76.5085C49.3773 76.4468 49.4206 76.4218 49.474 76.4527L54.2614 79.2174C54.3148 79.2482 54.3581 79.3232 54.3581 79.3848C54.3581 79.4465 54.3148 79.4715 54.2614 79.4407Z" fill="black"/>
<path opacity="0.1" d="M72.7183 81.5851L67.9309 84.3498C67.8775 84.3807 67.8342 84.3557 67.8342 84.294C67.8342 84.2323 67.8775 84.1574 67.9309 84.1265L72.7183 81.3618C72.7717 81.331 72.815 81.356 72.815 81.4177C72.815 81.4793 72.7717 81.5543 72.7183 81.5851Z" fill="black"/>
<path opacity="0.1" d="M60.1479 83.5279L52.5358 79.132C52.4824 79.1012 52.4391 79.0262 52.4391 78.9645C52.4391 78.9029 52.4824 78.8779 52.5358 78.9087L60.1479 83.3046C60.2013 83.3355 60.2446 83.4105 60.2446 83.4721C60.2446 83.5338 60.2013 83.5588 60.1479 83.5279Z" fill="black"/>
<path opacity="0.1" d="M69.3652 84.5993L66.9715 85.9816C66.9181 86.0125 66.8748 85.9875 66.8748 85.9258C66.8748 85.8642 66.9181 85.7892 66.9715 85.7583L69.3652 84.376C69.4186 84.3452 69.4619 84.3702 69.4619 84.4318C69.4619 84.4935 69.4186 84.5685 69.3652 84.5993Z" fill="black"/>
<path d="M55.3519 81.4968V78.9849L57.0227 79.9498V82.4617L55.3519 81.4968Z" fill="#DBEBF4"/>
<path d="M55.3519 78.9848L64.0911 73.938L65.7619 74.9029L57.0227 79.9497L55.3519 78.9848Z" fill="#EFF6FA"/>
<path d="M78.528 74.6822L60.1292 64.0571L51.39 69.1039L69.7888 79.729L78.528 74.6822Z" fill="#968D82"/>
<path opacity="0.2" d="M78.528 74.6822L60.1292 64.0571L51.39 69.1039L69.7888 79.729L78.528 74.6822Z" fill="white"/>
<path opacity="0.8" d="M59.1671 65.144L53.272 68.5485C53.5802 68.8965 53.5802 69.3116 53.272 69.6596L68.8267 78.6423C69.4293 78.4643 70.1483 78.4644 70.7508 78.6423L76.646 75.2379C76.3378 74.8899 76.3378 74.4747 76.646 74.1267L61.0913 65.144C60.4887 65.322 59.7697 65.322 59.1671 65.144ZM62.4292 70.4322C64.0803 69.4787 66.5515 69.3598 67.9487 70.1666C69.3459 70.9735 69.14 72.4006 67.4888 73.3541C65.8376 74.3077 63.3665 74.4266 61.9693 73.6197C60.5721 72.8129 60.778 71.3858 62.4292 70.4322Z" fill="white"/>
<path d="M69.7888 82.2411V79.7291L51.39 69.104V71.6159L69.7888 82.2411Z" fill="#968D82"/>
<path d="M69.7888 82.2409L78.528 77.1941V74.6821L69.7888 79.7289V82.2409Z" fill="#968D82"/>
<path opacity="0.7" d="M69.7888 82.2411V79.7291L51.39 69.104V71.6159L69.7888 82.2411Z" fill="white"/>
<path opacity="0.6" d="M69.7888 82.2409L78.528 77.1941V74.6821L69.7888 79.7289V82.2409Z" fill="white"/>
<path opacity="0.1" d="M58.6636 74.3899L53.8761 71.6252C53.8228 71.5943 53.7795 71.5194 53.7795 71.4577C53.7795 71.396 53.8228 71.371 53.8761 71.4019L58.6636 74.1666C58.7169 74.1974 58.7602 74.2724 58.7602 74.3341C58.7602 74.3957 58.7169 74.4207 58.6636 74.3899Z" fill="black"/>
<path opacity="0.1" d="M77.1205 76.5344L72.3331 79.2991C72.2797 79.3299 72.2364 79.3049 72.2364 79.2432C72.2364 79.1816 72.2797 79.1066 72.3331 79.0758L77.1205 76.3111C77.1738 76.2802 77.2171 76.3052 77.2171 76.3669C77.2171 76.4286 77.1738 76.5035 77.1205 76.5344Z" fill="black"/>
<path opacity="0.1" d="M64.5501 78.4772L56.938 74.0812C56.8846 74.0504 56.8413 73.9754 56.8413 73.9138C56.8413 73.8521 56.8846 73.8271 56.938 73.8579L64.5501 78.2539C64.6034 78.2847 64.6467 78.3597 64.6467 78.4213C64.6467 78.483 64.6034 78.508 64.5501 78.4772Z" fill="black"/>
<path opacity="0.1" d="M73.7673 79.5485L71.3736 80.9309C71.3203 80.9617 71.277 80.9367 71.277 80.875C71.277 80.8134 71.3203 80.7384 71.3736 80.7076L73.7673 79.3252C73.8207 79.2944 73.864 79.3194 73.864 79.381C73.864 79.4427 73.8207 79.5177 73.7673 79.5485Z" fill="black"/>
<path d="M59.754 76.446V73.9341L61.4248 74.899V77.4109L59.754 76.446Z" fill="#DBEBF4"/>
<path d="M59.754 73.934L68.4932 68.8872L70.164 69.8521L61.4248 74.8989L59.754 73.934Z" fill="#EFF6FA"/>
<path d="M108.006 113.478L90.1551 103.169L62.8911 118.914L80.742 129.223L108.006 113.478Z" fill="#EFEFEF"/>
<path d="M98.6774 114.915L86.9293 108.131C86.782 108.046 86.7819 107.908 86.9293 107.823C87.0767 107.737 87.3153 107.738 87.4626 107.823L99.2107 114.607C99.358 114.692 99.3581 114.83 99.2107 114.915C99.0633 115 98.8247 115 98.6774 114.915Z" fill="#C6C6C6"/>
<path d="M96.1118 116.396L84.3637 109.612C84.2164 109.527 84.2163 109.389 84.3637 109.304C84.5111 109.219 84.7497 109.219 84.897 109.304L96.6451 116.089C96.7924 116.174 96.7925 116.311 96.6451 116.396C96.4977 116.482 96.2591 116.482 96.1118 116.396Z" fill="#C6C6C6"/>
<path d="M93.5463 117.878L81.7981 111.094C81.6509 111.009 81.6507 110.871 81.7981 110.786C81.9455 110.701 82.1841 110.701 82.3314 110.786L94.0796 117.57C94.2268 117.655 94.2269 117.793 94.0796 117.878C93.9322 117.964 93.6935 117.963 93.5463 117.878Z" fill="#C6C6C6"/>
<path d="M90.981 119.36L79.2328 112.575C79.0855 112.49 79.0854 112.353 79.2328 112.267C79.3802 112.182 79.6188 112.182 79.7661 112.267L91.5142 119.052C91.6615 119.137 91.6616 119.275 91.5142 119.36C91.3669 119.445 91.1282 119.445 90.981 119.36Z" fill="#C6C6C6"/>
<path d="M88.4154 120.841L76.6672 114.057C76.5199 113.972 76.5198 113.834 76.6672 113.749C76.8146 113.664 77.0532 113.664 77.2005 113.749L88.9486 120.533C89.0959 120.618 89.096 120.756 88.9486 120.841C88.8013 120.926 88.5626 120.926 88.4154 120.841Z" fill="#C6C6C6"/>
<path d="M84.3419 123.194L78.4678 119.801C78.3205 119.716 78.3204 119.579 78.4678 119.493C78.6152 119.408 78.8538 119.408 79.0011 119.493L84.8752 122.886C85.0224 122.971 85.0226 123.109 84.8752 123.194C84.7278 123.279 84.4891 123.279 84.3419 123.194Z" fill="#C6C6C6"/>
<path opacity="0.1" d="M75.692 114.768C75.4772 114.119 74.7508 113.637 74.0696 113.691C73.7549 113.715 73.5092 113.854 73.3525 114.055L73.3494 114.053L69.0261 119.18L69.0287 119.182C68.8516 119.417 68.7946 119.736 68.9088 120.081C69.1237 120.73 69.8501 121.212 70.5312 121.158C70.8827 121.13 71.1511 120.964 71.3013 120.721L71.3026 120.722L75.5458 115.707L75.5408 115.703C75.7417 115.466 75.8124 115.131 75.692 114.768Z" fill="black"/>
<path d="M75.6058 115.26C75.9355 114.764 75.6891 114.02 75.0555 113.599C74.4219 113.178 73.641 113.24 73.3113 113.737C72.9816 114.234 73.228 114.977 73.8616 115.398C74.4952 115.819 75.2761 115.757 75.6058 115.26Z" fill="#545456"/>
<path d="M73.3494 113.687L69.0261 118.814L71.3026 120.356L75.5458 115.34L73.3494 113.687Z" fill="#545456"/>
<path d="M71.2892 120.378C71.6189 119.882 71.3725 119.138 70.7389 118.717C70.1053 118.297 69.3244 118.358 68.9947 118.855C68.665 119.352 68.9114 120.095 69.545 120.516C70.1786 120.937 70.9595 120.875 71.2892 120.378Z" fill="#BF272D"/>
<path opacity="0.05" d="M31.3137 256L2.10229 239.131L31.3129 222.262L60.5243 239.131L31.3137 256Z" fill="#1A1A1A"/>
<g opacity="0.05">
<path d="M133.529 110.175C133.056 109.862 132.256 109.88 131.746 110.213C131.235 110.547 131.205 111.071 131.678 111.385C132.151 111.698 132.947 111.682 133.458 111.349C133.969 111.015 134.002 110.489 133.529 110.175Z" fill="black"/>
</g>
<g opacity="0.05">
<path d="M130.103 111.631C129.63 111.317 128.831 111.335 128.32 111.669C127.809 112.003 127.779 112.527 128.252 112.84C128.725 113.154 129.522 113.138 130.033 112.804C130.543 112.471 130.576 111.944 130.103 111.631Z" fill="black"/>
</g>
<path d="M61.4662 202.054C61.4611 202.058 61.4595 202.065 61.4562 202.071L57.4067 202.423L60.2299 203.462C55.1083 211.931 50.5312 205.167 49.9236 205.361C49.2984 205.561 47.5615 210.169 48.9788 213.949C49.2861 214.769 49.2492 214.871 49.768 215.376C49.7947 215.669 49.8514 215.982 49.9647 216.254C50.2917 217.039 52.6149 218.287 54.8502 218.287C57.0854 218.287 61.2925 214.591 61.2925 214.591V213.754C63.2741 212.455 65.2523 211.259 66.1367 211.21C67.8758 211.114 76.3795 205.361 76.3795 202.054C76.3795 198.746 65.2099 198.583 61.4662 202.054Z" fill="#4A4C56"/>
<path d="M60.6087 203.416L57.5859 202.431C57.5969 202.028 57.6057 201.626 57.6215 201.231C57.7346 198.404 58.9359 193.91 56.3274 193.848C53.7189 193.787 50.2672 192.209 50.0738 200.273C50.0738 200.273 49.9563 205.303 50.0738 206.032C50.1913 206.76 51.3637 208.235 55.6404 208.235C56.6624 208.235 57.9817 207.651 57.9817 207.651C57.9817 207.651 60.8963 206.567 61.9383 204.631L60.6087 203.416Z" fill="#FFD6D6"/>
<path d="M61.8164 144.087C63.0438 148.531 62.4519 169.125 62.6916 197.678C62.7052 199.297 56.5244 204.545 54.7802 204.624C52.6474 204.72 47.0098 202.788 47.176 199.783C48.1293 182.54 40.6121 166.029 40.1726 151.087C39.417 125.394 60.5889 139.644 61.8164 144.087Z" fill="#3C4358"/>
<path d="M51.5379 144.804C48.0369 143.993 51.1693 137.247 55.1493 137.284C59.1292 137.321 59.6452 136.805 60.6402 138.464C61.6352 140.123 57.5078 145.762 55.0019 146.205C52.496 146.647 51.5379 144.804 51.5379 144.804Z" fill="#FFD3D4"/>
<path d="M81.1119 213.73C81.1068 213.735 81.1052 213.742 81.1019 213.748L77.0524 214.1L79.8756 215.139C74.754 223.608 70.1769 216.844 69.5693 217.038C68.9441 217.238 67.2072 221.845 68.6245 225.626C68.9318 226.446 68.8949 226.548 69.4137 227.053C69.4404 227.346 69.4971 227.659 69.6104 227.931C69.9373 228.716 72.2606 229.964 74.4959 229.964C76.7311 229.964 80.9382 226.268 80.9382 226.268V225.431C82.9198 224.132 84.898 222.935 85.7824 222.886C87.5215 222.79 96.0252 217.038 96.0252 213.73C96.0252 210.423 84.8556 210.259 81.1119 213.73Z" fill="#4A4C56"/>
<path d="M80.2543 215.092L77.2315 214.108C77.2425 213.705 77.2514 213.303 77.2671 212.908C77.3802 210.081 78.5815 205.587 75.973 205.525C73.3645 205.464 69.9128 203.886 69.7194 211.95C69.7194 211.95 69.6019 216.98 69.7194 217.708C69.8369 218.437 71.0093 219.912 75.286 219.912C76.308 219.912 77.6273 219.327 77.6273 219.327C77.6273 219.327 80.542 218.243 81.584 216.308L80.2543 215.092Z" fill="#FFD6D6"/>
<path d="M81.1783 154.95C82.9372 159.26 81.8139 181.321 82.0535 209.875C82.0671 211.494 75.8863 215.191 74.1422 215.27C72.0094 215.366 66.3718 213.435 66.538 210.429C67.4912 193.186 60.2048 173.595 60.5352 158.65C60.7924 147.019 79.4195 150.64 81.1783 154.95Z" fill="#3C4358"/>
<path d="M30.5546 251.861C30.0371 251.861 29.6176 251.441 29.6176 250.924V201.443C29.6176 200.925 30.0371 200.505 30.5546 200.505C31.0721 200.505 31.4915 200.925 31.4915 201.443V250.924C31.4915 251.441 31.0721 251.861 30.5546 251.861Z" fill="#BBB4B4"/>
<path d="M5.65455 239.081C5.63918 239.081 5.62381 239.081 5.60842 239.08C5.09125 239.055 4.6927 238.615 4.71793 238.098L6.75691 188.675C6.78217 188.158 7.23123 187.758 7.73815 187.784C8.25532 187.809 8.65387 188.248 8.62863 188.765L6.58966 238.189C6.56514 238.691 6.15119 239.081 5.65455 239.081Z" fill="#BBB4B4"/>
<path d="M57.3284 239.081C56.8318 239.081 56.4178 238.691 56.3933 238.189L54.3543 188.766C54.3291 188.249 54.7277 187.809 55.2448 187.784C55.751 187.756 56.2008 188.157 56.2261 188.675L58.265 238.098C58.2903 238.615 57.8917 239.055 57.3746 239.08C57.3592 239.081 57.3438 239.081 57.3284 239.081Z" fill="#BBB4B4"/>
<path d="M28.3059 225.992C27.7883 225.992 27.3689 225.573 27.3689 225.055V175.574C27.3689 175.056 27.7883 174.637 28.3059 174.637C28.8234 174.637 29.2428 175.056 29.2428 175.574V225.055C29.2428 225.573 28.8234 225.992 28.3059 225.992Z" fill="#BBB4B4"/>
<path d="M26.4653 201.27L6.93228 189.989C4.25967 188.446 4.59482 185.75 7.68091 183.968L25.7158 173.553C28.8019 171.771 33.4702 171.577 36.1428 173.121L55.6759 184.401C58.3485 185.944 58.0133 188.64 54.9272 190.422L36.8923 200.837C33.8063 202.619 29.1379 202.813 26.4653 201.27Z" fill="#BBB4B4"/>
<path d="M10.5386 175.447C10.5386 175.447 2.67504 182.938 24.5379 191.496C50.3979 201.617 81.9011 159.6 81.9011 159.6C81.9011 159.6 82.8331 144.413 66.3058 149.964C52.7406 154.52 10.5386 175.447 10.5386 175.447Z" fill="#3C4358"/>
<path d="M9.38299 103.49C5.98577 107.176 0.696837 139.774 6.67331 141.686C10.7472 142.99 11.7758 125.303 16.6467 112.45C21.6422 99.2684 12.7802 99.8035 9.38299 103.49Z" fill="#FFD3D4"/>
<path d="M11.4044 142.365C11.4044 142.365 -4.6582 132.078 1.40507 125.081C6.60352 119.081 1.84731 97.7262 17.4768 96.5838C19.2636 96.4532 16.6472 138.63 11.4044 142.365Z" fill="black"/>
<path opacity="0.1" d="M8.03424 139.948C5.12299 140.366 5.28877 112.834 8.46356 113.641C11.6383 114.449 9.11518 139.793 8.03424 139.948Z" fill="black"/>
<path d="M48.1997 160.95C47.6684 155.341 46.2322 147.737 44.2407 140.731C41.7454 131.952 46.411 122.339 45.539 112.828C45.5248 112.672 45.5132 112.516 45.496 112.361C44.4219 102.698 33.1525 100.423 33.1525 100.423L18.5406 96.7402C18.5406 96.7402 9.99247 96.7678 8.52607 102.111C7.05958 107.454 7.03378 123.61 7.67681 130.295C8.31985 136.98 8.30482 167.606 6.73686 178.474C6.18587 182.294 29.156 189.285 35.1052 188.817C41.0544 188.349 49.0746 183.939 50.6879 181.476C51.3595 180.45 48.5786 164.95 48.1997 160.95Z" fill="black"/>
<path opacity="0.1" d="M45.057 115.172C39.6742 117.704 33.8415 122.363 34.1738 130.617C34.6076 141.389 41.1812 156.04 48.0172 163.468C47.4859 157.859 46.6352 148.516 44.7174 143.241C41.7647 135.119 45.264 124.79 45.057 115.172Z" fill="black"/>
<path d="M38.6327 124.172C37.0429 128.926 38.6509 165.861 44.8861 165.158C49.1363 164.678 51.3413 142.618 50.5222 128.897C49.6823 114.825 40.2225 119.417 38.6327 124.172Z" fill="#FFD3D4"/>
<path d="M43.8253 164.392C46.5881 168.954 72.7033 156.684 71.8514 152.552C71.32 149.975 53.884 155.736 47.2962 158.723C40.7084 161.71 43.8253 164.392 43.8253 164.392Z" fill="#FFD3D4"/>
<path d="M68.7072 154.133C65.2063 153.323 68.3387 146.577 72.3187 146.614C76.2986 146.651 76.5471 146.328 77.8095 147.793C80.4191 150.822 74.6772 155.092 72.1713 155.534C69.6653 155.977 68.7072 154.133 68.7072 154.133Z" fill="#FFD3D4"/>
<path d="M38.0421 102.262C37.8587 101.758 48.9871 108.09 51.1809 112.046C53.0787 115.469 57.3206 127.245 57.9378 137.497C58.2279 142.317 60.2557 144.205 59.9997 147.055C59.9997 147.055 48.4519 157.259 37.5983 152.754C37.5983 152.754 36.6982 123.369 36.3081 119.896C36.3081 119.896 38.3432 103.088 38.0421 102.262Z" fill="black"/>
<path d="M26.5717 101.833C29.1386 101.837 32.7904 101.256 34.3216 100.872C34.2975 100.721 34.2803 100.555 34.2727 100.367C34.1672 97.7451 37.6556 89.8005 33.8052 87.3293C29.9549 84.8582 23.1991 84.7551 22.6312 89.2802C22.1293 93.2781 20.2719 97.5915 20.0092 98.0654C21.0636 99.389 23.4003 101.828 26.5717 101.833Z" fill="#FFCCCC"/>
<path d="M41.3233 72.7675C42.0461 73.8128 40.9885 78.2188 41.5387 80.4693C43.2769 87.5795 42.9352 97.1755 30.9316 97.5532C19.2029 97.9222 18.6737 92.0682 18.3022 84.5802C17.9308 77.0922 14.8646 73.6531 22.6835 69.3248C30.5023 64.9966 38.3047 68.4017 41.3233 72.7675Z" fill="#FFD2D2"/>
<path d="M43.2533 73.6411C43.7006 65.4437 31.3499 62.191 25.3574 62.8649C22.9481 63.1359 17.1227 64.8448 16.2724 68.2467C6.34884 77.2524 17.6291 94.636 24.6393 95.5743C27.6711 95.98 31.042 95.4149 32.7363 93.5889C32.9759 93.3307 34.0268 91.9076 33.6778 91.9548C32.5207 92.1111 30.5836 90.9163 30.7908 86.838C31.1225 80.3122 33.7732 83.4974 34.4013 84.6455C35.0294 85.7937 35.3042 88.0801 35.3042 88.0801L36.1011 89.376L37.0954 85.6376C39.0794 83.2018 40.0909 81.4158 40.7215 78.9998C41.5391 76.5804 42.8537 75.861 43.2533 73.6411Z" fill="#3D4356"/>
<path d="M32.8033 202.19L9.00458 189.131C7.61666 188.33 5.06936 187.547 5.06936 185.696C2.95293 173.714 2.63327 129.425 7.13066 127.176C11.6281 124.927 33.6525 142.345 33.6525 142.345C35.0404 143.147 36.1655 145.297 36.1655 147.148C35.5244 159.898 35.0961 184.986 36.1655 197.526C36.1655 199.377 34.1912 202.991 32.8033 202.19Z" fill="#BBB4B4"/>
<path d="M124.869 73.3858C124.869 73.3858 120.572 69.6396 117.605 71.9894C114.639 74.3391 106.153 105.727 108.226 106.72C110.299 107.713 116.078 110.428 117.152 108.595C118.227 106.763 127.58 77.889 124.869 73.3858Z" fill="#363E58"/>
<path d="M106.421 110.682C107.021 108.719 109.117 105.978 112.398 106.255C115.804 106.543 116.085 112.014 115.873 113.153C114.429 120.894 111.483 121.102 108.693 121.12C105.903 121.138 105.17 114.769 106.421 110.682Z" fill="#FFD3D4"/>
<path d="M115.641 111.823C117.437 110.86 120.829 110.395 122.947 112.885C125.146 115.47 121.519 119.521 120.574 120.175C114.145 124.619 111.924 122.705 109.946 120.767C107.968 118.828 111.903 113.828 115.641 111.823Z" fill="#FFD3D4"/>
<path d="M153.52 87.6446C153.52 87.6446 159.338 90.0731 158.024 93.6226C156.71 97.1721 126.371 119.446 124.785 117.782C123.198 116.119 118.827 111.465 120.236 109.875C121.645 108.285 148.4 86.4612 153.52 87.6446Z" fill="#363E58"/>
</g>
<defs>
<clipPath id="clip0_59_992">
<rect width="175" height="256" fill="white"/>
</clipPath>
</defs>
</svg>
