<svg width="200" height="121" viewBox="0 0 200 121" fill="none" xmlns="http://www.w3.org/2000/svg">
<mask id="mask0_30_1271" style="mask-type:luminance" maskUnits="userSpaceOnUse" x="66" y="1" width="68" height="79">
<path d="M66.1604 1.2478H133.76V79.8117H66.1604V1.2478Z" fill="white"/>
</mask>
<g mask="url(#mask0_30_1271)">
<path d="M99.9708 79.8117V75.4506L66.1604 53.7253V58.0863L99.9708 79.8117ZM99.9708 49.1709V53.5593L113.358 44.9464L109.965 42.7659L99.9708 49.1709ZM100.025 1.2478V5.61095L133.835 27.3342V22.9732L100.025 1.2478ZM100.025 31.8906V27.5002L86.6104 36.113L90.0333 38.2935L100.025 31.8906Z" fill="#4282B8"/>
</g>
<mask id="mask1_30_1271" style="mask-type:luminance" maskUnits="userSpaceOnUse" x="66" y="9" width="68" height="63">
<path d="M66.1604 9.80603H133.76V71.0875H66.1604V9.80603Z" fill="white"/>
</mask>
<g mask="url(#mask1_30_1271)">
<path d="M99.9708 71.0602V66.6718L66.1604 44.9464V49.3348L99.9708 71.0602ZM99.9708 62.3108L120.175 49.3096L116.779 47.127L99.9708 57.9477V62.3108ZM100.025 9.9993V14.3876L133.835 36.113V31.7226L100.025 9.9993ZM100.025 18.7487L79.7958 31.752L83.2167 33.9325L100.025 23.1118V18.7487Z" fill="black"/>
<path d="M99.9708 62.3108V57.9203L66.1604 36.1971V40.5854L99.9708 62.3108ZM99.9708 71.0602L127.019 53.6979L123.598 51.488L99.9708 66.6991V71.0602ZM100.025 18.7487V23.1391L133.835 44.8645V40.4762L100.025 18.7487ZM100.025 9.9993L72.9771 27.3636L76.3729 29.5715L100.025 14.3603V9.9993Z" fill="#4A4C4E"/>
</g>
<mask id="mask2_30_1271" style="mask-type:luminance" maskUnits="userSpaceOnUse" x="66" y="1" width="68" height="79">
<path d="M66.1604 1.2478H133.76V79.8117H66.1604V1.2478Z" fill="white"/>
</mask>
<g mask="url(#mask2_30_1271)">
<path d="M99.9708 53.5593V49.1709L66.1604 27.4456V31.8339L99.9708 53.5593ZM99.9708 79.8117L133.835 58.059L130.415 55.8785L99.9708 75.4506V79.8117ZM100.025 27.5002V31.8906L133.835 53.6139V49.2256L100.025 27.5002ZM100.025 1.2478L66.1604 23.0005L69.5563 25.181L100.025 5.61095V1.2478Z" fill="#B1C6DC"/>
</g>
<path d="M33.6699 99.7596V98.7576H42.1595V99.7596H33.6699ZM42.1595 96.1002V97.0581H33.6699V96.1002H42.1595ZM44.774 94.2495H31.099V104.837H33.6699V101.438H42.1595V102.287C42.1595 102.614 42.0511 102.701 41.6636 102.724C41.3386 102.745 39.9345 102.745 38.8761 102.68C39.2011 103.268 39.5449 104.116 39.6761 104.749C41.4032 104.749 42.699 104.728 43.5865 104.423C44.472 104.095 44.774 103.551 44.774 102.331V94.2495ZM39.1345 91.3526V90.3275H45.3782V88.4978H39.1345V87.5168H46.3303V85.5799H39.1345V84.4687H36.522V85.5799H29.6511V87.5168H36.522V88.4978H30.4511V90.3275H36.522V91.3526H28.3324V93.2895H47.4324V91.3526H39.1345Z" fill="#4379A6"/>
<path d="M61.4315 94.5331C60.6752 94.7074 59.919 94.8587 59.1627 95.033V91.1783H61.3669V88.7163H59.1627V84.4897H56.6773V88.7163H55.6835C55.8356 87.8003 55.9648 86.8865 56.0731 85.9706L53.9127 85.6009C53.6752 88.1491 53.221 90.8296 52.4231 92.55C52.919 92.8336 53.869 93.4428 54.2585 93.7705C54.6044 93.029 54.9065 92.1572 55.1648 91.1783H56.6773V95.5561C55.1231 95.8838 53.6752 96.1653 52.5294 96.3628L53.1356 98.9109C54.194 98.6714 55.4044 98.3878 56.6773 98.1043V104.837H59.1627V97.4951C60.0273 97.2997 60.8481 97.0812 61.6898 96.8627L61.4315 94.5331ZM68.171 101.438V93.4638H72.2773V90.9598H68.171V84.4897H65.5794V90.9598H61.5606V93.4638H65.5794V101.438H60.6106V104.007H72.8377V101.438H68.171Z" fill="black"/>
<path d="M84.7411 89.7834C86.014 90.8716 87.6995 92.3967 88.4349 93.3777L90.3786 91.7433C89.537 90.7854 87.8515 89.3254 86.5557 88.3444L84.7411 89.7834ZM83.3786 93.7474C83.3786 93.4869 83.3786 93.2243 83.3786 92.9849V87.7793H92.0432V93.7474H83.3786ZM97.314 93.7474H94.6349V85.3824H80.787V93.7474H77.8474V96.2304H80.614C80.312 98.6483 79.512 101.154 77.3724 103.005C77.9349 103.354 78.9286 104.291 79.3182 104.814C81.8661 102.614 82.8599 99.3037 83.2057 96.2304H92.0432V101.764C92.0432 102.222 91.8703 102.375 91.3932 102.396C90.8974 102.396 89.212 102.417 87.764 102.31C88.1328 103.005 88.5432 104.116 88.6495 104.837C90.8765 104.837 92.3661 104.814 93.3161 104.4C94.289 103.986 94.6349 103.289 94.6349 101.808V96.2304H97.314V93.7474Z" fill="black"/>
<path d="M113.817 100.697V89.4347H121.076V86.7332H103.815V89.4347H110.88V100.697H102.649V103.312H122.286V100.697H113.817Z" fill="black"/>
<path d="M141.967 96.6023C142.052 95.97 142.117 95.3166 142.181 94.6633H139.61C139.569 95.3377 139.502 95.97 139.396 96.6023H136.242V98.7576H138.854C138.185 100.457 136.931 101.852 134.34 102.81C134.879 103.289 135.55 104.205 135.831 104.814C139.244 103.463 140.777 101.35 141.513 98.7576H144.019C143.781 100.785 143.5 101.722 143.198 102.003C142.981 102.201 142.808 102.245 142.506 102.245C142.16 102.245 141.425 102.222 140.648 102.135C141.038 102.789 141.319 103.812 141.34 104.53C142.333 104.574 143.219 104.553 143.758 104.488C144.406 104.4 144.86 104.226 145.335 103.726C145.963 103.028 146.352 101.35 146.698 97.5812C146.74 97.2766 146.783 96.6023 146.783 96.6023H141.967ZM142.917 88.8024C142.55 89.4998 142.073 90.1321 141.49 90.6552C140.777 90.109 140.173 89.4788 139.698 88.8024H142.917ZM147.021 88.8024V86.6471H140.648C140.95 86.145 141.21 85.645 141.448 85.122L139.05 84.4687C138.206 86.4727 136.608 88.4327 134.923 89.6532C135.527 90.0019 136.521 90.6972 137.019 91.1111C137.342 90.8296 137.667 90.5229 137.992 90.1762C138.444 90.8296 138.963 91.4388 139.525 91.9828C138.748 92.3967 137.84 92.7244 136.89 92.9849L136.975 92.4849L135.421 91.9618L135.075 92.0711H134.038L135.096 90.9598C134.685 90.6552 134.146 90.3275 133.519 90.0019C134.729 88.9557 135.938 87.626 136.673 86.4076L135.031 85.3615L134.642 85.4476H127.665V87.626H132.85C132.438 88.105 131.963 88.586 131.488 88.9999C130.904 88.7373 130.3 88.4978 129.781 88.3024L128.16 89.9578C129.5 90.5019 131.121 91.3295 132.331 92.0711H127.383V94.3356H130.083C129.327 96.0561 128.204 97.7556 127.017 98.8227C127.404 99.5201 127.967 100.587 128.183 101.329C129.219 100.371 130.127 98.9109 130.883 97.2997V101.961C130.883 102.222 130.796 102.266 130.538 102.287C130.256 102.287 129.392 102.287 128.594 102.266C128.917 102.963 129.263 104.007 129.327 104.728C130.667 104.728 131.64 104.684 132.373 104.27C133.129 103.877 133.302 103.18 133.302 102.003V94.3356H134.448C134.254 95.4469 133.994 96.5371 133.756 97.3417L135.485 98.1484C135.873 97.1674 136.242 95.8607 136.544 94.51C136.802 94.8587 137.019 95.1864 137.148 95.4259C138.79 94.9679 140.281 94.3797 141.556 93.5962C142.852 94.4007 144.321 95.0541 145.963 95.4679C146.308 94.8146 147.021 93.7915 147.583 93.2685C146.135 92.9849 144.796 92.55 143.608 91.9828C144.494 91.09 145.206 90.0439 145.769 88.8024H147.021Z" fill="black"/>
<path d="M167.781 101.743H160.112V98.7807H167.781V101.743ZM164.951 89.7834H162.337V96.493H157.606V104.814H160.112V104.007H167.781V104.793H170.416V96.493H164.951V94.1192H171.691V91.8316H164.951V89.7834ZM164.108 86.9958V84.4897H161.431V86.9958H153.739V92.4849C153.739 95.6212 153.587 100.197 151.816 103.312C152.42 103.593 153.566 104.335 154.041 104.77C155.985 101.373 156.31 95.991 156.31 92.4849V89.4557H171.972V86.9958H164.108Z" fill="black"/>
<path d="M77.2083 116.614L78.4083 116.626L78.3958 117.836L77.1958 117.824M79.6083 116.641L80.8083 116.654L80.7958 117.864L79.5958 117.851M82.0083 116.668L83.2083 116.681L83.1958 117.891L81.9958 117.878M84.4083 116.696L85.6083 116.708L85.5958 117.918L84.3958 117.906M86.8083 116.723L88.0083 116.736L87.9958 117.946L86.7958 117.933M89.2083 116.75L90.4083 116.763L90.3958 117.973L89.1958 117.96M91.6083 116.778L92.8083 116.79L92.7938 118L91.5938 117.988M94.0083 116.805L95.2083 116.818L95.1938 118.028L93.9938 118.015M96.4083 116.832L97.6083 116.845L97.5938 118.055L96.3938 118.042M98.8083 116.86L100.008 116.872L99.9938 118.082L98.7938 118.07M101.208 116.887L102.408 116.899L102.394 118.109L101.194 118.097M103.608 116.914L104.808 116.929L104.794 118.137L103.594 118.124M106.008 116.941L107.208 116.956L107.194 118.166L105.994 118.151M108.406 116.969L109.606 116.983L109.594 118.193L108.394 118.179M110.806 116.996L112.006 117.011L111.994 118.221L110.794 118.206M113.206 117.023L114.406 117.038L114.394 118.248L113.194 118.233M115.606 117.051L116.806 117.065L116.794 118.275L115.594 118.261M118.006 117.078L119.206 117.093L119.194 118.303L117.994 118.288M120.406 117.105L121.606 117.12L121.594 118.33L120.394 118.315" fill="#4282B8"/>
</svg>
