<svg width="124" height="172" viewBox="0 0 124 172" fill="none" xmlns="http://www.w3.org/2000/svg">
<g clip-path="url(#clip0_53_248)">
<path d="M46.8258 165.022L3.65796 139.982L64.7079 104.569L107.876 129.609L46.8258 165.022Z" fill="black"/>
<path d="M46.6203 165.142L3.4524 140.101C3.33879 140.035 3.33877 139.929 3.4524 139.863L64.5023 104.45C64.6159 104.384 64.7998 104.384 64.9134 104.45L108.081 129.49C108.195 129.556 108.195 129.663 108.081 129.729L47.0314 165.142C46.9178 165.207 46.7339 165.207 46.6203 165.142ZM4.06908 139.982L46.8258 164.784L107.465 129.609L64.7079 104.808L4.06908 139.982Z" fill="black"/>
<path d="M62.6486 164.06L19.4808 139.02L80.5307 103.607L123.699 128.648L62.6486 164.06Z" fill="#EFEFEF"/>
<path d="M62.4431 164.18L19.2752 139.139C19.1616 139.074 19.1616 138.967 19.2752 138.901L80.3251 103.488C80.4387 103.422 80.6226 103.422 80.7362 103.488L123.904 128.528C124.018 128.594 124.018 128.701 123.904 128.767L62.8542 164.18C62.7406 164.245 62.5567 164.245 62.4431 164.18ZM19.8919 139.02L62.6486 163.822L123.287 128.647L80.5307 103.846L19.8919 139.02Z" fill="#EFEFEF"/>
<path d="M107.734 132.328L74.1863 112.868C73.8003 112.644 73.8003 112.281 74.1863 112.057C74.5722 111.833 75.1981 111.833 75.5841 112.057L109.132 131.517C109.518 131.741 109.518 132.104 109.132 132.328C108.746 132.551 108.12 132.551 107.734 132.328Z" fill="#DFDFDF"/>
<path d="M103.191 134.963L69.6435 115.503C69.2575 115.279 69.2575 114.916 69.6435 114.692C70.0294 114.468 70.6553 114.468 71.0413 114.692L104.589 134.152C104.975 134.376 104.975 134.739 104.589 134.963C104.203 135.187 103.577 135.187 103.191 134.963Z" fill="#DFDFDF"/>
<path d="M98.6484 137.598L65.1008 118.138C64.7148 117.914 64.7148 117.551 65.1007 117.327C65.4867 117.103 66.1126 117.103 66.4986 117.327L100.046 136.787C100.432 137.011 100.432 137.374 100.046 137.598C99.6602 137.822 99.0344 137.822 98.6484 137.598Z" fill="#DFDFDF"/>
<path d="M94.1262 140.221L60.5786 120.761C60.1926 120.537 60.1926 120.174 60.5785 119.95C60.9645 119.727 61.5903 119.727 61.9763 119.95L95.5239 139.41C95.9099 139.634 95.9099 139.997 95.524 140.221C95.138 140.445 94.5121 140.445 94.1262 140.221Z" fill="#DFDFDF"/>
<path d="M89.6039 142.844L56.0563 123.384C55.6704 123.161 55.6703 122.798 56.0563 122.574C56.4423 122.35 57.0681 122.35 57.4541 122.574L91.0017 142.033C91.3877 142.257 91.3877 142.62 91.0017 142.844C90.6158 143.068 89.9899 143.068 89.6039 142.844Z" fill="#DFDFDF"/>
<path d="M85.0817 145.467L51.5341 126.008C51.1481 125.784 51.1481 125.421 51.5341 125.197C51.9201 124.973 52.5459 124.973 52.9319 125.197L86.4795 144.657C86.8655 144.88 86.8655 145.244 86.4795 145.467C86.0936 145.691 85.4677 145.691 85.0817 145.467Z" fill="#DFDFDF"/>
<path d="M80.5595 148.091L47.0119 128.631C46.6259 128.407 46.6259 128.044 47.0119 127.82C47.3978 127.596 48.0237 127.596 48.4097 127.82L81.9573 147.28C82.3433 147.504 82.3433 147.867 81.9573 148.091C81.5714 148.314 80.9455 148.314 80.5595 148.091Z" fill="#DFDFDF"/>
<path d="M67.8751 149.942C67.7633 149.877 67.6868 149.791 67.6673 149.693C67.5362 149.039 66.9159 147.214 65.6371 146.623C65.0656 146.359 64.0549 146.151 63.0777 145.95C61.1544 145.556 58.9761 145.108 59.3266 143.97C59.5914 143.108 59.2338 142.219 54.8564 141.551C54.468 141.492 54.2364 141.261 54.3385 141.036C54.4405 140.811 54.8381 140.676 55.2262 140.736C59.5092 141.389 61.2663 142.464 60.7575 144.118C60.633 144.522 61.8423 144.802 63.5627 145.156C64.6527 145.379 65.78 145.611 66.5425 145.963C68.5194 146.876 69.0564 149.321 69.111 149.596C69.1572 149.828 68.8711 150.037 68.4727 150.063C68.2432 150.079 68.0267 150.03 67.8751 149.942Z" fill="#4A4C56"/>
<path d="M54.405 150.932C53.0464 150.144 52.7083 149.412 52.4086 148.764C52.1878 148.286 51.9973 147.873 51.3942 147.493C49.9101 146.558 47.1857 145.975 47.1584 145.969C46.7806 145.889 46.5858 145.648 46.7221 145.429C46.8586 145.21 47.2746 145.097 47.6522 145.176C47.7768 145.202 50.7255 145.827 52.4641 146.922C53.3087 147.455 53.5648 148.009 53.8126 148.545C54.1012 149.17 54.3749 149.76 55.5892 150.424C56.6382 150.997 57.715 151.23 58.855 151.476C60.2004 151.766 61.5911 152.067 62.8235 152.929C63.0797 153.108 63.0367 153.374 62.7276 153.522C62.4188 153.671 61.9636 153.645 61.7042 153.466C60.7204 152.777 59.6209 152.54 58.3484 152.266C57.1801 152.014 55.856 151.728 54.5923 151.038C54.5281 151.003 54.4654 150.967 54.405 150.932Z" fill="#4A4C56"/>
<path opacity="0.8" d="M68.0477 150.78C66.7553 150.031 66.7553 148.811 68.0477 148.061C69.34 147.311 71.443 147.311 72.7354 148.061C74.0278 148.811 74.0278 150.031 72.7354 150.78C71.4431 151.53 69.3401 151.53 68.0477 150.78ZM71.7076 148.657C70.9819 148.236 69.8011 148.236 69.0755 148.657C68.3498 149.078 68.3498 149.763 69.0755 150.184C69.8012 150.605 70.982 150.605 71.7076 150.184C72.4333 149.763 72.4333 149.078 71.7076 148.657Z" fill="#C1272D"/>
<path opacity="0.8" d="M60.7483 155.014C59.4559 154.265 59.4559 153.045 60.7482 152.295C62.0406 151.545 64.1435 151.546 65.4359 152.295C66.7283 153.045 66.7283 154.265 65.436 155.014C64.1437 155.764 62.0407 155.764 60.7483 155.014ZM64.4082 152.891C63.6825 152.47 62.5017 152.47 61.776 152.891C61.0504 153.312 61.0504 153.997 61.7761 154.418C62.5018 154.839 63.6825 154.839 64.4082 154.418C65.1338 153.997 65.1338 153.312 64.4082 152.891Z" fill="#C1272D"/>
<path opacity="0.1" d="M119.186 141.828C118.696 140.341 117.038 139.235 115.483 139.358C114.764 139.415 114.204 139.732 113.846 140.195L113.839 140.189L103.97 151.945L103.976 151.949C103.572 152.487 103.442 153.219 103.702 154.01C104.193 155.497 105.851 156.603 107.406 156.48C108.208 156.416 108.821 156.035 109.164 155.479L109.167 155.481L118.853 143.981L118.841 143.973C119.3 143.429 119.461 142.662 119.186 141.828Z" fill="black"/>
<path d="M118.99 142.957C119.742 141.818 119.18 140.113 117.733 139.148C116.287 138.184 114.504 138.325 113.752 139.464C112.999 140.603 113.562 142.308 115.008 143.273C116.454 144.238 118.237 144.096 118.99 142.957Z" fill="#545456"/>
<path d="M113.839 139.349L103.97 151.105L109.167 154.64L118.853 143.14L113.839 139.349Z" fill="#545456"/>
<path d="M109.136 154.693C109.889 153.554 109.326 151.849 107.88 150.884C106.434 149.919 104.651 150.061 103.899 151.2C103.146 152.339 103.708 154.044 105.155 155.009C106.601 155.973 108.384 155.832 109.136 154.693Z" fill="#BF272D"/>
<path opacity="0.05" d="M0.684172 169.143L54.2079 154.212C54.697 154.076 55.2035 154.364 55.3393 154.855L55.6278 155.899C55.7636 156.391 55.4772 156.9 54.9881 157.036L1.46442 171.966C0.975335 172.103 0.468776 171.815 0.332986 171.323L0.0444732 170.279C-0.0913167 169.788 0.195087 169.279 0.684172 169.143Z" fill="black"/>
<path d="M51.516 154.423L55.2967 153.369L51.898 152.369C51.1617 153.452 49.7821 154.518 48.2964 155.582C50.034 155.677 51.683 155.884 53.0309 156.469L55.4303 153.852L51.6495 154.906L51.516 154.423Z" fill="#D3C2A8"/>
<path d="M55.2968 153.369L51.516 154.423L51.6495 154.906L55.4303 153.852L55.7508 153.502L55.2968 153.369Z" fill="#4A4C56"/>
<path d="M51.5026 155.272C51.8242 155.272 52.0849 155.01 52.0849 154.687C52.0849 154.364 51.8242 154.102 51.5026 154.102C51.181 154.102 50.9203 154.364 50.9203 154.687C50.9203 155.01 51.181 155.272 51.5026 155.272Z" fill="#4A4C56"/>
<path d="M0.78104 166.86C-0.581939 167.24 0.431764 170.909 1.79474 170.528C1.79474 170.528 2.53178 170.35 3.79082 170.043L2.74036 166.242C1.50431 166.632 0.78104 166.86 0.78104 166.86Z" fill="#545456"/>
<path d="M35.2655 162.18C35.6954 162.06 36.1343 161.933 36.5785 161.8L35.0647 156.322C34.6161 156.439 34.1748 156.557 33.745 156.677C28.6447 158.1 10.4339 163.818 3.49402 166.004L4.55845 169.856C11.6268 168.135 30.1653 163.602 35.2655 162.18Z" fill="#545456"/>
<path d="M49.3372 157.328C49.6395 157.209 49.8024 156.881 49.7157 156.567L49.3613 155.284L49.0069 154.002C48.9201 153.688 48.6119 153.491 48.2923 153.546C46.5679 153.845 41.1738 154.809 36.2899 156.012L37.7874 161.431C42.5895 159.932 47.7065 157.965 49.3372 157.328Z" fill="#545456"/>
<path d="M37.7875 161.431L36.29 156.012C35.877 156.114 35.4679 156.217 35.0648 156.322L36.5786 161.8C36.9778 161.681 37.3814 161.558 37.7875 161.431Z" fill="#C6AD91"/>
<path d="M3.79084 170.043C4.02859 169.985 4.28491 169.923 4.55847 169.856L3.49404 166.004C3.22543 166.089 2.97379 166.168 2.74036 166.242L3.79084 170.043Z" fill="#C6AD91"/>
<path d="M3.88233 169.781C3.88233 169.781 3.78046 170.599 4.69764 170.36C5.61482 170.121 14.7595 168.229 15.0215 167.991C15.2835 167.754 15.309 167.253 14.8357 166.726C14.3547 166.191 3.88233 169.781 3.88233 169.781Z" fill="#C6AD91"/>
<path d="M67.9131 17.0658C66.3132 18.8988 63.9037 34.8973 66.3075 34.8963C68.3561 34.8954 71.2604 24.8691 72.2171 18.6232C73.1983 12.2176 69.3576 15.4108 67.9131 17.0658Z" fill="#1F385C"/>
<path d="M66.6106 33.9292C68.0029 36.0664 57.3363 49.2855 56.2385 48.4016C55.2552 47.61 61.6122 36.3274 64.201 34.2442C66.7897 32.1611 66.6106 33.9292 66.6106 33.9292Z" fill="#FFD0D2"/>
<path d="M55.4711 46.672C56.0507 46.0542 57.3238 45.422 58.4841 46.1257C59.6889 46.8564 58.7954 48.9362 58.5095 49.3193C56.5657 51.9248 55.4405 51.4622 54.4076 50.9578C53.3746 50.4535 54.2647 47.958 55.4711 46.672Z" fill="#FFD0D2"/>
<path d="M68.2876 32.1951C68.2876 32.1951 67.5389 30.5089 66.0157 30.8366C64.4924 31.1643 57.6387 41.6011 58.5817 41.6803C60.89 41.8743 61.2303 44.2717 61.9608 43.7892C62.6914 43.3067 68.4675 34.3612 68.2876 32.1951Z" fill="#1F385C"/>
<path opacity="0.1" d="M70.1472 19.8269C70.1472 19.8269 67.7513 21.1732 67.8458 23.5205C67.9403 25.8678 67.9487 30.0306 69.0523 30.8246C70.1558 31.6185 70.1472 19.8269 70.1472 19.8269Z" fill="black"/>
<path opacity="0.05" d="M86.3814 119.95C87.3533 117.656 83.5415 113.829 77.8674 111.403C72.1934 108.977 66.8057 108.871 65.8338 111.165C64.8619 113.46 68.6737 117.287 74.3478 119.713C80.0218 122.139 85.4095 122.245 86.3814 119.95Z" fill="#1A1A1A"/>
<path d="M69.3691 113.058C68.6895 113.566 66.3948 115.58 67.1003 116.374C67.8058 117.169 70.7188 116.596 72.3293 115.969C73.9398 115.343 75.3921 110.838 75.3921 110.838C75.3921 110.838 75.2404 112.802 75.516 112.992C75.7915 113.182 76.0081 112.767 76.0081 112.55C76.0081 112.332 75.9545 110.215 76.0598 109.951C76.1651 109.686 76.107 108.673 75.7877 108.372C75.4684 108.071 75.0394 107.611 74.0619 107.625C73.0844 107.64 70.8997 111.913 69.3691 113.058Z" fill="#3B435A"/>
<path d="M75.3543 100.663C76.636 102.643 74.2723 106.364 75.574 108.137C76.0055 108.724 74.6174 111.625 73.7656 112.634C73.2108 113.291 71.2812 114.961 70.0608 113.933C69.2801 113.275 71.9504 108.971 72.7455 108.277C73.2535 107.833 72.3745 101.935 72.1425 101.369C71.9105 100.802 74.8005 99.808 75.3543 100.663Z" fill="#FFD0D2"/>
<path d="M77.8943 75.1496C77.8943 75.1496 76.1602 87.9044 76.2748 101.642C76.2813 102.421 74.2239 103.318 73.3901 103.356C72.3704 103.403 70.5727 102.473 70.6522 101.027C71.1079 92.7316 68.8136 84.5964 68.6285 73.1623C68.5379 67.5659 77.8943 75.1496 77.8943 75.1496Z" fill="#2E405A"/>
<path d="M69.0306 47.4974C68.5501 67.2978 68.3728 75.9844 69.243 81.6887C69.4262 82.8901 72.6967 84.4732 73.7213 84.1123C80.0933 81.8678 78.1806 60.9954 79.1663 52.605C80.1368 44.3444 69.1565 42.3089 69.0306 47.4974Z" fill="#2E405A"/>
<path opacity="0.1" d="M76.3167 54.6016C72.543 54.598 75.005 80.2862 76.9791 92.3282L76.3167 54.6016Z" fill="#1A1A1A"/>
<path d="M76.4162 116.966C75.7366 117.474 73.4418 119.488 74.1473 120.283C74.8529 121.077 77.7658 120.504 79.3763 119.878C80.9869 119.251 82.4392 114.746 82.4392 114.746C82.4392 114.746 82.2874 116.71 82.563 116.901C82.8386 117.091 83.0551 116.675 83.0551 116.458C83.0551 116.24 83.0016 114.124 83.1069 113.859C83.2122 113.594 83.1541 112.581 82.8348 112.28C82.5155 111.98 82.0864 111.52 81.109 111.534C80.1315 111.548 77.9468 115.821 76.4162 116.966Z" fill="#3B435A"/>
<path d="M82.4014 104.572C83.6832 106.552 81.3194 110.272 82.6211 112.045C83.0526 112.633 81.6645 115.533 80.8127 116.542C80.2579 117.199 78.3284 118.869 77.108 117.841C76.3272 117.183 78.9975 112.879 79.7926 112.185C80.3006 111.742 79.4216 105.843 79.1896 105.277C78.9576 104.711 81.8476 103.716 82.4014 104.572Z" fill="#FFD0D2"/>
<path d="M85.2263 79.4218C85.0335 87.2305 83.9162 92.0841 84.0308 105.822C84.0373 106.6 81.9799 107.498 81.146 107.536C80.1264 107.582 78.3287 106.653 78.4081 105.207C78.8639 96.9113 76.2144 87.1397 76.3132 80.0724C76.3915 74.4758 85.3592 74.0375 85.2263 79.4218Z" fill="#2E405A"/>
<path d="M75.3561 52.3547C75.1553 67.5443 76.1805 77.9861 76.6432 84.3967C76.7694 86.1459 84.8518 87.2305 85.2263 79.0393C85.387 75.5265 84.7544 65.2256 85.9812 56.8674C87.6514 45.4892 75.4247 47.1651 75.3561 52.3547Z" fill="#2E405A"/>
<path d="M69.0306 47.4974C69.0306 47.4974 69.5198 39.9798 70.0527 39.3478C70.5455 38.7633 70.131 36.4119 70.5635 36.4127C70.7911 36.4132 74.36 40.3497 79.7209 40.2346C82.7758 40.169 84.4569 39.5808 84.5732 39.6977C84.6896 39.8145 85.0385 41.6844 85.0385 41.6844C86.049 41.9551 88.0527 54.1142 85.1697 57.2788C82.3538 60.3696 69.0306 47.4974 69.0306 47.4974Z" fill="#2E405A"/>
<path d="M85.2211 25.1124C85.3057 23.52 85.2567 22.2262 84.9215 20.9849C84.6549 19.9981 84.1858 18.9602 83.3712 17.999C81.5906 15.8976 79.7837 14.9044 75.4707 14.3007C74.7399 14.1984 73.008 13.8478 71.5007 15.2653C69.4688 17.1763 68.7345 22.2363 68.7345 26.0582C68.7345 29.8802 72.3755 31.2298 70.172 39.1515C68.469 45.274 72.6332 48.1142 80.0868 47.6451C83.3148 47.442 82.0968 45.6052 83.8121 45.6421C85.5274 45.6788 84.0064 41.1612 83.6587 39.5135C83.5951 39.2119 83.5429 38.8681 83.5083 38.4714C83.4488 37.7902 83.4412 36.9522 83.5178 35.8981C83.683 33.6238 85.1835 25.8211 85.2211 25.1124Z" fill="black"/>
<path d="M78.8319 14.5865C78.8319 14.5865 76.8285 13.9978 74.4747 13.9547L74.3002 14.3925L78.909 15.2653L78.8319 14.5865Z" fill="#545456"/>
<path d="M74.3634 14.3342C74.0173 14.4393 73.0907 14.7265 72.9461 15.5547C72.8015 16.3829 72.4479 20.0791 74.2043 20.6086C76.9516 21.4369 77.7728 18.9653 78.6679 17.6159C79.9396 15.6986 78.9607 15.1216 78.0192 14.5331C77.0777 13.9445 74.6722 14.2404 74.3634 14.3342Z" fill="#FFC5C8"/>
<path d="M71.6065 34.5288C71.5988 33.9769 71.5591 33.4298 71.4963 32.8849C70.8967 21.2118 74.4748 13.9548 74.4748 13.9548L73.8596 13.8588L73.5363 14.0515C72.6755 14.1477 71.6381 14.6356 70.8346 15.1564C70.8346 15.1564 68.2228 21.3694 68.1377 24.6951C68.0636 27.5866 69.6047 31.8451 69.6787 34.0608C69.6907 34.4197 69.6494 34.9887 69.572 35.6944C69.519 35.6818 69.4759 35.6818 69.4474 35.6989C69.2277 35.8314 68.7447 37.1777 68.8983 37.4155C68.9433 37.4851 69.0992 37.6368 69.2979 37.8089C68.7479 41.6445 67.7981 46.8722 67.7854 47.7985C67.7671 49.1279 68.8329 50.162 69.6787 50.1112C70.5246 50.0605 71.4405 38.594 71.5968 35.297C71.6087 35.0449 71.6101 34.7947 71.6069 34.545C71.6079 34.5511 71.6086 34.5552 71.6086 34.5552C71.6078 34.5463 71.6072 34.5377 71.6065 34.5288Z" fill="#1F385C"/>
<path opacity="0.05" d="M70.5901 38.5806C70.9204 37.7701 71.1142 36.9988 70.9237 36.7114C70.7333 36.424 69.6672 35.5664 69.4474 35.6989C69.2277 35.8313 68.7447 37.1776 68.8983 37.4155C69.0519 37.6533 70.4842 38.8403 70.5901 38.5806Z" fill="white"/>
<path opacity="0.05" d="M74.4748 13.9547C74.4748 13.9547 70.5528 21.9077 71.6086 34.5552C71.6086 34.5552 69.0636 18.8226 70.2106 17.1351L71.8639 16.6661L70.9753 15.5786L73.8596 13.8586L74.4748 13.9547Z" fill="white"/>
<path d="M74.663 12.6725C74.4081 13.8384 73.7725 15.1531 74.663 15.5598C75.5535 15.9665 77.6237 15.7533 78.3314 15.2653C79.0391 14.7773 78.5499 12.3065 78.2862 12.0625C78.0225 11.8185 74.663 12.6725 74.663 12.6725Z" fill="#FFC5C8"/>
<path d="M73.8586 5.72046C73.7481 6.60022 72.0474 8.07284 71.5833 8.49449C70.1401 9.80597 69.9494 11.3688 72.1348 11.3395C72.1348 11.3395 68.3722 11.7975 70.8643 8.38817C73.3564 4.9788 71.5106 3.79565 71.5106 3.79565L73.8586 5.72046Z" fill="#3B435A"/>
<path d="M81.3012 6.42446C81.3012 6.42446 84.9351 10.2299 83.309 12.1434C81.6829 14.0569 79.8605 11.7689 79.8605 11.7689L81.3012 6.42446Z" fill="#3B435A"/>
<path d="M71.2657 5.45067C70.3865 9.16392 71.2377 13.1606 74.2733 14.0559C77.9184 15.131 82.1135 12.2509 82.9927 8.53762C83.8719 4.82437 82.3046 2.00198 78.6087 1.11864C74.9129 0.235294 72.1449 1.73742 71.2657 5.45067Z" fill="#FFD0D2"/>
<path d="M70.8797 7.67454C70.8714 7.99402 71.4638 5.2796 71.8901 4.92089C72.0715 5.77644 73.1655 6.14509 74.0076 7.03296C75.8544 8.98004 79.7537 9.20954 80.0822 8.82227C80.0822 8.82227 81.0877 6.60285 81.7694 7.17333C82.3659 7.6725 81.922 10.5237 81.5553 10.7418C81.1886 10.9599 81.1752 10.6739 81.0847 10.8288C80.2761 12.2119 80.5768 12.4083 80.5768 12.4083C80.5768 12.4083 82.6756 11.3335 83.6921 6.95721C85.3314 -0.100858 71.201 -4.59602 70.8797 7.67454Z" fill="#3B435A"/>
<path d="M72.0348 5.2843C72.0348 5.2843 74.2033 9.15394 77.2093 9.33395C77.2093 9.33395 75.1246 8.51753 74.7009 6.74181C74.5307 6.02852 72.0348 5.2843 72.0348 5.2843Z" fill="#3B435A"/>
<path d="M77.2092 7.67623C77.2131 8.56295 78.7241 10.2314 79.134 10.7063C80.4088 12.1835 80.41 13.758 78.2441 13.4635C78.2441 13.4635 81.924 14.3752 79.8605 10.6881C77.797 7.00102 79.7716 6.05078 79.7716 6.05078L77.2092 7.67623Z" fill="#3B435A"/>
<path d="M86.2594 43.8849C85.5551 41.2668 84.6937 38.095 84.756 35.7026C84.8204 33.2301 85.2413 27.5707 85.3494 23.5207C85.4127 21.1496 85.3689 19.3297 85.0834 19.025C83.5649 17.404 81.0297 15.5633 80.2078 15.3629L80.2078 15.3627L78.8319 14.5868C78.8319 14.5868 74.4025 32.1513 75.1062 35.6991C75.1062 35.6991 75.1065 35.6984 75.1065 35.6983C75.0344 36.3448 74.9979 36.8918 75.0062 37.3066C75.09 41.5305 75.7324 52.6744 77.2767 53.6339C78.8209 54.5934 87.2364 50.1113 87.1346 47.8749C87.095 47.0033 86.7092 45.5567 86.2594 43.8849Z" fill="#1F385C"/>
<g opacity="0.05">
<path d="M76.046 36.9581C76.3094 37.0515 76.5221 37.3329 76.5214 37.5851C76.5206 37.8374 76.3068 37.966 76.0434 37.8726C75.78 37.7792 75.5674 37.4993 75.5681 37.247C75.5688 36.9949 75.7826 36.8647 76.046 36.9581Z" fill="black"/>
</g>
<path opacity="0.05" d="M77.9955 39.1722C77.8411 39.6477 77.939 40.6128 78.3015 40.6876C78.6641 40.7624 82.734 39.6659 83.167 39.1592C83.6 38.6524 83.0528 37.3812 82.7231 37.4162C82.3933 37.4513 78.1204 38.7878 77.9955 39.1722Z" fill="white"/>
<path opacity="0.1" d="M86.2594 43.8846C85.5551 41.2666 84.6937 38.0948 84.756 35.7024C84.8204 33.2299 85.2413 27.5705 85.3494 23.5205C83.923 25.1684 81.479 28.5075 81.5434 31.9859C81.6264 36.4797 83.186 42.5513 86.2594 43.8846Z" fill="black"/>
<path opacity="0.05" d="M80.208 15.3625L78.8321 14.5865C78.8321 14.5865 74.4027 32.1511 75.1064 35.6989C75.1064 35.6989 81.1937 20.9787 80.8016 19.7969L79.4292 18.2539L80.8198 17.5644L80.208 15.3625Z" fill="white"/>
<path d="M85.9964 21.7426C86.1903 23.8442 79.1184 37.7747 76.2233 39.6144C75.8097 39.8772 74.1492 38.5877 73.9287 38.4569C72.5681 37.6506 76.3436 30.074 79.0268 24.0353C81.7786 17.8421 85.4808 16.1532 85.9964 21.7426Z" fill="#1F385C"/>
<path d="M76.1615 38.701C76.7667 41.194 60.5168 49.1992 59.7592 48.0082C59.0807 46.9415 69.8228 39.1692 73.0674 37.9487C76.3119 36.7282 76.1615 38.701 76.1615 38.701Z" fill="#FFD0D2"/>
<path d="M58.8056 46.2542C59.526 45.8224 60.9123 45.5662 61.8299 46.5546C62.7828 47.581 61.3675 49.3229 60.9911 49.6107C58.4309 51.568 57.4817 50.8193 56.6318 50.056C55.7819 49.2926 57.3062 47.1529 58.8056 46.2542Z" fill="#FFD0D2"/>
<path d="M75.4318 36.9301C75.4318 36.9301 77.0288 37.8438 76.5551 39.3347C76.0813 40.8257 66.5023 47.3354 65.8186 46.6781C65.135 46.0208 63.25 44.181 63.7995 43.4978C64.349 42.8145 73.3038 36.538 75.4318 36.9301Z" fill="#1F385C"/>
<g opacity="0.05">
<path d="M68.5034 44.8116C68.2812 44.6543 67.8981 44.6521 67.6491 44.8055C67.4 44.959 67.3784 45.2106 67.6006 45.3679C67.8228 45.5252 68.2044 45.5284 68.4535 45.3749C68.7025 45.2215 68.7256 44.9689 68.5034 44.8116Z" fill="black"/>
</g>
<g opacity="0.05">
<path d="M66.8434 45.4646C66.6212 45.3073 66.2381 45.305 65.9891 45.4584C65.7401 45.6119 65.7184 45.8635 65.9406 46.0209C66.1629 46.1782 66.5445 46.1813 66.7935 46.0279C67.0425 45.8745 67.0657 45.6219 66.8434 45.4646Z" fill="black"/>
</g>
<path d="M54.4044 50.2566C53.527 50.3862 52.0697 50.074 51.5705 48.7361C51.0521 47.3468 53.1349 46.2192 53.6184 46.0907C56.9062 45.2172 57.5327 46.3338 58.0562 47.4244C58.5797 48.515 56.2305 49.987 54.4044 50.2566Z" fill="#FFD6D6"/>
<path d="M30.859 51.0419C31.2475 48.5057 50.8559 45.6057 51.1032 46.9971C51.1611 47.3228 53.4614 50.112 51.7291 50.9042C46.832 53.1439 34.5573 55.9696 31.9996 55.8829C28.537 55.7656 30.859 51.0419 30.859 51.0419Z" fill="#363E58"/>
<path d="M28.8171 55.2083C28.8171 55.2083 26.693 58.3507 24.0975 50.8311C23.1308 48.0304 18.0464 37.2161 25.4342 35.8825C26.2788 35.73 31.1274 53.1574 28.8171 55.2083Z" fill="#363E58"/>
<path opacity="0.05" d="M46.6425 144.47C47.7887 141.764 43.2936 137.251 36.6024 134.39C29.9112 131.529 23.5578 131.404 22.4117 134.11C21.2655 136.816 25.7606 141.329 32.4518 144.19C39.143 147.05 45.4964 147.176 46.6425 144.47Z" fill="black"/>
<path d="M40.5024 139.113C40.4999 139.115 40.4992 139.119 40.4976 139.121L38.558 139.291L39.9102 139.791C37.4571 143.865 35.2648 140.611 34.9737 140.704C34.6743 140.801 33.8424 143.017 34.5212 144.836C34.6684 145.23 34.6507 145.28 34.8992 145.523C34.912 145.664 34.9392 145.814 34.9935 145.945C35.15 146.323 36.2628 146.923 37.3335 146.923C38.4041 146.923 40.4192 145.145 40.4192 145.145V144.742C41.3683 144.117 42.3158 143.542 42.7394 143.518C43.5724 143.472 47.6454 140.704 47.6454 139.113C47.6454 137.522 42.2955 137.443 40.5024 139.113Z" fill="#4A4C56"/>
<path d="M40.0916 139.768L38.6438 139.294C38.649 139.101 38.6533 138.907 38.6608 138.717C38.715 137.357 39.2904 135.195 38.041 135.165C36.7916 135.136 35.1383 134.377 35.0456 138.256C35.0456 138.256 34.9894 140.676 35.0456 141.027C35.1019 141.377 35.6635 142.087 37.7119 142.087C38.2014 142.087 38.8334 141.806 38.8334 141.806C38.8334 141.806 40.2294 141.284 40.7285 140.353L40.0916 139.768Z" fill="#FFD6D6"/>
<path d="M31.5618 133.403C31.5593 133.405 31.5586 133.408 31.557 133.411L29.6174 133.58L30.9696 134.08C28.5165 138.155 26.3242 134.9 26.0331 134.994C25.7337 135.09 24.9018 137.307 25.5806 139.126C25.7278 139.52 25.7101 139.569 25.9586 139.812C25.9714 139.953 25.9986 140.104 26.0528 140.235C26.2094 140.612 27.3222 141.213 28.3928 141.213C29.4635 141.213 31.4786 139.435 31.4786 139.435V139.032C32.4277 138.407 33.3752 137.831 33.7988 137.808C34.6318 137.762 38.7048 134.994 38.7048 133.403C38.7048 131.811 33.3549 131.733 31.5618 133.403Z" fill="#4A4C56"/>
<path d="M31.151 134.058L29.7031 133.584C29.7084 133.39 29.7127 133.197 29.7202 133.007C29.7744 131.647 30.3498 129.485 29.1004 129.455C27.851 129.426 26.1977 128.667 26.105 132.546C26.105 132.546 26.0488 134.966 26.105 135.316C26.1613 135.667 26.7229 136.377 28.7713 136.377C29.2608 136.377 29.8927 136.095 29.8927 136.095C29.8927 136.095 31.2888 135.574 31.7879 134.643L31.151 134.058Z" fill="#FFD6D6"/>
<path d="M24.8232 67.7605C22.0627 70.5376 22.4552 74.7924 23.5889 78.7889C24.7225 82.7855 35.8504 72.01 35.8504 72.01L24.8232 67.7605Z" fill="#4F5056"/>
<path d="M33.1417 98.8865C33.1417 98.8865 32.3036 117.631 32.4184 131.369C32.4249 132.148 29.4644 134.672 28.629 134.71C27.6075 134.757 24.9072 133.827 24.9868 132.381C25.4434 124.086 23.595 105.245 23.3845 98.0564C23.0226 85.6954 33.1417 98.8865 33.1417 98.8865Z" fill="#3C4358"/>
<path d="M23.2465 72.09C23.1542 91.3815 21.9235 107.587 28.2328 107.962C36.3368 108.444 33.2357 84.3686 34.0823 75.9471C35.2347 64.4826 23.2714 66.8979 23.2465 72.09Z" fill="#3C4358"/>
<path opacity="0.1" d="M32.4356 116.472L29.2941 83.7014C28.6041 83.1961 27.8236 81.9239 27.0175 80.4352C27.0175 80.4352 28.2662 84.3753 29.021 84.7957C29.021 84.7957 28.9792 85.0576 28.9535 85.273C28.2509 91.1736 30.6537 106.249 32.4356 116.472Z" fill="#1A1A1A"/>
<path d="M41.9464 104.101C41.9464 104.101 41.1084 123.592 41.2232 137.329C41.2297 138.108 38.2692 139.887 37.4338 139.925C36.4122 139.971 33.712 139.042 33.7916 137.596C34.2481 129.3 31.9006 113.175 32.0589 105.985C32.1821 100.39 41.9464 104.101 41.9464 104.101Z" fill="#3C4358"/>
<path d="M30.8903 76.7433C30.7979 96.0349 30.7282 112.802 37.0375 113.177C45.1415 113.659 40.8794 89.022 41.726 80.6004C42.8785 69.1359 30.9151 71.5512 30.8903 76.7433Z" fill="#3C4358"/>
<path d="M42.1223 66.2707C41.8678 63.5721 41.1799 59.9141 40.226 56.5431C39.0308 52.3194 41.2655 47.6946 40.8479 43.1187C40.8411 43.0439 40.8355 42.969 40.8272 42.8941C40.3128 38.2451 34.915 37.1505 34.915 37.1505L27.9163 35.3789C27.9163 35.3789 23.8219 35.3922 23.1196 37.9628C22.4172 40.5335 22.4048 48.3063 22.7128 51.5225C23.0208 54.7388 23.0136 69.4729 22.2626 74.702C21.9987 76.5395 31.2981 82.1579 34.1476 81.9327C36.9971 81.7075 42.5413 77.3308 43.3141 76.1459C43.6357 75.6525 42.3038 68.1954 42.1223 66.2707Z" fill="#363E58"/>
<path opacity="0.05" d="M39.6587 67.4766C39.5894 68.03 39.6319 69.1528 39.7934 69.2395C39.9549 69.3261 41.7695 68.0458 41.963 67.4557C42.1564 66.8656 41.9141 65.3871 41.7671 65.4282C41.6201 65.4693 39.7148 67.0292 39.6587 67.4766Z" fill="white"/>
<path opacity="0.1" d="M40.617 44.2466C38.0388 45.465 35.2451 47.7064 35.4043 51.6774C35.612 56.86 38.5248 61.5062 41.7991 65.0797C41.5446 62.381 41.3729 60.2888 40.4543 57.7507C39.0401 53.8433 40.7162 48.874 40.617 44.2466Z" fill="black"/>
<path d="M36.9276 38.0479C36.8398 37.8058 41.2695 39.4295 43.2208 42.7555C44.1725 44.3776 44.1038 50.0677 44.3994 55C44.5384 57.3191 44.6371 59.4412 43.9583 60.7687C43.2794 62.0963 39.8576 64.8322 38.2004 61.1103C36.5431 57.3885 37.1362 47.7914 36.0971 46.5319C36.0971 46.5319 37.0719 38.4454 36.9276 38.0479Z" fill="#363E58"/>
<path d="M56.8799 47.7647C56.1895 48.324 55.4282 49.6109 56.067 50.8875C56.7303 52.2131 58.9684 51.4423 59.3905 51.1729C62.2611 49.3407 61.8705 48.1205 61.4289 46.9939C60.9874 45.8672 58.3167 46.6008 56.8799 47.7647Z" fill="#FFD6D6"/>
<path d="M42.1383 65.312C44.5504 65.8804 55.8608 56.4682 58.7117 52.8017C59.3696 51.9556 55.8252 49.0677 55.666 48.8564C54.9057 47.8468 38.8331 57.3872 38.3249 60.8303C38.1532 61.9936 39.7262 64.7436 42.1383 65.312Z" fill="#363E58"/>
<g opacity="0.05">
<path d="M57.9104 52.9267C57.6564 52.8294 57.2846 52.9223 57.0811 53.1327C56.8775 53.3433 56.9183 53.5925 57.1724 53.6898C57.4264 53.7871 57.7969 53.6954 58.0005 53.4849C58.2041 53.2745 58.1644 53.024 57.9104 52.9267Z" fill="black"/>
</g>
<g opacity="0.05">
<path d="M56.4624 53.9714C56.2083 53.8741 55.8366 53.967 55.633 54.1774C55.4294 54.3879 55.4703 54.6372 55.7243 54.7345C55.9783 54.8318 56.3489 54.7401 56.5525 54.5296C56.756 54.3192 56.7164 54.0687 56.4624 53.9714Z" fill="black"/>
</g>
<path d="M31.6829 37.7352C32.9124 37.737 34.4978 38.0919 35.2313 37.9073C35.2197 37.8345 35.2115 37.7547 35.2078 37.6644C35.1573 36.4029 36.8281 32.5807 34.9839 31.3918C33.1397 30.2029 29.9039 30.1533 29.6318 32.3304C29.3915 34.2538 28.5018 36.329 28.376 36.557C28.881 37.1938 30.164 37.733 31.6829 37.7352Z" fill="#FFCCCC"/>
<path d="M38.8286 23.7228C39.1748 24.2257 38.6683 26.3454 38.9318 27.4282C39.7643 30.8489 39.6007 35.4657 33.8512 35.6474C28.2335 35.8249 27.98 33.0085 27.8021 29.406C27.6242 25.8035 26.1556 24.1488 29.9006 22.0665C33.6457 19.9841 37.3828 21.6223 38.8286 23.7228Z" fill="#FFD2D2"/>
<path d="M39.7531 24.1429C39.9673 20.1991 34.0516 18.6342 31.1814 18.9584C30.0274 19.0888 27.2372 19.911 26.8299 21.5476C22.0767 25.8804 27.4797 34.2438 30.8374 34.6952C32.2896 34.8904 33.9041 34.6185 34.7157 33.74C34.8304 33.6158 35.3338 32.9311 35.1667 32.9538C34.6124 33.029 33.6846 32.4542 33.7838 30.4921C33.9427 27.3525 35.2124 28.8849 35.5132 29.4373C35.814 29.9897 35.9456 31.0897 35.9456 31.0897L36.3273 31.7131L36.8036 29.9146C37.7539 28.7427 38.2384 27.8835 38.5404 26.7211C38.932 25.5571 39.5617 25.211 39.7531 24.1429Z" fill="#3D4356"/>
<path d="M36.2214 37.711L35.5066 36.4522C35.5066 36.4522 32.266 36.4719 30.556 35.6553C28.8459 34.8387 29.378 34.456 29.03 34.5212C28.682 34.5863 27.5052 35.477 27.5052 35.477C27.5052 35.477 27.3703 36.6684 28.9948 37.2854C30.2485 37.7616 33.3762 38.6111 34.7243 38.5663C36.1615 38.5185 36.2214 37.711 36.2214 37.711Z" fill="#363E58"/>
<path opacity="0.05" d="M36.2214 37.711L35.5066 36.4522C35.5066 36.4522 32.266 36.4719 30.556 35.6553C28.8459 34.8387 29.378 34.456 29.03 34.5212C28.682 34.5863 27.5052 35.477 27.5052 35.477C27.5052 35.477 27.3703 36.6684 28.9948 37.2854C30.2485 37.7616 33.3762 38.6111 34.7243 38.5663C36.1615 38.5185 36.2214 37.711 36.2214 37.711Z" fill="white"/>
</g>
<defs>
<clipPath id="clip0_53_248">
<rect width="124" height="172" fill="white"/>
</clipPath>
</defs>
</svg>
