<svg width="161" height="213" viewBox="0 0 161 213" fill="none" xmlns="http://www.w3.org/2000/svg">
<g clip-path="url(#clip0_45_3)">
<path d="M123.093 141.88C122.673 141.88 122.333 141.54 122.333 141.121V104.084C122.333 103.665 122.673 103.325 123.093 103.325C123.513 103.325 123.853 103.665 123.853 104.084V141.121C123.853 141.54 123.513 141.88 123.093 141.88Z" fill="#BBB4B4"/>
<path d="M102.89 131.53C102.877 131.53 102.865 131.53 102.852 131.529C102.432 131.509 102.109 131.153 102.13 130.734L103.784 93.7436C103.804 93.325 104.169 93.0009 104.58 93.0222C105 93.0427 105.323 93.3985 105.303 93.8171L103.648 130.808C103.628 131.214 103.292 131.53 102.89 131.53Z" fill="#BBB4B4"/>
<path d="M144.817 131.53C144.414 131.53 144.078 131.214 144.058 130.808L142.404 93.8172C142.383 93.3986 142.707 93.0428 143.126 93.0223C143.537 92.9998 143.902 93.3248 143.923 93.7437L145.577 130.734C145.597 131.153 145.274 131.509 144.854 131.529C144.842 131.53 144.829 131.53 144.817 131.53Z" fill="#BBB4B4"/>
<path d="M121.268 120.93C120.849 120.93 120.508 120.59 120.508 120.171V83.1338C120.508 82.7145 120.849 82.3748 121.268 82.3748C121.688 82.3748 122.029 82.7145 122.029 83.1338V120.171C122.029 120.59 121.688 120.93 121.268 120.93Z" fill="#BBB4B4"/>
<path d="M143.771 94.0633L124.837 80.5136C123.711 79.8644 121.268 82.204 121.268 80.705C122.388 70.1461 124.088 44.9382 122.798 34.8633C122.798 33.3643 123.711 32.6753 124.837 33.3244L144.46 44.6356C145.587 45.2847 146.499 47.0262 146.499 48.5252C148.174 58.015 147.733 79.3298 146.499 90.2859C146.499 91.7849 144.898 94.7124 143.771 94.0633Z" fill="#BBB4B4"/>
<path d="M119.775 103.944L103.926 94.8083C101.758 93.5583 102.03 91.375 104.534 89.9317L119.167 81.497C121.671 80.0536 125.459 79.8969 127.627 81.1468L143.476 90.2822C145.645 91.5322 145.373 93.7155 142.869 95.1589L128.235 103.594C125.731 105.037 121.944 105.194 119.775 103.944Z" fill="#BBB4B4"/>
<path d="M96.0639 157.934C94.9127 158.79 91.0253 162.18 92.2205 163.517C93.4156 164.855 98.3502 163.89 101.078 162.835C103.807 161.781 106.267 154.197 106.267 154.197C106.267 154.197 106.01 157.504 106.477 157.824C106.944 158.144 107.31 157.445 107.31 157.079C107.31 156.713 107.22 153.15 107.398 152.704C107.576 152.259 107.478 150.553 106.937 150.047C106.396 149.54 105.669 148.766 104.013 148.79C102.358 148.814 98.6567 156.008 96.0639 157.934Z" fill="#3C4358"/>
<path d="M105.595 137.071C107.766 140.404 104.37 146.667 106.575 149.651C107.306 150.64 104.955 155.522 103.512 157.22C102.572 158.326 99.3031 161.138 97.2357 159.407C95.9132 158.3 100.437 151.055 101.784 149.886C102.644 149.14 100.547 139.211 100.154 138.258C99.7608 137.305 104.656 135.631 105.595 137.071Z" fill="#FFD3D4"/>
<path d="M84.2153 152.153C83.0641 153.008 79.1767 156.399 80.3719 157.736C81.567 159.073 86.5016 158.108 89.2298 157.054C91.9581 156 94.4183 148.416 94.4183 148.416C94.4183 148.416 94.1612 151.723 94.6281 152.043C95.0949 152.363 95.4617 151.664 95.4617 151.297C95.4617 150.931 95.371 147.368 95.5494 146.923C95.7278 146.477 95.6293 144.772 95.0884 144.265C94.5476 143.759 93.8207 142.985 92.1649 143.009C90.509 143.033 86.8082 150.226 84.2153 152.153Z" fill="#3C4358"/>
<path d="M93.7461 131.289C95.9174 134.622 92.5214 140.885 94.7265 143.869C95.4574 144.859 93.106 149.741 91.6631 151.439C90.7232 152.545 87.4545 155.357 85.3872 153.626C84.0646 152.518 88.5881 145.274 89.935 144.105C90.7955 143.358 88.6983 133.429 88.3053 132.476C87.9123 131.523 92.8079 129.849 93.7461 131.289Z" fill="#FFD3D4"/>
<path d="M115.965 67.854C117.792 68.7994 130.599 78.0148 127.358 80.9691C124.117 83.9235 101.975 103.44 92.2517 103.145C92.2517 103.145 86.1352 94.9273 85.415 92.8593C84.6948 90.7912 99.9802 75.6015 113.857 74.0943C113.857 74.0943 114.139 66.9086 115.965 67.854Z" fill="#3D4356"/>
<path d="M112.013 29.9308C109.963 33.2678 109.227 59.9494 112.692 60.1468C116.156 60.3442 118.046 46.4184 119.667 35.9046C121.329 25.1218 114.062 26.5939 112.013 29.9308Z" fill="#FFD3D4"/>
<path d="M119.434 25.1317C117.787 25.1224 112.457 26.5631 111.286 29.0118C110.225 31.2316 110.673 31.1489 110.915 31.4451C111.128 31.7069 111.82 35.5879 112.889 36.0337C113.958 36.4795 119.434 25.1317 119.434 25.1317Z" fill="#4282B8"/>
<path d="M139.874 41.8408C139.631 39.1675 139.237 37.0239 138.375 35.037C137.69 33.4576 136.653 31.8422 135.055 30.4379C131.563 27.3682 128.897 24.8276 121.52 24.866C120.27 24.8726 115.033 26.0438 112.848 28.7702C109.902 32.4459 110.461 39.3275 111.383 45.6949C112.306 52.0623 118.666 57.2693 118.635 67.5502C118.602 78.2512 131.864 79.92 137.308 79.3C142.751 78.6801 136.874 73.7151 139.758 73.3613C142.643 73.0072 142.121 67.1434 141.14 64.4826C140.961 63.9955 141.08 62.214 141.14 60.93C141.194 59.78 141.266 56.1061 141.14 54.3316C140.868 50.5025 139.982 43.0307 139.874 41.8408Z" fill="#4282B8"/>
<path opacity="0.05" d="M132.815 43.5972C132.973 54.4806 135.877 58.6284 141.124 60.9648C141.15 59.818 141.266 56.106 141.14 54.3315C140.868 50.5024 139.982 43.0307 139.874 41.8408C139.631 39.1674 139.237 37.0239 138.375 35.037C135.341 36.3522 132.774 40.7728 132.815 43.5972Z" fill="black"/>
<path d="M113.776 79.7888C113.776 79.7888 113.776 68.7958 115.723 66.278C116.512 65.2573 115.855 61.3359 116.588 61.3373C116.973 61.338 123.627 67.9645 132.709 67.7708C137.884 67.6604 141.871 65.1169 142.068 65.3136C142.265 65.5103 142.549 69.9233 142.549 69.9233C144.261 70.379 148.113 88.0412 135.207 95.3586C129.064 98.8418 113.776 79.7888 113.776 79.7888Z" fill="#3C4358"/>
<path d="M120.859 22.5407C120.427 24.5033 119.35 26.7164 120.859 27.4009C122.367 28.0855 125.798 27.1271 126.997 26.3057C128.195 25.4842 127.443 21.9246 126.997 21.5139C126.55 21.1031 120.859 22.5407 120.859 22.5407Z" fill="#FFC9CA"/>
<path d="M113.107 11.8334C113.191 12.8445 113.4 13.6759 113.565 14.326C114.515 18.0561 113.863 23.9434 113.516 24.8656C112.967 26.3277 122.852 19.1812 123.959 17.1006C124.662 15.7796 124.626 8.17386 121.849 2.49622C121.849 2.49622 113.024 10.8224 113.107 11.8334Z" fill="#3C4358"/>
<path d="M114.219 12.7399C113.788 18.3103 115.692 23.9929 121.272 24.423C126.851 24.8531 133.113 20.0198 133.544 14.4493C133.975 8.8789 129.801 4.01454 124.222 3.5844C118.642 3.1543 114.65 7.16947 114.219 12.7399Z" fill="#FFD3D4"/>
<path d="M119.514 25.8071C119.514 25.8071 119.933 25.1522 120.082 25.2007C120.231 25.2492 120.206 26.1588 120.947 26.3771C121.688 26.5954 127.604 24.9217 127.787 25.0551C127.969 25.1885 129.888 27.2503 129.475 27.4444C129.062 27.6384 123.195 29.2515 120.632 28.3661C118.068 27.4808 119.514 25.8071 119.514 25.8071Z" fill="#4282B8"/>
<path opacity="0.05" d="M119.514 25.8071C119.514 25.8071 119.933 25.1522 120.082 25.2007C120.231 25.2492 120.206 26.1588 120.947 26.3771C121.688 26.5954 127.604 24.9217 127.787 25.0551C127.969 25.1885 129.888 27.2503 129.475 27.4444C129.062 27.6384 123.195 29.2515 120.632 28.3661C118.068 27.4808 119.514 25.8071 119.514 25.8071Z" fill="black"/>
<path d="M112.702 12.9359C112.702 12.9359 117.056 16.3846 123.803 14.9975C128.051 14.1243 127.828 27.225 127.278 28.6871C126.729 30.1492 136.462 23.1929 137.568 21.1122C138.675 19.0315 137.954 1.35895 127.569 0.187941C112.658 -1.49344 112.702 12.9359 112.702 12.9359Z" fill="#3C4358"/>
<path d="M116.481 57.202C116.494 57.6707 115.742 58.9833 115.731 59.546C115.719 60.1088 116.241 61.4745 116.73 62.0304C116.833 62.1482 119.383 64.9502 120.651 64.9249C121.232 64.9133 125.334 66.526 125.326 66.3029C125.283 65.0998 116.838 57.8661 116.778 57.5721C116.687 57.1296 116.481 57.202 116.481 57.202Z" fill="#4282B8"/>
<path d="M142.383 77.8924C142.383 77.8924 143.905 85.4819 141.563 89.2363C138.242 94.5617 116.041 110.355 102.022 109.507C102.022 109.507 97.7742 111.627 96.4997 101.873C96.2156 99.6975 119.421 80.1283 133.538 78.6211C141.57 77.7635 142.383 77.8924 142.383 77.8924Z" fill="#3D4356"/>
<path d="M99.7371 89.8812C99.7371 89.8812 98.4376 114.373 98.6317 137.498C98.6427 138.809 93.637 140.32 92.2244 140.384C90.4971 140.462 85.9313 138.898 86.0659 136.463C86.838 122.499 80.8375 96.5912 86.5058 91.323C93.4131 84.9031 99.7371 89.8812 99.7371 89.8812Z" fill="#3C4358"/>
<path d="M109.534 94.6994C109.534 94.6994 108.235 119.191 108.429 142.316C108.44 143.627 103.434 145.138 102.022 145.202C100.294 145.28 95.7284 143.716 95.863 141.281C96.635 127.317 90.6346 101.409 96.3028 96.1411C103.21 89.7212 109.534 94.6994 109.534 94.6994Z" fill="#3C4358"/>
<path d="M139.395 38.4469C141.421 41.9676 140.282 68.4466 136.815 68.6045C133.348 68.7623 133.242 55.6146 131.696 44.5901C130.111 33.2835 137.369 34.9262 139.395 38.4469Z" fill="#FFD3D4"/>
<path d="M130.54 44.7715C131.241 46.1947 137.493 39.8514 138.966 40.1026C140.137 40.3022 140.077 42.219 140.077 42.219C140.077 42.219 141.467 40.3915 140.49 37.9349C139.604 35.7091 135.882 31.2251 134.692 30.6116C133.503 29.9982 128.402 40.4309 130.54 44.7715Z" fill="#4282B8"/>
<path opacity="0.05" d="M161 166.433L77.3088 120.223L36.6837 143.639L120.375 189.85L161 166.433Z" fill="#333333"/>
<path opacity="0.05" d="M125.579 144.631L101.877 130.969L125.578 117.307L149.28 130.969L125.579 144.631Z" fill="#333333"/>
<path d="M44.1513 145.603L46.377 144.32V79.1503L44.1513 80.4332V145.603Z" fill="#B9CCE3"/>
<path d="M41.9255 144.32L44.1513 145.603V80.4332L41.9255 79.1503V144.32Z" fill="#C4D2E3"/>
<path d="M77.0932 126.452L79.319 125.169V59.9994L77.0932 61.2823V126.452Z" fill="#B9CCE3"/>
<path d="M74.8675 125.169L77.0932 126.452V61.2823L74.8675 59.9994V125.169Z" fill="#C4D2E3"/>
<path d="M154.537 168.543L156.763 167.26V102.091L154.537 103.374V168.543Z" fill="#B9CCE3"/>
<path d="M152.311 167.26L154.537 168.543V103.374L152.311 102.091V167.26Z" fill="#C4D2E3"/>
<path d="M121.297 187.694L123.523 186.411V121.241L121.297 122.524V187.694Z" fill="#B9CCE3"/>
<path d="M119.071 186.411L121.297 187.694V122.524L119.071 121.241V186.411Z" fill="#C4D2E3"/>
<path d="M117.852 125.384V127.477L158.477 104.06V101.967L117.852 125.384Z" fill="#B9CCE3"/>
<path d="M34.1577 79.1926L117.849 125.403L158.474 101.986L74.7828 55.7759L34.1577 79.1926Z" fill="#CED7E3"/>
<path d="M34.1577 79.1715V81.2644L117.852 127.477V125.384L34.1577 79.1715Z" fill="#C4D2E3"/>
<path opacity="0.1" d="M97.9838 83.821C99.729 83.821 101.144 83.0055 101.144 81.9995C101.144 80.9935 99.729 80.178 97.9838 80.178C96.2385 80.178 94.8237 80.9935 94.8237 81.9995C94.8237 83.0055 96.2385 83.821 97.9838 83.821Z" fill="black"/>
<path d="M94.5367 76.0697H97.9137H101.291C101.291 78.5932 100.786 81.5755 100.786 81.5755C100.786 81.9992 100.506 82.4229 99.9447 82.7462C98.823 83.3928 97.0044 83.3928 95.8827 82.7462C95.3218 82.4229 95.0414 81.9992 95.0414 81.5755C95.0414 81.5755 94.5367 78.5932 94.5367 76.0697Z" fill="#4282B8"/>
<path d="M95.5257 77.4461C96.8445 78.2063 98.9828 78.2063 100.302 77.4461C100.692 77.2209 100.964 76.9539 101.123 76.6704C101.126 76.6996 101.131 76.7287 101.131 76.7579C101.131 77.2325 100.817 77.707 100.188 78.0691C98.9321 78.7932 96.8952 78.7932 95.6389 78.0691C94.9722 77.6847 94.663 77.1737 94.704 76.6705C94.8632 76.9539 95.1351 77.221 95.5257 77.4461Z" fill="#4282B8"/>
<path d="M97.9137 78.0164C99.7788 78.0164 101.291 77.1449 101.291 76.0698C101.291 74.9948 99.7788 74.1233 97.9137 74.1233C96.0486 74.1233 94.5367 74.9948 94.5367 76.0698C94.5367 77.1449 96.0486 78.0164 97.9137 78.0164Z" fill="#CDCDCD"/>
<path d="M101.446 80.9997V80.1268C101.446 79.4493 100.97 78.6255 100.382 78.2868L100.182 78.1713L100.641 77.9419L100.842 78.0574C101.429 78.3961 101.906 79.2199 101.906 79.8974V80.7703C101.906 81.3001 101.706 81.6598 101.39 81.8071L101.393 81.8085C101.111 81.9623 100.958 82.0293 100.886 82.0577C101.228 81.9248 101.446 81.5546 101.446 80.9997Z" fill="#4282B8"/>
<path d="M100.387 81.2361L100.44 81.2664C100.584 81.3499 100.715 81.4253 100.827 81.4805C100.704 81.5984 100.535 81.6487 100.339 81.621H100.084L99.9273 81.4655C99.9273 81.4655 100.332 81.3555 100.387 81.2361Z" fill="#4282B8"/>
<path opacity="0.1" d="M101.446 80.9997V80.1268C101.446 79.4493 100.97 78.6255 100.382 78.2868L100.182 78.1713L100.641 77.9419L100.842 78.0574C101.429 78.3961 101.906 79.2199 101.906 79.8974V80.7703C101.906 81.3001 101.706 81.6598 101.39 81.8071L101.393 81.8085C101.111 81.9623 100.958 82.0293 100.886 82.0577C101.228 81.9248 101.446 81.5546 101.446 80.9997Z" fill="white"/>
<path opacity="0.1" d="M100.387 81.2361L100.44 81.2664C100.584 81.3499 100.715 81.4253 100.827 81.4805C100.704 81.5984 100.535 81.6487 100.339 81.621H100.084L99.9273 81.4655C99.9273 81.4655 100.332 81.3555 100.387 81.2361Z" fill="white"/>
<path d="M99.9272 81.4655L99.9538 81.4808C100.09 81.5591 100.219 81.6039 100.339 81.621C100.535 81.6487 100.704 81.5984 100.827 81.4805C100.965 81.3489 101.048 81.1348 101.048 80.85V79.8177C101.048 79.4376 100.781 78.9754 100.451 78.7854L100.166 78.6206C100.172 78.4714 100.178 78.3215 100.182 78.1713L100.382 78.2867C100.97 78.6255 101.446 79.4493 101.446 80.1268V80.9997C101.446 81.5546 101.228 81.9247 100.886 82.0576C100.88 82.0597 100.876 82.0616 100.871 82.0633C100.858 82.0679 100.845 82.0706 100.832 82.0745C100.569 82.1548 100.241 82.1053 99.8847 81.8998L99.8743 81.8938C99.8911 81.7632 99.909 81.6193 99.9272 81.4655Z" fill="#4282B8"/>
<path opacity="0.1" d="M99.9272 81.4655L99.9538 81.4808C100.09 81.5591 100.219 81.6039 100.339 81.621C100.535 81.6487 100.704 81.5984 100.827 81.4805C100.965 81.3489 101.048 81.1348 101.048 80.85V79.8177C101.048 79.4376 100.781 78.9754 100.451 78.7854L100.166 78.6206C100.172 78.4714 100.178 78.3215 100.182 78.1713L100.382 78.2867C100.97 78.6255 101.446 79.4493 101.446 80.1268V80.9997C101.446 81.5546 101.228 81.9247 100.886 82.0576C100.88 82.0597 100.876 82.0616 100.871 82.0633C100.858 82.0679 100.845 82.0706 100.832 82.0745C100.569 82.1548 100.241 82.1053 99.8847 81.8998L99.8743 81.8938C99.8911 81.7632 99.909 81.6193 99.9272 81.4655Z" fill="black"/>
<path d="M100.141 77.168C99.551 77.5078 98.7601 77.695 97.9137 77.695C97.0672 77.695 96.2763 77.5079 95.6866 77.168C95.4204 77.0146 95.214 76.8407 95.0738 76.6554C95.2145 76.4041 95.4554 76.1674 95.8015 75.9678C96.9681 75.2954 98.8595 75.2954 100.026 75.9678C100.372 76.1673 100.613 76.404 100.754 76.6553C100.613 76.8406 100.407 77.0145 100.141 77.168Z" fill="#A47C52"/>
<path d="M95.5257 77.4462C96.8445 78.2063 98.9828 78.2063 100.302 77.4461C101.62 76.686 101.62 75.4534 100.302 74.6933C98.9829 73.9331 96.8446 73.9331 95.5258 74.6933C94.207 75.4535 94.2069 76.686 95.5257 77.4462ZM94.8583 76.0698C94.8583 75.6694 95.1525 75.2794 95.6866 74.9714C96.2764 74.6316 97.0673 74.4444 97.9137 74.4444C98.7602 74.4444 99.5511 74.6315 100.141 74.9714C100.675 75.2792 100.969 75.6693 100.969 76.0696C100.969 76.4701 100.675 76.8601 100.141 77.168C99.551 77.5079 98.7601 77.6951 97.9137 77.6951C97.0672 77.6951 96.2763 77.5079 95.6866 77.168C95.1525 76.8602 94.8584 76.4702 94.8583 76.0698Z" fill="#E4E4E4"/>
<path opacity="0.1" d="M87.3405 104.769C89.0858 104.769 90.5006 103.954 90.5006 102.948C90.5006 101.942 89.0858 101.126 87.3405 101.126C85.5952 101.126 84.1804 101.942 84.1804 102.948C84.1804 103.954 85.5952 104.769 87.3405 104.769Z" fill="black"/>
<path d="M83.8934 97.018H87.2704H90.6475C90.6475 99.5415 90.1427 102.524 90.1427 102.524C90.1427 102.947 89.8622 103.371 89.3014 103.694C88.1797 104.341 86.3611 104.341 85.2394 103.694C84.6786 103.371 84.3981 102.947 84.3981 102.524C84.3981 102.524 83.8934 99.5415 83.8934 97.018Z" fill="#4282B8"/>
<path d="M84.8825 98.3944C86.2012 99.1546 88.3395 99.1545 89.6583 98.3943C90.0489 98.1692 90.3209 97.9021 90.4801 97.6187C90.4825 97.6478 90.4873 97.6769 90.4873 97.7061C90.4873 98.1807 90.1733 98.6552 89.5451 99.0173C88.2888 99.7414 86.2519 99.7415 84.9956 99.0173C84.3289 98.633 84.0197 98.122 84.0607 97.6187C84.2199 97.9022 84.4919 98.1692 84.8825 98.3944Z" fill="#4282B8"/>
<path d="M87.2705 98.9645C89.1356 98.9645 90.6475 98.093 90.6475 97.018C90.6475 95.9429 89.1356 95.0714 87.2705 95.0714C85.4054 95.0714 83.8934 95.9429 83.8934 97.018C83.8934 98.093 85.4054 98.9645 87.2705 98.9645Z" fill="#CDCDCD"/>
<path d="M90.803 101.948V101.075C90.803 100.398 90.3266 99.5737 89.7389 99.235L89.5386 99.1195L89.9982 98.8901L90.1985 99.0056C90.7862 99.3443 91.2626 100.168 91.2626 100.846V101.719C91.2626 102.248 91.0629 102.608 90.747 102.755L90.7499 102.757C90.468 102.91 90.3151 102.978 90.2425 103.006C90.5849 102.873 90.803 102.503 90.803 101.948Z" fill="#4282B8"/>
<path d="M89.7436 102.184L89.7964 102.215C89.9411 102.298 90.0715 102.374 90.1841 102.429C90.0603 102.547 89.8918 102.597 89.6961 102.569H89.4408L89.284 102.414C89.284 102.414 89.6891 102.304 89.7436 102.184Z" fill="#4282B8"/>
<path opacity="0.1" d="M90.803 101.948V101.075C90.803 100.398 90.3266 99.5737 89.7389 99.235L89.5386 99.1195L89.9982 98.8901L90.1985 99.0056C90.7862 99.3443 91.2626 100.168 91.2626 100.846V101.719C91.2626 102.248 91.0629 102.608 90.747 102.755L90.7499 102.757C90.468 102.91 90.3151 102.978 90.2425 103.006C90.5849 102.873 90.803 102.503 90.803 101.948Z" fill="white"/>
<path opacity="0.1" d="M89.7436 102.184L89.7964 102.215C89.9411 102.298 90.0715 102.374 90.1841 102.429C90.0603 102.547 89.8918 102.597 89.6961 102.569H89.4408L89.284 102.414C89.284 102.414 89.6891 102.304 89.7436 102.184Z" fill="white"/>
<path d="M89.284 102.414L89.3105 102.429C89.4464 102.507 89.576 102.552 89.6961 102.569C89.8918 102.597 90.0603 102.547 90.1841 102.429C90.3222 102.297 90.405 102.083 90.405 101.798V100.766C90.405 100.386 90.1377 99.9236 89.8081 99.7336L89.5223 99.5689C89.5289 99.4197 89.5344 99.2697 89.5386 99.1195L89.7389 99.235C90.3266 99.5737 90.803 100.398 90.803 101.075V101.948C90.803 102.503 90.5849 102.873 90.2426 103.006C90.2371 103.008 90.2323 103.01 90.2277 103.011C90.215 103.016 90.2013 103.019 90.1882 103.023C89.9254 103.103 89.5979 103.053 89.2414 102.848L89.231 102.842C89.2478 102.711 89.2657 102.568 89.284 102.414Z" fill="#4282B8"/>
<path opacity="0.1" d="M89.284 102.414L89.3105 102.429C89.4464 102.507 89.576 102.552 89.6961 102.569C89.8918 102.597 90.0603 102.547 90.1841 102.429C90.3222 102.297 90.405 102.083 90.405 101.798V100.766C90.405 100.386 90.1377 99.9236 89.8081 99.7336L89.5223 99.5689C89.5289 99.4197 89.5344 99.2697 89.5386 99.1195L89.7389 99.235C90.3266 99.5737 90.803 100.398 90.803 101.075V101.948C90.803 102.503 90.5849 102.873 90.2426 103.006C90.2371 103.008 90.2323 103.01 90.2277 103.011C90.215 103.016 90.2013 103.019 90.1882 103.023C89.9254 103.103 89.5979 103.053 89.2414 102.848L89.231 102.842C89.2478 102.711 89.2657 102.568 89.284 102.414Z" fill="black"/>
<path d="M89.4976 98.1162C88.9077 98.4561 88.1169 98.6433 87.2704 98.6433C86.4239 98.6433 85.633 98.4561 85.0433 98.1162C84.7771 97.9628 84.5707 97.7889 84.4305 97.6036C84.5712 97.3523 84.8121 97.1156 85.1582 96.9161C86.3248 96.2436 88.2162 96.2436 89.3827 96.916C89.7289 97.1156 89.9697 97.3523 90.1105 97.6035C89.9702 97.7889 89.7637 97.9628 89.4976 98.1162Z" fill="#A47C52"/>
<path d="M84.8825 98.3944C86.2012 99.1546 88.3395 99.1546 89.6583 98.3944C90.9771 97.6342 90.9772 96.4017 89.6584 95.6415C88.3396 94.8814 86.2014 94.8814 84.8825 95.6416C83.5637 96.4017 83.5636 97.6343 84.8825 98.3944ZM84.215 97.0181C84.215 96.6176 84.5092 96.2276 85.0433 95.9197C85.6331 95.5798 86.424 95.3926 87.2704 95.3926C88.117 95.3926 88.9078 95.5798 89.4975 95.9197C90.0316 96.2275 90.3257 96.6175 90.3258 97.0179C90.3258 97.4183 90.0316 97.8083 89.4975 98.1163C88.9077 98.4561 88.1168 98.6433 87.2704 98.6433C86.4239 98.6433 85.633 98.4562 85.0433 98.1163C84.5093 97.8085 84.2152 97.4184 84.215 97.0181Z" fill="#E4E4E4"/>
<path d="M144.122 103.587L129.638 95.2384L107.516 107.99L122 116.338L144.122 103.587Z" fill="#4282B8"/>
<path opacity="0.3" d="M144.122 103.587L129.638 95.2384L107.516 107.99L122 116.338L144.122 103.587Z" fill="white"/>
<path d="M146.492 104.042L132.008 95.6937L109.886 108.445L124.37 116.794L146.492 104.042Z" fill="#4282B8"/>
<path opacity="0.4" d="M146.492 104.042L132.008 95.6937L109.886 108.445L124.37 116.794L146.492 104.042Z" fill="white"/>
<path d="M148.862 104.498L134.378 96.149L112.256 108.9L126.74 117.249L148.862 104.498Z" fill="#4282B8"/>
<path opacity="0.5" d="M148.862 104.498L134.378 96.149L112.256 108.9L126.74 117.249L148.862 104.498Z" fill="white"/>
<path opacity="0.05" d="M70.8019 187.652C72.4483 183.79 65.9911 177.348 56.3792 173.264C46.7673 169.181 37.6407 169.002 35.9942 172.865C34.3477 176.727 40.805 183.169 50.4169 187.253C60.0288 191.336 69.1554 191.515 70.8019 187.652Z" fill="#1A1A1A"/>
<path d="M48.7536 169.259C48.7495 169.263 48.7482 169.268 48.7455 169.273L45.4598 169.558L47.7505 170.399C43.5949 177.258 39.8811 171.78 39.3881 171.938C38.8808 172.1 37.4716 175.831 38.6215 178.892C38.8709 179.556 38.8409 179.639 39.2619 180.048C39.2836 180.286 39.3296 180.539 39.4215 180.759C39.6868 181.395 41.5718 182.405 43.3855 182.405C45.1991 182.405 48.6127 179.413 48.6127 179.413V178.735C50.2206 177.682 51.8257 176.714 52.5432 176.674C53.9542 176.596 60.854 171.938 60.854 169.259C60.854 166.58 51.7912 166.448 48.7536 169.259Z" fill="#4A4C56"/>
<path d="M48.0578 170.362L45.6052 169.564C45.6141 169.238 45.6213 168.912 45.634 168.593C45.7258 166.303 46.7005 162.663 44.584 162.614C42.4675 162.564 39.6669 161.286 39.5099 167.817C39.5099 167.817 39.4146 171.89 39.5099 172.48C39.6053 173.07 40.5566 174.265 44.0266 174.265C44.8558 174.265 45.9263 173.792 45.9263 173.792C45.9263 173.792 48.2912 172.914 49.1367 171.346L48.0578 170.362Z" fill="#FFD6D6"/>
<path d="M49.0377 122.314C50.0337 125.913 49.5534 142.591 49.7479 165.715C49.7589 167.027 44.7439 171.277 43.3287 171.34C41.5982 171.418 37.0239 169.854 37.1587 167.42C37.9322 153.455 31.8329 140.084 31.4763 127.983C30.8631 107.175 48.0418 118.716 49.0377 122.314Z" fill="#3C4358"/>
<path d="M40.6979 122.894C37.8573 122.237 40.3988 116.775 43.6281 116.804C46.8574 116.834 47.276 116.416 48.0833 117.76C48.8907 119.103 45.5418 123.67 43.5085 124.029C41.4753 124.387 40.6979 122.894 40.6979 122.894Z" fill="#FFD3D4"/>
<path d="M64.6938 178.716C64.6897 178.719 64.6884 178.725 64.6857 178.73L61.4 179.015L63.6907 179.856C59.5351 186.715 55.8213 181.237 55.3283 181.395C54.821 181.557 53.4117 185.288 54.5616 188.349C54.811 189.013 54.7811 189.096 55.202 189.505C55.2237 189.742 55.2698 189.996 55.3617 190.216C55.6269 190.852 57.512 191.862 59.3256 191.862C61.1393 191.862 64.5529 188.87 64.5529 188.87V188.192C66.1607 187.139 67.7658 186.17 68.4834 186.131C69.8944 186.053 76.7942 181.395 76.7942 178.716C76.7942 176.037 67.7314 175.905 64.6938 178.716Z" fill="#4A4C56"/>
<path d="M63.998 179.819L61.5453 179.021C61.5542 178.695 61.5614 178.369 61.5742 178.05C61.666 175.76 62.6407 172.12 60.5242 172.071C58.4077 172.021 55.6071 170.743 55.4501 177.274C55.4501 177.274 55.3548 181.347 55.4501 181.937C55.5454 182.527 56.4967 183.722 59.9668 183.722C60.796 183.722 61.8665 183.248 61.8665 183.248C61.8665 183.248 64.2314 182.371 65.0769 180.803L63.998 179.819Z" fill="#FFD6D6"/>
<path d="M64.7477 131.111C66.1748 134.602 65.2634 152.469 65.4579 175.593C65.4689 176.905 60.4539 179.899 59.0387 179.963C57.3082 180.041 52.7339 178.476 52.8687 176.042C53.6422 162.078 47.7301 146.211 47.9982 134.108C48.2068 124.689 63.3206 127.621 64.7477 131.111Z" fill="#3C4358"/>
<path opacity="0.05" d="M24.2883 212.948L0.586517 199.286L24.2876 185.625L47.9893 199.287L24.2883 212.948Z" fill="#1A1A1A"/>
<path d="M23.6723 209.596C23.2524 209.596 22.9121 209.257 22.9121 208.837V168.764C22.9121 168.345 23.2524 168.005 23.6723 168.005C24.0922 168.005 24.4325 168.345 24.4325 168.764V208.837C24.4325 209.257 24.0922 209.596 23.6723 209.596Z" fill="#BBB4B4"/>
<path d="M3.4688 199.246C3.45633 199.246 3.44386 199.246 3.4314 199.246C3.01178 199.225 2.68837 198.869 2.70887 198.451L4.36326 158.424C4.38376 158.005 4.74812 157.681 5.15944 157.703C5.57906 157.723 5.90246 158.079 5.88196 158.498L4.22757 198.524C4.20769 198.93 3.87178 199.246 3.4688 199.246Z" fill="#BBB4B4"/>
<path d="M45.3963 199.246C44.9933 199.246 44.6574 198.93 44.6376 198.524L42.9832 158.498C42.9627 158.079 43.2861 157.723 43.7057 157.703C44.1164 157.68 44.4814 158.005 44.5019 158.424L46.1563 198.451C46.1767 198.869 45.8533 199.225 45.4337 199.245C45.4213 199.246 45.4088 199.246 45.3963 199.246Z" fill="#BBB4B4"/>
<path d="M21.8478 188.646C21.4278 188.646 21.0875 188.307 21.0875 187.887V147.814C21.0875 147.395 21.4278 147.055 21.8478 147.055C22.2677 147.055 22.608 147.395 22.608 147.814V187.887C22.608 188.307 22.2677 188.646 21.8478 188.646Z" fill="#BBB4B4"/>
<path d="M20.3544 168.624L4.50557 159.489C2.33705 158.239 2.609 156.055 5.113 154.612L19.7463 146.177C22.2502 144.734 26.0381 144.577 28.2066 145.827L44.0554 154.963C46.2239 156.213 45.952 158.396 43.448 159.839L28.8147 168.274C26.3107 169.717 22.5229 169.874 20.3544 168.624Z" fill="#BBB4B4"/>
<path d="M7.43165 147.711C7.43165 147.711 1.05128 153.779 18.7905 160.709C39.7729 168.906 65.3343 134.877 65.3343 134.877C65.3343 134.877 66.0904 122.578 52.6804 127.074C41.6738 130.763 7.43165 147.711 7.43165 147.711Z" fill="#3C4358"/>
<path d="M8.17321 118.308C8.17321 118.308 -0.519152 124.319 0.178195 110.94C0.512881 104.518 -2.86937 87.5353 9.64557 85.2903C11.0763 85.0337 12.0868 114.856 8.17321 118.308Z" fill="#363E58"/>
<path opacity="0.1" d="M4.26367 119.647C1.89025 119.894 1.19004 99.4117 3.82039 99.7929C6.45074 100.174 6.57721 119.405 4.26367 119.647Z" fill="black"/>
<path d="M37.9154 136.444C37.4843 131.901 36.319 125.744 34.7031 120.069C32.6784 112.959 36.464 105.174 35.7565 97.4714C35.745 97.3454 35.7356 97.2193 35.7216 97.0932C34.8501 89.2675 25.7063 87.4249 25.7063 87.4249L13.8503 84.4427C13.8503 84.4427 6.91451 84.4651 5.72471 88.7923C4.53482 93.1196 4.51387 106.204 5.03563 111.618C5.5574 117.032 5.54517 141.834 4.27297 150.636C3.82592 153.73 19.5791 163.187 24.4062 162.808C29.2333 162.429 38.6252 155.062 39.9342 153.067C40.4791 152.237 38.2228 139.684 37.9154 136.444Z" fill="#363E58"/>
<path opacity="0.05" d="M33.7421 138.474C33.6246 139.405 33.6967 141.295 33.9702 141.441C34.2437 141.587 37.3178 139.432 37.6455 138.439C37.9732 137.445 37.5626 134.956 37.3137 135.026C37.0647 135.095 33.837 137.721 33.7421 138.474Z" fill="white"/>
<path opacity="0.1" d="M35.3654 99.37C30.9979 101.421 26.2653 105.194 26.535 111.878C26.8869 120.602 32.2206 132.468 37.7673 138.483C37.3362 133.94 36.646 126.374 35.0898 122.102C32.6941 115.524 35.5333 107.159 35.3654 99.37Z" fill="black"/>
<path d="M29.1156 88.9355C28.9668 88.528 36.4707 91.2612 39.7763 96.8599C41.3885 99.5904 41.2721 109.169 41.7729 117.471C42.0083 121.375 44.3955 126.815 43.2455 129.05C42.0956 131.285 36.299 135.89 33.4917 129.625C30.6843 123.36 29.4689 105.337 27.7087 103.217C27.7087 103.217 29.3599 89.6046 29.1156 88.9355Z" fill="#363E58"/>
<path d="M68.3124 107.36C67.1338 108.29 65.8231 110.444 66.8842 112.603C67.9861 114.845 71.7899 113.585 72.5094 113.138C77.4019 110.101 78.2743 106.604 77.5294 104.707C76.1976 101.313 70.7654 105.425 68.3124 107.36Z" fill="#FFD6D6"/>
<path d="M67.281 108.481C66.9237 107.906 67.084 102.446 68.9015 102.874C70.7191 103.303 69.521 108.487 68.9663 109.141C68.4117 109.795 67.281 108.481 67.281 108.481Z" fill="#FFD6D6"/>
<path d="M39.74 138.236C43.8371 139.981 66.4435 121.993 71.3328 115.869C72.4611 114.455 66.5044 109.536 66.2382 109.178C64.9668 107.466 31.8606 125.009 33.6879 130.033C35.3651 134.645 35.643 136.491 39.74 138.236Z" fill="#363E58"/>
<g opacity="0.05">
<path d="M66.4745 118.948C66.9111 119.094 67.534 118.912 67.864 118.545C68.1942 118.176 68.1079 117.76 67.6712 117.614C67.2346 117.468 66.6137 117.648 66.2836 118.016C65.9535 118.384 66.0379 118.802 66.4745 118.948Z" fill="black"/>
</g>
<g opacity="0.05">
<path d="M68.8535 117.091C69.2902 117.237 69.913 117.055 70.2431 116.687C70.5732 116.319 70.4869 115.903 70.0503 115.757C69.6136 115.611 68.9927 115.79 68.6626 116.159C68.3326 116.527 68.4169 116.945 68.8535 117.091Z" fill="black"/>
</g>
<path d="M20.231 88.4093C22.3138 88.4123 24.9995 89.0098 26.2419 88.699C26.2224 88.5765 26.2084 88.4421 26.2022 88.2901C26.1166 86.1666 28.9471 79.7325 25.8229 77.7313C22.6988 75.73 17.2173 75.6465 16.7565 79.3111C16.3493 82.549 14.8422 86.0422 14.6291 86.426C15.4846 87.4979 17.6579 88.4056 20.231 88.4093Z" fill="#FFCCCC"/>
<path d="M32.3359 64.8216C32.9224 65.6681 32.0642 69.2364 32.5106 71.059C33.921 76.8173 33.6438 84.5888 23.9042 84.8946C14.3877 85.1935 13.9583 80.4525 13.6569 74.3883C13.3556 68.3241 10.8677 65.5388 17.2118 62.0335C23.5559 58.5282 29.8866 61.2858 32.3359 64.8216Z" fill="#FFD2D2"/>
<path d="M33.9019 65.5289C34.2648 58.8901 24.2436 56.2559 19.3814 56.8017C17.4265 57.0211 12.6999 58.4051 12.01 61.1602C3.9581 68.4536 13.1108 82.532 18.7987 83.2918C21.2587 83.6204 23.9938 83.1627 25.3685 81.6839C25.5629 81.4748 26.4156 80.3224 26.1325 80.3606C25.1936 80.4872 23.6218 79.5196 23.79 76.2167C24.059 70.9317 26.2099 73.5113 26.7195 74.4411C27.2291 75.3709 27.4521 77.2226 27.4521 77.2226L28.0986 78.2721L28.9054 75.2445C30.5153 73.2719 31.336 71.8255 31.8476 69.8688C32.511 67.9094 33.5776 67.3268 33.9019 65.5289Z" fill="#3D4356"/>
<path d="M27.9193 88.3684L26.7083 86.2494C26.7083 86.2494 21.2187 86.2827 18.3219 84.908C15.4251 83.5334 16.3265 82.8892 15.7369 82.9989C15.1474 83.1086 13.154 84.608 13.154 84.608C13.154 84.608 12.9254 86.6135 15.6773 87.6521C17.8011 88.4536 23.0994 89.8837 25.3831 89.8083C27.8178 89.7278 27.9193 88.3684 27.9193 88.3684Z" fill="#363E58"/>
<path opacity="0.05" d="M27.9193 88.3684L26.7083 86.2494C26.7083 86.2494 21.2187 86.2827 18.3219 84.908C15.4251 83.5334 16.3265 82.8892 15.7369 82.9989C15.1474 83.1086 13.154 84.608 13.154 84.608C13.154 84.608 12.9254 86.6135 15.6773 87.6521C17.8011 88.4536 23.0994 89.8837 25.3831 89.8083C27.8178 89.7278 27.9193 88.3684 27.9193 88.3684Z" fill="white"/>
<path d="M25.4969 169.37L6.18693 158.794C5.06081 158.145 2.99395 157.51 2.99395 156.011C1.2767 146.308 1.01734 110.44 4.66646 108.618C8.31558 106.797 26.1859 120.903 26.1859 120.903C27.312 121.552 28.225 123.294 28.225 124.793C27.7047 135.119 27.3573 155.436 28.225 165.592C28.225 167.091 26.623 170.019 25.4969 169.37Z" fill="#BBB4B4"/>
<path opacity="0.05" d="M76.1872 83.4108L56.6991 72.1777C55.9718 71.7585 56.063 71.0263 56.9028 70.5423L70.9793 62.4285C71.819 61.9445 73.0893 61.8919 73.8165 62.3111L93.3046 73.5442C94.0318 73.9634 93.9406 74.6955 93.1009 75.1796L79.0244 83.2934C78.1847 83.7774 76.9144 83.83 76.1872 83.4108Z" fill="black"/>
<path d="M72.3436 61.0799L93.1368 72.7758C93.4556 72.7758 93.4395 74.0625 92.5592 74.5699L80.5636 81.4842C79.6833 81.9916 78.3517 82.0467 77.5894 81.6073L57.1602 69.8317C56.3978 69.3923 56.4773 68.0019 57.1149 68.0019L69.3693 61.2029C70.2496 60.6955 71.5812 60.6405 72.3436 61.0799Z" fill="#3E5F94"/>
<path d="M72.3436 60.4434L92.7727 72.219C93.5351 72.6584 93.4395 73.426 92.5592 73.9334L80.5636 80.8477C79.6833 81.3551 78.3517 81.4102 77.5893 80.9708L57.1601 69.1952C56.3978 68.7558 56.4934 67.9882 57.3737 67.4808L69.3693 60.5665C70.2496 60.0591 71.5812 60.004 72.3436 60.4434Z" fill="#697A94"/>
<path d="M79.8071 79.7063C79.8507 79.7129 79.9348 79.7073 79.9962 79.6942C80.1013 79.6728 80.1272 79.6597 80.5879 79.3942C81.055 79.1249 81.0696 79.1146 81.1052 79.055C81.1747 78.9311 81.1892 78.945 80.5587 78.5816C80.0204 78.2713 80.001 78.262 79.9234 78.2546C79.7763 78.2424 79.7683 78.2452 79.1717 78.5891L78.6189 78.9078L78.6124 78.9749L78.6075 79.041L79.1669 79.369C79.6923 79.6756 79.7311 79.6961 79.8071 79.7063Z" fill="#3D4356"/>
<path d="M77.9674 78.6479C78.1387 78.6777 78.1597 78.6693 78.7482 78.3301C79.3382 77.99 79.3576 77.9751 79.301 77.881C79.2768 77.8372 79.2153 77.7981 78.7384 77.5232C78.2082 77.2175 78.2033 77.2148 78.1112 77.2045C77.9544 77.1868 77.9495 77.1877 77.3579 77.5288C76.8422 77.826 76.8147 77.8437 76.7954 77.8903C76.7582 77.9788 76.7824 77.9984 77.3612 78.332C77.8364 78.6059 77.8914 78.6339 77.9674 78.6479Z" fill="#3D4356"/>
<path d="M76.0889 77.5799C76.1665 77.6041 76.2764 77.6079 76.3524 77.5883C76.3815 77.5808 76.6434 77.4373 76.9343 77.2696C77.4306 76.9836 77.4645 76.9621 77.4823 76.9165C77.5227 76.8223 77.5163 76.8168 76.8939 76.4636L76.3313 76.1449L76.2262 76.1458L76.1212 76.1449L75.5619 76.4617C75.0543 76.7487 75.0009 76.7813 74.9783 76.8242C74.9298 76.9173 74.9395 76.9267 75.5118 77.2603C75.7947 77.4252 76.0549 77.5697 76.0889 77.5799Z" fill="#3D4356"/>
<path d="M74.4157 76.5428H74.5418L75.1027 76.2194L75.6637 75.8961V75.8234V75.7508L75.0962 75.4237L74.5288 75.0966L74.4124 75.0929L74.2976 75.0901L73.7464 75.4022C73.1515 75.7395 73.1353 75.7507 73.1499 75.8392L73.158 75.8905L73.7238 76.2166L74.2896 76.5427L74.4157 76.5428Z" fill="#3D4356"/>
<path d="M72.4855 75.4842C72.5097 75.4907 72.5744 75.4945 72.6261 75.4907L72.7215 75.4861L73.2744 75.1674C73.8256 74.8497 73.8288 74.8478 73.8466 74.7947C73.8757 74.7089 73.845 74.6857 73.2856 74.3632C72.7409 74.0473 72.7118 74.0343 72.5485 74.039L72.4644 74.0408L71.9213 74.3483C71.3167 74.6912 71.2924 74.7089 71.3312 74.8002C71.3506 74.8468 71.3781 74.8645 71.8954 75.1608C72.1929 75.3323 72.458 75.4777 72.4855 75.4842Z" fill="#3D4356"/>
<path d="M70.6652 74.4277C70.7056 74.436 70.7719 74.4407 70.8156 74.4379C70.8948 74.4333 70.9061 74.4267 71.4573 74.109C72.0021 73.795 72.0182 73.7838 72.0279 73.7409C72.0473 73.6496 72.0376 73.6422 71.4622 73.3104C70.7056 72.8744 70.8187 72.8744 70.0703 73.3058C69.5061 73.631 69.5029 73.6328 69.5094 73.7316L69.5126 73.7801L70.0525 74.095C70.4809 74.3457 70.607 74.4146 70.6652 74.4277Z" fill="#3D4356"/>
<path d="M68.8126 73.3672C68.8983 73.3923 69.0082 73.3923 69.0955 73.3644C69.1375 73.3513 69.3849 73.2162 69.6581 73.0587C70.2061 72.7429 70.2416 72.7149 70.2045 72.6226C70.1851 72.576 70.1576 72.5583 69.6403 72.2602C69.047 71.9182 69.0341 71.9126 68.8821 71.9294C68.811 71.9369 68.769 71.9592 68.2533 72.2565C67.4951 72.6934 67.4967 72.6273 68.242 73.055C68.5217 73.2162 68.7803 73.356 68.8126 73.3672Z" fill="#3D4356"/>
<path d="M67.0731 72.3273C67.2267 72.3488 67.2623 72.3339 67.8281 72.0077C68.3939 71.6816 68.4197 71.6611 68.3826 71.5726C68.3632 71.526 68.3341 71.5074 67.8151 71.2082C67.2105 70.8597 67.1976 70.8542 67.044 70.8812C66.9713 70.8933 66.9098 70.925 66.4297 71.2017C65.9496 71.4785 65.8946 71.5139 65.8736 71.5558C65.8267 71.6443 65.8364 71.6518 66.441 72.0003C66.96 72.2994 66.9923 72.3162 67.0731 72.3273Z" fill="#3D4356"/>
<path d="M65.2464 71.2743C65.4016 71.2948 65.4339 71.2818 66.0126 70.9482C66.7514 70.5224 66.7498 70.5867 66.0304 70.1646C65.4533 69.8263 65.4096 69.8067 65.2561 69.8244C65.1639 69.8347 65.1607 69.8366 64.6078 70.1552L64.0533 70.4748L64.0469 70.5419L64.042 70.6081L64.6014 70.9361C65.1397 71.2501 65.1623 71.2632 65.2464 71.2743Z" fill="#3D4356"/>
<path d="M63.3938 70.199C63.4261 70.2046 63.4875 70.2046 63.5312 70.2C63.6039 70.1916 63.6427 70.1711 64.1552 69.8757C64.7549 69.53 64.7598 69.5253 64.7226 69.4368C64.7048 69.3986 64.5286 69.2952 62.739 68.2637L60.7748 67.1315L60.6843 67.1259C60.5049 67.1175 60.492 67.1231 59.9391 67.4418C59.3862 67.7604 59.3765 67.7679 59.3911 67.8714L59.4008 67.9235L61.3665 69.0566C62.9379 69.9605 63.3469 70.1925 63.3938 70.199Z" fill="#3D4356"/>
<path d="M81.6127 78.6488C81.6515 78.6581 81.734 78.6591 81.7922 78.6516L81.9005 78.6376L82.413 78.3423C82.9157 78.0525 82.927 78.0441 82.9529 77.9882C83.0078 77.8708 83.0773 77.9183 81.7388 77.1468C80.5894 76.4842 80.5474 76.4619 80.4665 76.4507C80.3491 76.4339 80.1023 76.5321 79.7262 76.7452C79.4093 76.9241 79.1992 77.0508 79.1717 77.0778C79.1458 77.1039 79.1281 77.1495 79.1281 77.1794L79.1297 77.2362L80.334 77.9341C81.3347 78.5146 81.5497 78.6348 81.6127 78.6488Z" fill="#3D4356"/>
<path d="M63.8189 68.4015C63.8803 68.4164 63.9967 68.4127 64.0727 68.3931C64.1131 68.3828 64.3216 68.2701 64.6401 68.0865C65.2026 67.7623 65.2188 67.7492 65.1816 67.6458L65.1638 67.5927L63.8851 66.8556C62.4447 66.0254 62.5401 66.071 62.3348 66.1036C62.2378 66.1185 62.2233 66.1251 61.7254 66.4121C61.2275 66.6991 61.2162 66.7074 61.1887 66.7643C61.1321 66.8789 61.0561 66.8276 62.4949 67.6551C63.1965 68.0595 63.793 68.3959 63.8189 68.4015Z" fill="#3D4356"/>
<path d="M78.5024 76.828C78.656 76.8494 78.6899 76.8355 79.2606 76.5065C79.8264 76.1804 79.8425 76.1673 79.8167 76.0686C79.8054 76.0248 79.786 76.0117 79.2525 75.7042C78.7368 75.407 78.6948 75.3846 78.6236 75.3772C78.4717 75.3604 78.4587 75.366 77.8671 75.707C77.2706 76.0508 77.2657 76.0555 77.3029 76.144C77.3207 76.1804 77.3918 76.2251 77.8703 76.5009C78.3892 76.8 78.4216 76.8168 78.5024 76.828Z" fill="#3D4356"/>
<path d="M76.6595 75.7695C76.8227 75.8021 76.8486 75.7909 77.4387 75.4508C78.1903 75.0175 78.1887 75.0818 77.4419 74.6513C76.8631 74.3177 76.8292 74.3038 76.6756 74.3252C76.5948 74.3364 76.5641 74.3522 76.0484 74.6495C75.4568 74.9905 75.4551 74.9933 75.4859 75.0837C75.5036 75.1368 75.5085 75.1396 76.0387 75.4452C76.5156 75.7201 76.5835 75.7555 76.6595 75.7695Z" fill="#3D4356"/>
<path d="M74.7649 74.6997C74.8522 74.7239 74.9136 74.7295 74.9912 74.7183C75.0704 74.7081 75.1059 74.6894 75.6135 74.3968C76.1211 74.1042 76.1551 74.0828 76.1728 74.0372C76.2133 73.9449 76.2036 73.9375 75.6087 73.5945C75.1027 73.3029 75.0655 73.2833 74.9863 73.2731C74.8262 73.2498 74.8133 73.2554 74.2216 73.5964C73.6397 73.9318 73.6283 73.9402 73.6574 74.0278C73.6704 74.0688 73.7108 74.094 74.2022 74.381C74.4932 74.5505 74.7471 74.695 74.7649 74.6997Z" fill="#3D4356"/>
<path d="M72.9348 73.6393C73.0238 73.6701 73.1014 73.6775 73.187 73.6617C73.2517 73.6505 73.3309 73.6086 73.811 73.3263L74.3623 73.0029L74.3574 72.9368L74.3509 72.8697L73.798 72.551C73.1918 72.2016 73.1902 72.2006 73.0285 72.2193L72.9364 72.2295L72.3868 72.5519L71.8372 72.8743V72.9321C71.8388 72.9628 71.8598 73.0085 71.8873 73.0336C71.9439 73.0867 72.8476 73.6077 72.9348 73.6393Z" fill="#3D4356"/>
<path d="M71.2794 72.6106H71.4056L71.9568 72.2929C72.5678 71.9407 72.5775 71.9332 72.5307 71.8447C72.5097 71.8027 72.4531 71.7664 71.9665 71.4859C71.3635 71.1383 71.3716 71.1411 71.1938 71.1672C71.1145 71.1775 71.0757 71.198 70.5795 71.484C69.9943 71.8213 69.9829 71.8297 70.0234 71.922C70.0411 71.9676 70.0751 71.989 70.5989 72.2909L71.1533 72.6106L71.2794 72.6106Z" fill="#3D4356"/>
<path d="M69.3493 71.5521C69.3735 71.5586 69.4366 71.5614 69.4867 71.5586C69.6128 71.553 69.7098 71.5046 70.2529 71.184C70.8947 70.8066 70.9028 70.8598 70.1333 70.4237C69.3865 70.0006 69.4996 70.0006 68.7495 70.433C68.0059 70.8616 68.0059 70.7964 68.7673 71.2334C69.0599 71.4021 69.3218 71.5455 69.3493 71.5521Z" fill="#3D4356"/>
<path d="M67.5403 70.4944C67.5855 70.5038 67.6599 70.5075 67.7019 70.5038C67.7779 70.4972 67.8054 70.4833 68.2936 70.2074C68.612 70.0276 68.8238 69.9 68.8513 69.8729C68.8772 69.8469 68.8949 69.8012 68.8949 69.7714L68.8933 69.7146L68.321 69.3847L67.7488 69.0548L67.6501 69.0539C67.5968 69.053 67.5208 69.0632 67.4788 69.0763C67.4335 69.0912 67.2169 69.2105 66.8985 69.3978C66.1936 69.8115 66.1904 69.75 66.9389 70.1814C67.3996 70.4469 67.4659 70.4814 67.5403 70.4944Z" fill="#3D4356"/>
<path d="M65.6763 69.435C65.7087 69.4443 65.7636 69.4536 65.7976 69.4545C65.935 69.4592 65.9803 69.4387 66.5186 69.1284C67.0844 68.8023 67.1102 68.7818 67.073 68.6933C67.0536 68.6467 67.0245 68.628 66.504 68.328C65.9834 68.028 65.9527 68.0121 65.8719 68.0009C65.72 67.9804 65.6925 67.9926 65.104 68.3317C64.3637 68.7585 64.3653 68.6867 65.0928 69.1116C65.3805 69.2794 65.6424 69.4247 65.6763 69.435Z" fill="#3D4356"/>
<path d="M83.4119 77.5893C83.4798 77.6061 83.6253 77.5987 83.7077 77.5754C83.7546 77.5614 83.9438 77.4598 84.259 77.2781C84.7213 77.0098 84.7375 77.0004 84.7714 76.9399C84.8393 76.8169 84.9654 76.9007 83.1613 75.8608C81.6498 74.9896 81.5641 74.9421 81.4849 74.9281C81.3135 74.8983 81.2909 74.9076 80.7122 75.2412C80.1351 75.5738 80.1222 75.585 80.1577 75.6894L80.1755 75.7425L81.7711 76.6603C82.6472 77.1653 83.3861 77.5837 83.4119 77.5893Z" fill="#3D4356"/>
<path d="M79.5208 75.2905C79.6792 75.3128 79.71 75.2988 80.3048 74.9504L80.8399 74.6364L80.8415 74.5795C80.8415 74.5497 80.8237 74.504 80.7979 74.478C80.7704 74.451 80.557 74.3223 80.2353 74.1406C79.7584 73.8714 79.7115 73.8481 79.642 73.8397C79.4901 73.8229 79.4771 73.8285 78.8774 74.1742L78.3278 74.491L78.3213 74.5581L78.3164 74.6242L78.8758 74.9522C79.4141 75.2662 79.4368 75.2793 79.5208 75.2905Z" fill="#3D4356"/>
<path d="M77.6601 74.2217C77.7054 74.231 77.7797 74.2348 77.8218 74.231C77.8978 74.2245 77.9252 74.2105 78.4393 73.9198C79.0358 73.5816 79.0584 73.5648 79.018 73.4707C79.0002 73.4269 78.9647 73.4046 78.4328 73.1017L77.8638 72.7793L77.749 72.7821L77.6326 72.7858L77.0684 73.111L76.5042 73.4362L76.4961 73.4893C76.4913 73.5182 76.5074 73.561 76.5301 73.5853C76.5559 73.6113 76.7822 73.7493 77.0748 73.9179C77.5194 74.1741 77.5858 74.2087 77.6601 74.2217Z" fill="#3D4356"/>
<path d="M75.8625 73.1837C76.0322 73.207 76.0144 73.2154 76.6319 72.8594C77.1816 72.5426 77.1929 72.5361 77.201 72.4904C77.2204 72.4028 77.1929 72.3833 76.6271 72.0571C75.8802 71.6266 75.9918 71.6257 75.24 72.059C74.4883 72.4923 74.4867 72.4261 75.2481 72.865C75.7444 73.1511 75.7865 73.1734 75.8625 73.1837Z" fill="#3D4356"/>
<path d="M73.9905 72.1195C74.0761 72.1465 74.1893 72.1428 74.2831 72.1092C74.3817 72.0729 75.2659 71.5632 75.3273 71.5054C75.3548 71.4803 75.3759 71.4346 75.3775 71.4039V71.3461L74.8294 71.0246C74.2329 70.6752 74.2135 70.6659 74.0648 70.6808C73.9791 70.6891 73.971 70.6938 73.4262 71.0078C72.6681 71.4448 72.6697 71.3787 73.415 71.8064C73.6946 71.9676 73.9549 72.1083 73.9905 72.1195Z" fill="#3D4356"/>
<path d="M72.2461 71.0787C72.3997 71.1001 72.4353 71.0852 72.9946 70.7609C73.5539 70.4385 73.5846 70.4152 73.5555 70.3295C73.5377 70.2764 73.5345 70.2745 72.9897 69.9605C72.3932 69.6167 72.3803 69.6111 72.2283 69.6279C72.1572 69.6353 72.1152 69.6577 71.6027 69.9531C71.0902 70.2484 71.0515 70.2727 71.0385 70.3137C71.0094 70.4013 71.0191 70.4087 71.614 70.7516C72.133 71.0507 72.1653 71.0675 72.2461 71.0787Z" fill="#3D4356"/>
<path d="M70.4194 70.0257C70.5729 70.0471 70.6069 70.0332 71.1775 69.7042C71.7433 69.3781 71.7595 69.365 71.7336 69.2663C71.7223 69.2225 71.7029 69.2094 71.1678 68.901C70.5535 68.5469 70.5616 68.5497 70.3903 68.5795C70.3191 68.5907 70.2529 68.6252 69.8601 68.846C69.6127 68.9849 69.367 69.1284 69.3153 69.1656C69.2328 69.2243 69.2215 69.2402 69.2231 69.3026V69.3734L69.7776 69.6931C70.3063 69.9978 70.3385 70.0145 70.4194 70.0257Z" fill="#3D4356"/>
<path d="M68.5749 68.9663C68.743 68.998 68.7672 68.9878 69.3557 68.6486C70.1073 68.2153 70.1057 68.2796 69.3589 67.8491C68.7801 67.5155 68.7462 67.5015 68.5926 67.523C68.5118 67.5341 68.4811 67.55 67.9654 67.8472C67.3738 68.1883 67.3721 68.1911 67.4028 68.2814C67.4206 68.3345 67.4255 68.3374 67.9557 68.643C68.4326 68.9179 68.5005 68.9533 68.5749 68.9663Z" fill="#3D4356"/>
<path d="M66.7643 67.9189C66.9243 67.9422 66.9388 67.9357 67.5208 67.6003C68.1238 67.2527 68.1319 67.2462 68.0721 67.1446C68.0365 67.0868 68.0155 67.0747 66.2679 66.0674C64.5333 65.0676 64.4994 65.048 64.4008 65.0284C64.3377 65.0163 64.2666 65.0145 64.2035 65.0247C64.1082 65.0406 64.0904 65.0489 63.5941 65.335L63.0833 65.6294L63.059 65.69C63.0154 65.8046 62.8764 65.7152 64.881 66.8706C66.6366 67.8826 66.6834 67.9077 66.7643 67.9189Z" fill="#3D4356"/>
<path d="M82.5567 74.9253C82.5923 74.9309 82.6569 74.9328 82.6973 74.9281C82.7669 74.9197 82.8137 74.8964 83.2712 74.6383C83.546 74.4836 83.7966 74.3355 83.8322 74.3094C83.8774 74.274 83.892 74.2451 83.8888 74.1985L83.8871 74.1361L83.1306 73.7C82.387 73.2714 82.3724 73.263 82.2964 73.2583C82.138 73.2472 82.1251 73.2528 81.548 73.5854C81.021 73.8892 81.0161 73.892 80.9983 73.9451C80.9886 73.9731 80.9903 74.0131 81 74.0317C81.0307 74.0867 82.4662 74.9104 82.5567 74.9253Z" fill="#3D4356"/>
<path d="M80.3872 73.6599C80.536 73.6766 80.5764 73.6589 81.1357 73.3365C81.6869 73.0207 81.7128 73.0002 81.695 72.9135L81.6853 72.8669L76.4605 69.8553L71.2356 66.8437L71.158 66.8381C70.9996 66.8269 70.9867 66.8325 70.4096 67.1651C69.8826 67.4689 69.8777 67.4717 69.8599 67.5248C69.8502 67.5528 69.8519 67.5928 69.8616 67.6115C69.8777 67.6394 70.956 68.2665 75.088 70.6482L80.2951 73.6496L80.3872 73.6599Z" fill="#3D4356"/>
<path d="M69.2489 67.2397C69.3006 67.2453 69.3734 67.2406 69.4154 67.2294C69.5124 67.2015 70.4597 66.661 70.5227 66.5967C70.5454 66.5725 70.5615 66.5296 70.5567 66.5008L70.5486 66.4477L69.7936 66.0125C69.0419 65.5792 69.0371 65.5764 68.9563 65.5709C68.8059 65.5606 68.7704 65.5755 68.2159 65.8951C67.6501 66.2212 67.6242 66.2417 67.6614 66.3303C67.6824 66.3778 67.7083 66.3946 68.4196 66.8045L69.1568 67.2295L69.2489 67.2397Z" fill="#3D4356"/>
<path d="M67.0924 65.9668H67.2185L67.7729 65.6472C68.2951 65.3462 68.3306 65.3238 68.3452 65.2819C68.3759 65.1934 68.4115 65.2176 67.2976 64.5737L66.2679 63.9802L66.1515 63.9764L66.0367 63.9736L65.4596 64.3063L64.8825 64.6389L64.8873 64.7051L64.8938 64.7722L65.93 65.3695L66.9663 65.9668L67.0924 65.9668Z" fill="#3D4356"/>
<path d="M85.355 76.488C85.5054 76.4982 85.5409 76.4833 86.0954 76.1637C86.6499 75.8441 86.6757 75.8236 86.6579 75.7369L86.6482 75.6903L85.6233 75.0995C84.4933 74.4482 84.5354 74.4687 84.3737 74.4967C84.301 74.5088 84.2395 74.5404 83.7594 74.8172C83.2793 75.094 83.2243 75.1294 83.2033 75.1713C83.1548 75.2645 83.1193 75.2402 84.2492 75.8916L85.2742 76.4823L85.355 76.488Z" fill="#3D4356"/>
<path d="M72.1676 66.3944L76.1087 64.1227C76.3163 64.003 76.6304 63.99 76.8102 64.0937L86.6497 69.7653C86.7064 69.798 86.7407 69.8387 86.7577 69.8825C86.7904 69.7952 86.7567 69.7061 86.6497 69.6444L76.8102 63.9728C76.6304 63.8692 76.3163 63.8822 76.1087 64.0019L72.1676 66.2736C72.0254 66.3555 71.9723 66.4658 72.0092 66.5607C72.0314 66.5014 72.0835 66.4429 72.1676 66.3944Z" fill="#BDBDBD"/>
<path d="M77.7693 67.4645C77.6552 66.6477 76.9306 65.6237 76.1506 65.1739L55.2652 53.1356C54.8388 52.89 54.4842 52.8667 54.2691 53.0294L53.714 53.4488C53.9296 53.2859 54.2841 53.3092 54.7105 53.555L75.596 65.5934C76.3759 66.0428 77.1005 67.0671 77.2147 67.8836L79.0772 81.1831C79.1287 81.5541 79.0461 81.8181 78.8664 81.9536L79.4211 81.5342C79.6007 81.3987 79.6833 81.1349 79.6318 80.764L77.7693 67.4645Z" fill="#3E5F94"/>
<path d="M77.2147 67.8836C77.1006 67.0671 76.3759 66.0428 75.596 65.5933L54.7105 53.555C53.9306 53.1055 53.3905 53.4005 53.5051 54.2171L55.3671 67.5165C55.4813 68.3333 56.2064 69.36 56.9864 69.8095L77.8718 81.8481C78.6517 82.2976 79.1913 81.9999 79.0772 81.1831L77.2147 67.8836Z" fill="#536C92"/>
<path d="M66.0316 65.8489C67.0098 66.4128 67.916 67.698 68.059 68.7194C68.2024 69.7435 67.5283 70.1154 66.5501 69.5515C65.5746 68.9893 64.6664 67.7053 64.523 66.6812C64.38 65.6598 65.0562 65.2867 66.0316 65.8489Z" fill="#DDDDDD"/>
<path d="M138.186 66.3677C139.24 70.5569 111.808 84.2244 110.511 82.2286C109.349 80.441 127.454 67.2309 132.936 65.138C138.417 63.0452 138.186 66.3677 138.186 66.3677Z" fill="#FFD3D4"/>
<path d="M108.875 79.2873C110.09 78.5519 112.435 78.1042 114.001 79.7571C115.628 81.4735 113.251 84.4224 112.616 84.9114C108.303 88.2364 106.686 86.9874 105.237 85.7125C103.788 84.4375 106.345 80.8177 108.875 79.2873Z" fill="#FFD3D4"/>
<path d="M113.289 59.9652C109.674 62.3018 89.2248 41.3414 90.7244 39.4922C92.0675 37.8359 109.475 50.3093 112.965 54.705C116.456 59.1007 113.289 59.9652 113.289 59.9652Z" fill="#FFD3D4"/>
<path d="M93.6472 38.2091C94.684 39.1946 95.7391 41.3529 94.5428 43.3093C93.3006 45.3408 89.8015 43.8122 89.1579 43.3255C84.7813 40.0161 84.6664 36.4673 85.5256 34.7246C86.3847 32.9818 91.4891 36.158 93.6472 38.2091Z" fill="#FFD3D4"/>
<path d="M93.6464 41.3062C92.5415 39.1386 92.7447 34.999 93.6894 34.9998C95.8225 35.0015 95.3276 40.4341 95.0949 40.9373C94.8623 41.4405 93.6464 41.3062 93.6464 41.3062Z" fill="#FFD3D4"/>
</g>
<defs>
<clipPath id="clip0_45_3">
<rect width="161" height="213" fill="white"/>
</clipPath>
</defs>
</svg>
